<?xml version="1.0" encoding="utf-8"?>
<!-- Generator: Adobe Illustrator 21.1.0, SVG Export Plug-In . SVG Version: 6.00 Build 0)  -->
<svg version="1.2" baseProfile="tiny" id="Lager_1" xmlns="http://www.w3.org/2000/svg" xmlns:xlink="http://www.w3.org/1999/xlink"
	 x="0px" y="0px" width="184.3" height="85.1" viewBox="0 0 184.3 85.1" xml:space="preserve">

	 <g id="silkscreen">

	 		<rect id="connector" x="20.1" y="2.9" fill="none" stroke="#FFFFFF" stroke-width="0.5" stroke-linecap="round" stroke-linejoin="round" stroke-miterlimit="10" width="144" height="14.2"/>
	 </g>

<g id="board">
<path id="boardoutline" fill="#008000" d="M184.2,8.5C184.2,8.5,184.2,8.5,184.2,8.5c0-4.7-3.8-8.5-8.5-8.5H8.6c0,0,0,0,0,0c0,0,0,0-0.1,0
	C3.8,0,0,3.8,0,8.5c0,0,0,0.1,0,0.1v0v68C0,81.2,3.8,85,8.5,85c0,0,0.1,0,0.1,0v0.1h167.2V85c4.7-0.1,8.4-3.8,8.5-8.5h0.1L184.2,8.5
	L184.2,8.5z M13.8,75.2c-0.1,2.1-1.7,3.7-3.8,3.8c-2.1,0-3.9-1.7-3.9-3.8c0,0,0,0,0-0.1c0-2.1,1.6-3.8,3.8-3.8c0.1,0,0.1,0,0.1,0
	C12.1,71.3,13.8,73,13.8,75.2C13.8,75.2,13.8,75.2,13.8,75.2z M13.8,10c-0.1,2.1-1.7,3.7-3.8,3.8c-2.1,0-3.9-1.7-3.9-3.8
	c0,0,0,0,0-0.1c0-2.1,1.6-3.8,3.8-3.8c0.1,0,0.1,0,0.1,0C12.1,6.1,13.8,7.8,13.8,10C13.8,10,13.8,10,13.8,10z M178.2,75.2
	c-0.1,2.1-1.7,3.7-3.8,3.8c-2.1,0-3.9-1.7-3.9-3.8c0,0,0,0,0-0.1c0-2.1,1.6-3.8,3.8-3.8c0.1,0,0.1,0,0.1,0
	C176.4,71.3,178.2,73,178.2,75.2C178.2,75.2,178.2,75.2,178.2,75.2z M174.4,13.8C174.4,13.8,174.4,13.8,174.4,13.8
	c-2.1,0-3.9-1.7-3.9-3.8c0,0,0,0,0-0.1c0-2.1,1.6-3.8,3.8-3.8c0.1,0,0.1,0,0.1,0c2.1,0,3.8,1.7,3.8,3.9
	C178.1,12,176.4,13.7,174.4,13.8z"/>

</g>

</svg>
