<?xml version="1.0" encoding="utf-8"?>
<!-- Generator: Adobe Illustrator 21.1.0, SVG Export Plug-In . SVG Version: 6.00 Build 0)  -->
<svg version="1.2" baseProfile="tiny" id="Lager_1" xmlns="http://www.w3.org/2000/svg" xmlns:xlink="http://www.w3.org/1999/xlink"
	 x="0px" y="0px" width="614.2" height="47.3" viewBox="0 0 614.2 47.3" xml:space="preserve">
<g id="board">

		<rect id="boardoutline" x="0" y="0" fill="#008000" stroke="#FFFFFF" stroke-width="0.5" stroke-linecap="round" stroke-linejoin="round" stroke-miterlimit="10" width="614.2" height="47.2"/>
</g>
<g id="silkscreen">
	<g>

			<rect x="12.3" y="0" fill="none" stroke="#FFFFFF" stroke-width="0.5" stroke-linecap="round" stroke-linejoin="round" stroke-miterlimit="10" width="22.7" height="8.5"/>
		<rect x="0" y="0" fill="none" width="47.2" height="47.2"/>
	</g>
	<g>

			<rect x="59.6" y="0" fill="none" stroke="#FFFFFF" stroke-width="0.5" stroke-linecap="round" stroke-linejoin="round" stroke-miterlimit="10" width="22.7" height="8.5"/>
		<rect x="47.3" y="0" fill="none" width="47.2" height="47.2"/>
	</g>
	<g>

			<rect x="106.8" y="0" fill="none" stroke="#FFFFFF" stroke-width="0.5" stroke-linecap="round" stroke-linejoin="round" stroke-miterlimit="10" width="22.7" height="8.5"/>
		<rect x="94.5" y="0" fill="none" width="47.2" height="47.2"/>
	</g>
	<g>

			<rect x="154.1" y="0" fill="none" stroke="#FFFFFF" stroke-width="0.5" stroke-linecap="round" stroke-linejoin="round" stroke-miterlimit="10" width="22.7" height="8.5"/>
		<rect x="141.8" y="0" fill="none" width="47.2" height="47.2"/>
	</g>
	<g>

			<rect x="201.3" y="0" fill="none" stroke="#FFFFFF" stroke-width="0.5" stroke-linecap="round" stroke-linejoin="round" stroke-miterlimit="10" width="22.7" height="8.5"/>
		<rect x="189" y="0" fill="none" width="47.2" height="47.2"/>
	</g>
	<g>

			<rect x="248.5" y="0" fill="none" stroke="#FFFFFF" stroke-width="0.5" stroke-linecap="round" stroke-linejoin="round" stroke-miterlimit="10" width="22.7" height="8.5"/>
		<rect x="236.3" y="0" fill="none" width="47.2" height="47.2"/>
	</g>
	<g>

			<rect x="295.8" y="0" fill="none" stroke="#FFFFFF" stroke-width="0.5" stroke-linecap="round" stroke-linejoin="round" stroke-miterlimit="10" width="22.7" height="8.5"/>
		<rect x="283.5" y="0" fill="none" width="47.2" height="47.2"/>
	</g>
	<g>

			<rect x="343" y="0" fill="none" stroke="#FFFFFF" stroke-width="0.5" stroke-linecap="round" stroke-linejoin="round" stroke-miterlimit="10" width="22.7" height="8.5"/>
		<rect x="330.7" y="0" fill="none" width="47.2" height="47.2"/>
	</g>
	<g>

			<rect x="390.3" y="0" fill="none" stroke="#FFFFFF" stroke-width="0.5" stroke-linecap="round" stroke-linejoin="round" stroke-miterlimit="10" width="22.7" height="8.5"/>
		<rect x="378" y="0" fill="none" width="47.2" height="47.2"/>
	</g>
	<g>

			<rect x="437.5" y="0" fill="none" stroke="#FFFFFF" stroke-width="0.5" stroke-linecap="round" stroke-linejoin="round" stroke-miterlimit="10" width="22.7" height="8.5"/>
		<rect x="425.2" y="0" fill="none" width="47.2" height="47.2"/>
	</g>
	<g>

			<rect x="484.8" y="0" fill="none" stroke="#FFFFFF" stroke-width="0.5" stroke-linecap="round" stroke-linejoin="round" stroke-miterlimit="10" width="22.7" height="8.5"/>
		<rect x="472.5" y="0" fill="none" width="47.2" height="47.2"/>
	</g>
	<g>

			<rect x="532" y="0" fill="none" stroke="#FFFFFF" stroke-width="0.5" stroke-linecap="round" stroke-linejoin="round" stroke-miterlimit="10" width="22.7" height="8.5"/>
		<rect x="519.7" y="0" fill="none" width="47.2" height="47.2"/>
	</g>
	<g>

			<rect x="579.3" y="0" fill="none" stroke="#FFFFFF" stroke-width="0.5" stroke-linecap="round" stroke-linejoin="round" stroke-miterlimit="10" width="22.7" height="8.5"/>
		<rect x="567" y="0" fill="none" width="47.2" height="47.2"/>
	</g>
</g>
</svg>
