<?xml version="1.0" encoding="utf-8"?>
<!-- Generator: Adobe Illustrator 21.1.0, SVG Export Plug-In . SVG Version: 6.00 Build 0)  -->
<svg version="1.2" baseProfile="tiny" id="Lager_1" xmlns="http://www.w3.org/2000/svg" xmlns:xlink="http://www.w3.org/1999/xlink"
	 x="0px" y="0px" width="566.9" height="47.3" viewBox="0 0 566.9 47.3" xml:space="preserve">

<g id="board">
<path id="boardoutline" fill="#008000" stroke="#FFFFFF" stroke-width="0.5" stroke-linecap="round" stroke-linejoin="round" stroke-miterlimit="10" d="
	M562.9,0H3.9c-2.2,0-4,2-4,4.3v38.9c0,2,1.2,3.6,2.9,4.1h560.1c2.1,0,4-1.9,4-4.3V4.3C566.8,2,565.1,0,562.9,0z M519.6,42.3
	c-2.2,0-3.9-1.7-3.9-3.9s1.7-3.9,3.9-3.9s3.9,1.7,3.9,3.9C523.4,40.5,521.7,42.3,519.6,42.3z M519.6,12.8c-2.2,0-3.9-1.7-3.9-3.9
	s1.7-3.9,3.9-3.9s3.9,1.7,3.9,3.9C523.4,11,521.7,12.8,519.6,12.8z M47.1,42.3c-2.2,0-3.9-1.7-3.9-3.9s1.7-3.9,3.9-3.9
	s3.9,1.7,3.9,3.9C51,40.5,49.3,42.3,47.1,42.3z M47.1,12.8c-2.2,0-3.9-1.7-3.9-3.9S44.9,5,47.1,5S51,6.7,51,8.9
	C51,11,49.3,12.8,47.1,12.8z M283.4,27.5c-2.2,0-3.9-1.7-3.9-3.9s1.7-3.9,3.9-3.9c2.2,0,3.9,1.7,3.9,3.9
	C287.3,25.7,285.5,27.5,283.4,27.5z"/>

</g>
<g id="silkscreen">

		<rect x="59.1" y="1.5" fill="none" stroke="#FFFFFF" stroke-width="0.5" stroke-linecap="round" stroke-linejoin="round" stroke-miterlimit="10" width="23.6" height="8.9"/>

		<rect x="59.1" y="36.9" fill="none" stroke="#FFFFFF" stroke-width="0.5" stroke-linecap="round" stroke-linejoin="round" stroke-miterlimit="10" width="23.6" height="8.9"/>

		<rect x="11.8" y="1.5" fill="none" stroke="#FFFFFF" stroke-width="0.5" stroke-linecap="round" stroke-linejoin="round" stroke-miterlimit="10" width="23.6" height="8.9"/>

		<rect x="11.8" y="37" fill="none" stroke="#FFFFFF" stroke-width="0.5" stroke-linecap="round" stroke-linejoin="round" stroke-miterlimit="10" width="23.6" height="8.9"/>

		<rect x="153.5" y="1.5" fill="none" stroke="#FFFFFF" stroke-width="0.5" stroke-linecap="round" stroke-linejoin="round" stroke-miterlimit="10" width="23.6" height="8.9"/>

		<rect x="153.5" y="36.9" fill="none" stroke="#FFFFFF" stroke-width="0.5" stroke-linecap="round" stroke-linejoin="round" stroke-miterlimit="10" width="23.6" height="8.9"/>

		<rect x="106.3" y="1.5" fill="none" stroke="#FFFFFF" stroke-width="0.5" stroke-linecap="round" stroke-linejoin="round" stroke-miterlimit="10" width="23.6" height="8.9"/>

		<rect x="106.3" y="37" fill="none" stroke="#FFFFFF" stroke-width="0.5" stroke-linecap="round" stroke-linejoin="round" stroke-miterlimit="10" width="23.6" height="8.9"/>

		<rect x="248" y="1.5" fill="none" stroke="#FFFFFF" stroke-width="0.5" stroke-linecap="round" stroke-linejoin="round" stroke-miterlimit="10" width="23.6" height="8.9"/>

		<rect x="248" y="36.9" fill="none" stroke="#FFFFFF" stroke-width="0.5" stroke-linecap="round" stroke-linejoin="round" stroke-miterlimit="10" width="23.6" height="8.9"/>

		<rect x="200.7" y="1.5" fill="none" stroke="#FFFFFF" stroke-width="0.5" stroke-linecap="round" stroke-linejoin="round" stroke-miterlimit="10" width="23.6" height="8.9"/>

		<rect x="200.7" y="37" fill="none" stroke="#FFFFFF" stroke-width="0.5" stroke-linecap="round" stroke-linejoin="round" stroke-miterlimit="10" width="23.6" height="8.9"/>

		<rect x="342.5" y="1.5" fill="none" stroke="#FFFFFF" stroke-width="0.5" stroke-linecap="round" stroke-linejoin="round" stroke-miterlimit="10" width="23.6" height="8.9"/>

		<rect x="342.5" y="36.9" fill="none" stroke="#FFFFFF" stroke-width="0.5" stroke-linecap="round" stroke-linejoin="round" stroke-miterlimit="10" width="23.6" height="8.9"/>

		<rect x="295.2" y="1.5" fill="none" stroke="#FFFFFF" stroke-width="0.5" stroke-linecap="round" stroke-linejoin="round" stroke-miterlimit="10" width="23.6" height="8.9"/>

		<rect x="295.2" y="37" fill="none" stroke="#FFFFFF" stroke-width="0.5" stroke-linecap="round" stroke-linejoin="round" stroke-miterlimit="10" width="23.6" height="8.9"/>

		<rect x="437" y="1.5" fill="none" stroke="#FFFFFF" stroke-width="0.5" stroke-linecap="round" stroke-linejoin="round" stroke-miterlimit="10" width="23.6" height="8.9"/>

		<rect x="437" y="36.9" fill="none" stroke="#FFFFFF" stroke-width="0.5" stroke-linecap="round" stroke-linejoin="round" stroke-miterlimit="10" width="23.6" height="8.9"/>

		<rect x="389.7" y="1.5" fill="none" stroke="#FFFFFF" stroke-width="0.5" stroke-linecap="round" stroke-linejoin="round" stroke-miterlimit="10" width="23.6" height="8.9"/>

		<rect x="389.7" y="37" fill="none" stroke="#FFFFFF" stroke-width="0.5" stroke-linecap="round" stroke-linejoin="round" stroke-miterlimit="10" width="23.6" height="8.9"/>

		<rect x="531.5" y="1.5" fill="none" stroke="#FFFFFF" stroke-width="0.5" stroke-linecap="round" stroke-linejoin="round" stroke-miterlimit="10" width="23.6" height="8.9"/>

		<rect x="531.5" y="36.9" fill="none" stroke="#FFFFFF" stroke-width="0.5" stroke-linecap="round" stroke-linejoin="round" stroke-miterlimit="10" width="23.6" height="8.9"/>

		<rect x="484.2" y="1.5" fill="none" stroke="#FFFFFF" stroke-width="0.5" stroke-linecap="round" stroke-linejoin="round" stroke-miterlimit="10" width="23.6" height="8.9"/>

		<rect x="484.2" y="37" fill="none" stroke="#FFFFFF" stroke-width="0.5" stroke-linecap="round" stroke-linejoin="round" stroke-miterlimit="10" width="23.6" height="8.9"/>
</g>
</svg>
