<?xml version="1.0" encoding="utf-8"?>
<!-- Generator: Adobe Illustrator 21.1.0, SVG Export Plug-In . SVG Version: 6.00 Build 0)  -->
<svg version="1.2" baseProfile="tiny" id="Lager_1" xmlns="http://www.w3.org/2000/svg" xmlns:xlink="http://www.w3.org/1999/xlink"
	 x="0px" y="0px" width="614.2" height="47.3" viewBox="0 0 614.2 47.3" xml:space="preserve">
	 <g id="board">

<path id="boardoutline" fill="#008000" stroke="#FFFFFF" stroke-width="0.5" stroke-linecap="round" stroke-linejoin="round" stroke-miterlimit="10" d="
	M0,0.1v47.2h614.2V0.1H0z M47.2,42.4c-2.2,0-3.9-1.7-3.9-3.9s1.7-3.9,3.9-3.9s3.9,1.7,3.9,3.9C51.1,40.6,49.4,42.4,47.2,42.4z
	 M47.2,12.9c-2.2,0-3.9-1.7-3.9-3.9c0-2.2,1.7-3.9,3.9-3.9s3.9,1.7,3.9,3.9C51.1,11.1,49.4,12.9,47.2,12.9z M307.1,27.7
	c-2.2,0-3.9-1.7-3.9-3.9s1.7-3.9,3.9-3.9c2.2,0,3.9,1.7,3.9,3.9C311,25.9,309.2,27.7,307.1,27.7z M566.9,42.4
	c-2.2,0-3.9-1.7-3.9-3.9s1.7-3.9,3.9-3.9s3.9,1.7,3.9,3.9C570.8,40.6,569.1,42.4,566.9,42.4z M566.9,12.9c-2.2,0-3.9-1.7-3.9-3.9
	c0-2.2,1.7-3.9,3.9-3.9s3.9,1.7,3.9,3.9C570.8,11.1,569.1,12.9,566.9,12.9z"/>
</g>
<g id="silkscreen">
	<g>

			<rect x="59.1" y="1.5" fill="none" stroke="#FFFFFF" stroke-width="0.5" stroke-linecap="round" stroke-linejoin="round" stroke-miterlimit="10" width="23.6" height="8.9"/>
		<rect x="47.3" y="0.1" fill="none" width="47.2" height="47.2"/>

			<rect x="59.1" y="36.9" fill="none" stroke="#FFFFFF" stroke-width="0.5" stroke-linecap="round" stroke-linejoin="round" stroke-miterlimit="10" width="23.6" height="8.9"/>
	</g>
	<g>

			<rect x="11.8" y="1.5" fill="none" stroke="#FFFFFF" stroke-width="0.5" stroke-linecap="round" stroke-linejoin="round" stroke-miterlimit="10" width="23.6" height="8.9"/>
		<rect y="0.1" fill="none" width="47.2" height="47.2"/>

			<rect x="11.8" y="37" fill="none" stroke="#FFFFFF" stroke-width="0.5" stroke-linecap="round" stroke-linejoin="round" stroke-miterlimit="10" width="23.6" height="8.9"/>
	</g>
	<g>

			<rect x="153.5" y="1.5" fill="none" stroke="#FFFFFF" stroke-width="0.5" stroke-linecap="round" stroke-linejoin="round" stroke-miterlimit="10" width="23.6" height="8.9"/>
		<rect x="141.8" y="0.1" fill="none" width="47.2" height="47.2"/>

			<rect x="153.5" y="36.9" fill="none" stroke="#FFFFFF" stroke-width="0.5" stroke-linecap="round" stroke-linejoin="round" stroke-miterlimit="10" width="23.6" height="8.9"/>
	</g>
	<g>

			<rect x="106.3" y="1.5" fill="none" stroke="#FFFFFF" stroke-width="0.5" stroke-linecap="round" stroke-linejoin="round" stroke-miterlimit="10" width="23.6" height="8.9"/>
		<rect x="94.5" y="0.1" fill="none" width="47.2" height="47.2"/>

			<rect x="106.3" y="37" fill="none" stroke="#FFFFFF" stroke-width="0.5" stroke-linecap="round" stroke-linejoin="round" stroke-miterlimit="10" width="23.6" height="8.9"/>
	</g>
	<g>

			<rect x="248" y="1.5" fill="none" stroke="#FFFFFF" stroke-width="0.5" stroke-linecap="round" stroke-linejoin="round" stroke-miterlimit="10" width="23.6" height="8.9"/>
		<rect x="236.2" y="0.1" fill="none" width="47.2" height="47.2"/>

			<rect x="248" y="36.9" fill="none" stroke="#FFFFFF" stroke-width="0.5" stroke-linecap="round" stroke-linejoin="round" stroke-miterlimit="10" width="23.6" height="8.9"/>
	</g>
	<g>

			<rect x="200.7" y="1.5" fill="none" stroke="#FFFFFF" stroke-width="0.5" stroke-linecap="round" stroke-linejoin="round" stroke-miterlimit="10" width="23.6" height="8.9"/>
		<rect x="189" y="0.1" fill="none" width="47.2" height="47.2"/>

			<rect x="200.7" y="37" fill="none" stroke="#FFFFFF" stroke-width="0.5" stroke-linecap="round" stroke-linejoin="round" stroke-miterlimit="10" width="23.6" height="8.9"/>
	</g>
	<g>

			<rect x="342.5" y="1.5" fill="none" stroke="#FFFFFF" stroke-width="0.5" stroke-linecap="round" stroke-linejoin="round" stroke-miterlimit="10" width="23.6" height="8.9"/>
		<rect x="330.7" y="0.1" fill="none" width="47.2" height="47.2"/>

			<rect x="342.5" y="36.9" fill="none" stroke="#FFFFFF" stroke-width="0.5" stroke-linecap="round" stroke-linejoin="round" stroke-miterlimit="10" width="23.6" height="8.9"/>
	</g>
	<g>

			<rect x="295.2" y="1.5" fill="none" stroke="#FFFFFF" stroke-width="0.5" stroke-linecap="round" stroke-linejoin="round" stroke-miterlimit="10" width="23.6" height="8.9"/>
		<rect x="283.5" y="0.1" fill="none" width="47.2" height="47.2"/>

			<rect x="295.2" y="37" fill="none" stroke="#FFFFFF" stroke-width="0.5" stroke-linecap="round" stroke-linejoin="round" stroke-miterlimit="10" width="23.6" height="8.9"/>
	</g>
	<g>

			<rect x="437" y="1.5" fill="none" stroke="#FFFFFF" stroke-width="0.5" stroke-linecap="round" stroke-linejoin="round" stroke-miterlimit="10" width="23.6" height="8.9"/>
		<rect x="425.2" y="0.1" fill="none" width="47.2" height="47.2"/>

			<rect x="437" y="36.9" fill="none" stroke="#FFFFFF" stroke-width="0.5" stroke-linecap="round" stroke-linejoin="round" stroke-miterlimit="10" width="23.6" height="8.9"/>
	</g>
	<g>

			<rect x="389.7" y="1.5" fill="none" stroke="#FFFFFF" stroke-width="0.5" stroke-linecap="round" stroke-linejoin="round" stroke-miterlimit="10" width="23.6" height="8.9"/>
		<rect x="378" y="0.1" fill="none" width="47.2" height="47.2"/>

			<rect x="389.7" y="37" fill="none" stroke="#FFFFFF" stroke-width="0.5" stroke-linecap="round" stroke-linejoin="round" stroke-miterlimit="10" width="23.6" height="8.9"/>
	</g>
	<g>

			<rect x="531.5" y="1.5" fill="none" stroke="#FFFFFF" stroke-width="0.5" stroke-linecap="round" stroke-linejoin="round" stroke-miterlimit="10" width="23.6" height="8.9"/>
		<rect x="519.7" y="0.1" fill="none" width="47.2" height="47.2"/>

			<rect x="531.5" y="36.9" fill="none" stroke="#FFFFFF" stroke-width="0.5" stroke-linecap="round" stroke-linejoin="round" stroke-miterlimit="10" width="23.6" height="8.9"/>
	</g>
	<g>

			<rect x="484.2" y="1.5" fill="none" stroke="#FFFFFF" stroke-width="0.5" stroke-linecap="round" stroke-linejoin="round" stroke-miterlimit="10" width="23.6" height="8.9"/>
		<rect x="472.4" y="0.1" fill="none" width="47.2" height="47.2"/>

			<rect x="484.2" y="37" fill="none" stroke="#FFFFFF" stroke-width="0.5" stroke-linecap="round" stroke-linejoin="round" stroke-miterlimit="10" width="23.6" height="8.9"/>
	</g>
	<g>

			<rect x="578.7" y="1.5" fill="none" stroke="#FFFFFF" stroke-width="0.5" stroke-linecap="round" stroke-linejoin="round" stroke-miterlimit="10" width="23.6" height="8.9"/>
		<rect x="567" y="0.1" fill="none" width="47.2" height="47.2"/>

			<rect x="578.7" y="37" fill="none" stroke="#FFFFFF" stroke-width="0.5" stroke-linecap="round" stroke-linejoin="round" stroke-miterlimit="10" width="23.6" height="8.9"/>
	</g>
</g>
</svg>
