<?xml version="1.0" encoding="UTF-8" standalone="no"?>
<!DOCTYPE svg PUBLIC "-//W3C//DTD SVG 1.1//EN" "http://www.w3.org/Graphics/SVG/1.1/DTD/svg11.dtd">
<svg width="968px" height="982px" version="1.1" xmlns="http://www.w3.org/2000/svg" xmlns:xlink="http://www.w3.org/1999/xlink" xml:space="preserve" xmlns:serif="http://www.serif.com/" style="fill-rule:evenodd;clip-rule:evenodd;stroke-miterlimit:10;">
    <g transform="matrix(0.24,0,0,0.24,-81.5869,-67.4136)">
        <g id="Hål-för-LED" serif:id="Hål för LED" transform="matrix(4.16667,0,0,4.16667,472.441,472.441)">
            <g transform="matrix(1,0,0,1,850.394,841.89)">
                <path d="M-255.118,-319.843C-266.859,-319.843 -276.378,-329.361 -276.378,-341.103C-276.378,-352.844 -266.859,-362.362 -255.118,-362.362C-243.376,-362.362 -233.858,-352.844 -233.858,-341.103C-233.858,-329.361 -243.376,-319.843 -255.118,-319.843Z" style="fill:white;stroke:black;stroke-width:0.84px;"/>
            </g>
            <g transform="matrix(1,0,0,1,850.394,841.89)">
                <path d="M-255.118,-272.599C-266.859,-272.599 -276.378,-282.117 -276.378,-293.859C-276.378,-305.6 -266.859,-315.118 -255.118,-315.118C-243.376,-315.118 -233.858,-305.6 -233.858,-293.859C-233.858,-282.117 -243.376,-272.599 -255.118,-272.599Z" style="fill:white;stroke:black;stroke-width:0.84px;"/>
            </g>
            <g transform="matrix(1,0,0,1,850.394,841.89)">
                <path d="M-255.118,-225.355C-266.859,-225.355 -276.378,-234.873 -276.378,-246.614C-276.378,-258.356 -266.859,-267.874 -255.118,-267.874C-243.376,-267.874 -233.858,-258.356 -233.858,-246.614C-233.858,-234.873 -243.376,-225.355 -255.118,-225.355Z" style="fill:white;stroke:black;stroke-width:0.84px;"/>
            </g>
            <g transform="matrix(1,0,0,1,850.394,841.89)">
                <path d="M-255.118,-178.11C-266.859,-178.11 -276.378,-187.629 -276.378,-199.37C-276.378,-211.112 -266.859,-220.63 -255.118,-220.63C-243.376,-220.63 -233.858,-211.112 -233.858,-199.37C-233.858,-187.629 -243.376,-178.11 -255.118,-178.11Z" style="fill:white;stroke:black;stroke-width:0.84px;"/>
            </g>
            <g transform="matrix(1,0,0,1,850.394,841.89)">
                <path d="M-255.118,-130.866C-266.859,-130.866 -276.378,-140.385 -276.378,-152.126C-276.378,-163.868 -266.859,-173.386 -255.118,-173.386C-243.376,-173.386 -233.858,-163.868 -233.858,-152.126C-233.858,-140.385 -243.376,-130.866 -255.118,-130.866Z" style="fill:white;stroke:black;stroke-width:0.84px;"/>
            </g>
            <g transform="matrix(1,0,0,1,850.394,841.89)">
                <path d="M-255.118,-83.622C-266.859,-83.622 -276.378,-93.141 -276.378,-104.882C-276.378,-116.624 -266.859,-126.142 -255.118,-126.142C-243.376,-126.142 -233.858,-116.624 -233.858,-104.882C-233.858,-93.141 -243.376,-83.622 -255.118,-83.622Z" style="fill:white;stroke:black;stroke-width:0.84px;"/>
            </g>
            <g transform="matrix(1,0,0,1,850.394,841.89)">
                <path d="M-302.362,-650.551C-314.103,-650.551 -323.622,-660.07 -323.622,-671.811C-323.622,-683.553 -314.103,-693.071 -302.362,-693.071C-290.621,-693.071 -281.102,-683.553 -281.102,-671.811C-281.102,-660.07 -290.621,-650.551 -302.362,-650.551Z" style="fill:white;stroke:black;stroke-width:0.84px;"/>
            </g>
            <g transform="matrix(1,0,0,1,850.394,841.89)">
                <path d="M-302.362,-603.307C-314.103,-603.307 -323.622,-612.826 -323.622,-624.567C-323.622,-636.309 -314.103,-645.827 -302.362,-645.827C-290.621,-645.827 -281.102,-636.309 -281.102,-624.567C-281.102,-612.826 -290.621,-603.307 -302.362,-603.307Z" style="fill:white;stroke:black;stroke-width:0.84px;"/>
            </g>
            <g transform="matrix(1,0,0,1,850.394,841.89)">
                <path d="M-302.362,-556.063C-314.103,-556.063 -323.622,-565.582 -323.622,-577.323C-323.622,-589.065 -314.103,-598.583 -302.362,-598.583C-290.621,-598.583 -281.102,-589.065 -281.102,-577.323C-281.102,-565.582 -290.621,-556.063 -302.362,-556.063Z" style="fill:white;stroke:black;stroke-width:0.84px;"/>
            </g>
            <g transform="matrix(1,0,0,1,850.394,841.89)">
                <path d="M-302.362,-508.819C-314.103,-508.819 -323.622,-518.338 -323.622,-530.079C-323.622,-541.821 -314.103,-551.339 -302.362,-551.339C-290.621,-551.339 -281.102,-541.821 -281.102,-530.079C-281.102,-518.338 -290.621,-508.819 -302.362,-508.819Z" style="fill:white;stroke:black;stroke-width:0.84px;"/>
            </g>
            <g transform="matrix(1,0,0,1,850.394,841.89)">
                <path d="M-302.362,-461.575C-314.103,-461.575 -323.622,-471.093 -323.622,-482.835C-323.622,-494.576 -314.103,-504.095 -302.362,-504.095C-290.621,-504.095 -281.102,-494.576 -281.102,-482.835C-281.102,-471.093 -290.621,-461.575 -302.362,-461.575Z" style="fill:white;stroke:black;stroke-width:0.84px;"/>
            </g>
            <g transform="matrix(1,0,0,1,850.394,841.89)">
                <path d="M-302.362,-414.331C-314.103,-414.331 -323.622,-423.849 -323.622,-435.591C-323.622,-447.332 -314.103,-456.851 -302.362,-456.851C-290.621,-456.851 -281.102,-447.332 -281.102,-435.591C-281.102,-423.849 -290.621,-414.331 -302.362,-414.331Z" style="fill:white;stroke:black;stroke-width:0.84px;"/>
            </g>
            <g transform="matrix(1,0,0,1,850.394,841.89)">
                <path d="M-302.362,-367.087C-314.103,-367.087 -323.622,-376.605 -323.622,-388.347C-323.622,-400.088 -314.103,-409.607 -302.362,-409.607C-290.621,-409.607 -281.102,-400.088 -281.102,-388.347C-281.102,-376.605 -290.621,-367.087 -302.362,-367.087Z" style="fill:white;stroke:black;stroke-width:0.84px;"/>
            </g>
            <g transform="matrix(1,0,0,1,850.394,841.89)">
                <path d="M-302.362,-319.843C-314.103,-319.843 -323.622,-329.361 -323.622,-341.103C-323.622,-352.844 -314.103,-362.362 -302.362,-362.362C-290.621,-362.362 -281.102,-352.844 -281.102,-341.103C-281.102,-329.361 -290.621,-319.843 -302.362,-319.843Z" style="fill:white;stroke:black;stroke-width:0.84px;"/>
            </g>
            <g transform="matrix(1,0,0,1,850.394,841.89)">
                <path d="M-302.362,-272.599C-314.103,-272.599 -323.622,-282.117 -323.622,-293.859C-323.622,-305.6 -314.103,-315.118 -302.362,-315.118C-290.621,-315.118 -281.102,-305.6 -281.102,-293.859C-281.102,-282.117 -290.621,-272.599 -302.362,-272.599Z" style="fill:white;stroke:black;stroke-width:0.84px;"/>
            </g>
            <g transform="matrix(1,0,0,1,850.394,841.89)">
                <path d="M-302.362,-225.355C-314.103,-225.355 -323.622,-234.873 -323.622,-246.614C-323.622,-258.356 -314.103,-267.874 -302.362,-267.874C-290.621,-267.874 -281.102,-258.356 -281.102,-246.614C-281.102,-234.873 -290.621,-225.355 -302.362,-225.355Z" style="fill:white;stroke:black;stroke-width:0.84px;"/>
            </g>
            <g transform="matrix(1,0,0,1,850.394,841.89)">
                <path d="M-302.362,-178.11C-314.103,-178.11 -323.622,-187.629 -323.622,-199.37C-323.622,-211.112 -314.103,-220.63 -302.362,-220.63C-290.621,-220.63 -281.102,-211.112 -281.102,-199.37C-281.102,-187.629 -290.621,-178.11 -302.362,-178.11Z" style="fill:white;stroke:black;stroke-width:0.84px;"/>
            </g>
            <g transform="matrix(1,0,0,1,850.394,841.89)">
                <path d="M-302.362,-83.622C-314.103,-83.622 -323.622,-93.141 -323.622,-104.882C-323.622,-116.624 -314.103,-126.142 -302.362,-126.142C-290.621,-126.142 -281.102,-116.624 -281.102,-104.882C-281.102,-93.141 -290.621,-83.622 -302.362,-83.622Z" style="fill:white;stroke:black;stroke-width:0.84px;"/>
            </g>
            <g transform="matrix(1,0,0,1,850.394,841.89)">
                <path d="M-349.606,-650.551C-361.348,-650.551 -370.866,-660.07 -370.866,-671.811C-370.866,-683.553 -361.348,-693.071 -349.606,-693.071C-337.865,-693.071 -328.346,-683.553 -328.346,-671.811C-328.346,-660.07 -337.865,-650.551 -349.606,-650.551Z" style="fill:white;stroke:black;stroke-width:0.84px;"/>
            </g>
            <g transform="matrix(1,0,0,1,850.394,841.89)">
                <path d="M-349.606,-603.307C-361.348,-603.307 -370.866,-612.826 -370.866,-624.567C-370.866,-636.309 -361.348,-645.827 -349.606,-645.827C-337.865,-645.827 -328.346,-636.309 -328.346,-624.567C-328.346,-612.826 -337.865,-603.307 -349.606,-603.307Z" style="fill:white;stroke:black;stroke-width:0.84px;"/>
            </g>
            <g transform="matrix(1,0,0,1,850.394,841.89)">
                <path d="M-349.606,-556.063C-361.348,-556.063 -370.866,-565.582 -370.866,-577.323C-370.866,-589.065 -361.348,-598.583 -349.606,-598.583C-337.865,-598.583 -328.346,-589.065 -328.346,-577.323C-328.346,-565.582 -337.865,-556.063 -349.606,-556.063Z" style="fill:white;stroke:black;stroke-width:0.84px;"/>
            </g>
            <g transform="matrix(1,0,0,1,850.394,841.89)">
                <path d="M-349.606,-508.819C-361.348,-508.819 -370.866,-518.338 -370.866,-530.079C-370.866,-541.821 -361.348,-551.339 -349.606,-551.339C-337.865,-551.339 -328.346,-541.821 -328.346,-530.079C-328.346,-518.338 -337.865,-508.819 -349.606,-508.819Z" style="fill:white;stroke:black;stroke-width:0.84px;"/>
            </g>
            <g transform="matrix(1,0,0,1,850.394,841.89)">
                <path d="M-349.606,-461.575C-361.348,-461.575 -370.866,-471.093 -370.866,-482.835C-370.866,-494.576 -361.348,-504.095 -349.606,-504.095C-337.865,-504.095 -328.346,-494.576 -328.346,-482.835C-328.346,-471.093 -337.865,-461.575 -349.606,-461.575Z" style="fill:white;stroke:black;stroke-width:0.84px;"/>
            </g>
            <g transform="matrix(1,0,0,1,850.394,841.89)">
                <path d="M-349.606,-414.331C-361.348,-414.331 -370.866,-423.849 -370.866,-435.591C-370.866,-447.332 -361.348,-456.851 -349.606,-456.851C-337.865,-456.851 -328.346,-447.332 -328.346,-435.591C-328.346,-423.849 -337.865,-414.331 -349.606,-414.331Z" style="fill:white;stroke:black;stroke-width:0.84px;"/>
            </g>
            <g transform="matrix(1,0,0,1,850.394,841.89)">
                <path d="M-349.606,-367.087C-361.348,-367.087 -370.866,-376.605 -370.866,-388.347C-370.866,-400.088 -361.348,-409.607 -349.606,-409.607C-337.865,-409.607 -328.346,-400.088 -328.346,-388.347C-328.346,-376.605 -337.865,-367.087 -349.606,-367.087Z" style="fill:white;stroke:black;stroke-width:0.84px;"/>
            </g>
            <g transform="matrix(1,0,0,1,850.394,841.89)">
                <path d="M-349.606,-319.843C-361.348,-319.843 -370.866,-329.361 -370.866,-341.103C-370.866,-352.844 -361.348,-362.362 -349.606,-362.362C-337.865,-362.362 -328.346,-352.844 -328.346,-341.103C-328.346,-329.361 -337.865,-319.843 -349.606,-319.843Z" style="fill:white;stroke:black;stroke-width:0.84px;"/>
            </g>
            <g transform="matrix(1,0,0,1,850.394,841.89)">
                <path d="M-349.606,-272.599C-361.348,-272.599 -370.866,-282.117 -370.866,-293.859C-370.866,-305.6 -361.348,-315.118 -349.606,-315.118C-337.865,-315.118 -328.346,-305.6 -328.346,-293.859C-328.346,-282.117 -337.865,-272.599 -349.606,-272.599Z" style="fill:white;stroke:black;stroke-width:0.84px;"/>
            </g>
            <g transform="matrix(1,0,0,1,850.394,841.89)">
                <path d="M-349.606,-225.355C-361.348,-225.355 -370.866,-234.873 -370.866,-246.614C-370.866,-258.356 -361.348,-267.874 -349.606,-267.874C-337.865,-267.874 -328.346,-258.356 -328.346,-246.614C-328.346,-234.873 -337.865,-225.355 -349.606,-225.355Z" style="fill:white;stroke:black;stroke-width:0.84px;"/>
            </g>
            <g transform="matrix(1,0,0,1,850.394,841.89)">
                <path d="M-349.606,-178.11C-361.348,-178.11 -370.866,-187.629 -370.866,-199.37C-370.866,-211.112 -361.348,-220.63 -349.606,-220.63C-337.865,-220.63 -328.346,-211.112 -328.346,-199.37C-328.346,-187.629 -337.865,-178.11 -349.606,-178.11Z" style="fill:white;stroke:black;stroke-width:0.84px;"/>
            </g>
            <g transform="matrix(1,0,0,1,850.394,841.89)">
                <path d="M-349.606,-130.866C-361.348,-130.866 -370.866,-140.385 -370.866,-152.126C-370.866,-163.868 -361.348,-173.386 -349.606,-173.386C-337.865,-173.386 -328.346,-163.868 -328.346,-152.126C-328.346,-140.385 -337.865,-130.866 -349.606,-130.866Z" style="fill:white;stroke:black;stroke-width:0.84px;"/>
            </g>
            <g transform="matrix(1,0,0,1,850.394,841.89)">
                <path d="M-349.606,-83.622C-361.348,-83.622 -370.866,-93.141 -370.866,-104.882C-370.866,-116.624 -361.348,-126.142 -349.606,-126.142C-337.865,-126.142 -328.346,-116.624 -328.346,-104.882C-328.346,-93.141 -337.865,-83.622 -349.606,-83.622Z" style="fill:white;stroke:black;stroke-width:0.84px;"/>
            </g>
            <g transform="matrix(1,0,0,1,850.394,841.89)">
                <path d="M-396.85,-650.551C-408.592,-650.551 -418.11,-660.07 -418.11,-671.811C-418.11,-683.553 -408.592,-693.071 -396.85,-693.071C-385.109,-693.071 -375.59,-683.553 -375.59,-671.811C-375.59,-660.07 -385.109,-650.551 -396.85,-650.551Z" style="fill:white;stroke:black;stroke-width:0.84px;"/>
            </g>
            <g transform="matrix(1,0,0,1,850.394,841.89)">
                <path d="M-396.85,-603.307C-408.592,-603.307 -418.11,-612.826 -418.11,-624.567C-418.11,-636.309 -408.592,-645.827 -396.85,-645.827C-385.109,-645.827 -375.59,-636.309 -375.59,-624.567C-375.59,-612.826 -385.109,-603.307 -396.85,-603.307Z" style="fill:white;stroke:black;stroke-width:0.84px;"/>
            </g>
            <g transform="matrix(1,0,0,1,850.394,841.89)">
                <path d="M-396.85,-556.063C-408.592,-556.063 -418.11,-565.582 -418.11,-577.323C-418.11,-589.065 -408.592,-598.583 -396.85,-598.583C-385.109,-598.583 -375.59,-589.065 -375.59,-577.323C-375.59,-565.582 -385.109,-556.063 -396.85,-556.063Z" style="fill:white;stroke:black;stroke-width:0.84px;"/>
            </g>
            <g transform="matrix(1,0,0,1,850.394,841.89)">
                <path d="M-396.85,-508.819C-408.592,-508.819 -418.11,-518.338 -418.11,-530.079C-418.11,-541.821 -408.592,-551.339 -396.85,-551.339C-385.109,-551.339 -375.59,-541.821 -375.59,-530.079C-375.59,-518.338 -385.109,-508.819 -396.85,-508.819Z" style="fill:white;stroke:black;stroke-width:0.84px;"/>
            </g>
            <g transform="matrix(1,0,0,1,850.394,841.89)">
                <path d="M-396.85,-461.575C-408.592,-461.575 -418.11,-471.093 -418.11,-482.835C-418.11,-494.576 -408.592,-504.095 -396.85,-504.095C-385.109,-504.095 -375.59,-494.576 -375.59,-482.835C-375.59,-471.093 -385.109,-461.575 -396.85,-461.575Z" style="fill:white;stroke:black;stroke-width:0.84px;"/>
            </g>
            <g transform="matrix(1,0,0,1,850.394,841.89)">
                <path d="M-396.85,-414.331C-408.592,-414.331 -418.11,-423.849 -418.11,-435.591C-418.11,-447.332 -408.592,-456.851 -396.85,-456.851C-385.109,-456.851 -375.59,-447.332 -375.59,-435.591C-375.59,-423.849 -385.109,-414.331 -396.85,-414.331Z" style="fill:white;stroke:black;stroke-width:0.84px;"/>
            </g>
            <g transform="matrix(1,0,0,1,850.394,841.89)">
                <path d="M-396.85,-367.087C-408.592,-367.087 -418.11,-376.605 -418.11,-388.347C-418.11,-400.088 -408.592,-409.607 -396.85,-409.607C-385.109,-409.607 -375.59,-400.088 -375.59,-388.347C-375.59,-376.605 -385.109,-367.087 -396.85,-367.087Z" style="fill:white;stroke:black;stroke-width:0.84px;"/>
            </g>
            <g transform="matrix(1,0,0,1,850.394,841.89)">
                <path d="M-396.85,-319.843C-408.592,-319.843 -418.11,-329.361 -418.11,-341.103C-418.11,-352.844 -408.592,-362.362 -396.85,-362.362C-385.109,-362.362 -375.59,-352.844 -375.59,-341.103C-375.59,-329.361 -385.109,-319.843 -396.85,-319.843Z" style="fill:white;stroke:black;stroke-width:0.84px;"/>
            </g>
            <g transform="matrix(1,0,0,1,850.394,841.89)">
                <path d="M-396.85,-272.599C-408.592,-272.599 -418.11,-282.117 -418.11,-293.859C-418.11,-305.6 -408.592,-315.118 -396.85,-315.118C-385.109,-315.118 -375.59,-305.6 -375.59,-293.859C-375.59,-282.117 -385.109,-272.599 -396.85,-272.599Z" style="fill:white;stroke:black;stroke-width:0.84px;"/>
            </g>
            <g transform="matrix(1,0,0,1,850.394,841.89)">
                <path d="M-396.85,-225.355C-408.592,-225.355 -418.11,-234.873 -418.11,-246.614C-418.11,-258.356 -408.592,-267.874 -396.85,-267.874C-385.109,-267.874 -375.59,-258.356 -375.59,-246.614C-375.59,-234.873 -385.109,-225.355 -396.85,-225.355Z" style="fill:white;stroke:black;stroke-width:0.84px;"/>
            </g>
            <g transform="matrix(1,0,0,1,850.394,841.89)">
                <path d="M-396.85,-178.11C-408.592,-178.11 -418.11,-187.629 -418.11,-199.37C-418.11,-211.112 -408.592,-220.63 -396.85,-220.63C-385.109,-220.63 -375.59,-211.112 -375.59,-199.37C-375.59,-187.629 -385.109,-178.11 -396.85,-178.11Z" style="fill:white;stroke:black;stroke-width:0.84px;"/>
            </g>
            <g transform="matrix(1,0,0,1,850.394,841.89)">
                <path d="M-396.85,-130.866C-408.592,-130.866 -418.11,-140.385 -418.11,-152.126C-418.11,-163.868 -408.592,-173.386 -396.85,-173.386C-385.109,-173.386 -375.59,-163.868 -375.59,-152.126C-375.59,-140.385 -385.109,-130.866 -396.85,-130.866Z" style="fill:white;stroke:black;stroke-width:0.84px;"/>
            </g>
            <g transform="matrix(1,0,0,1,850.394,841.89)">
                <path d="M-396.85,-83.622C-408.592,-83.622 -418.11,-93.141 -418.11,-104.882C-418.11,-116.624 -408.592,-126.142 -396.85,-126.142C-385.109,-126.142 -375.59,-116.624 -375.59,-104.882C-375.59,-93.141 -385.109,-83.622 -396.85,-83.622Z" style="fill:white;stroke:black;stroke-width:0.84px;"/>
            </g>
            <g transform="matrix(1,0,0,1,850.394,841.89)">
                <path d="M-444.094,-650.551C-455.836,-650.551 -465.354,-660.07 -465.354,-671.811C-465.354,-683.553 -455.836,-693.071 -444.094,-693.071C-432.352,-693.071 -422.834,-683.553 -422.834,-671.811C-422.834,-660.07 -432.352,-650.551 -444.094,-650.551Z" style="fill:white;stroke:black;stroke-width:0.84px;"/>
            </g>
            <g transform="matrix(1,0,0,1,850.394,841.89)">
                <path d="M-444.094,-603.307C-455.836,-603.307 -465.354,-612.826 -465.354,-624.567C-465.354,-636.309 -455.836,-645.827 -444.094,-645.827C-432.352,-645.827 -422.834,-636.309 -422.834,-624.567C-422.834,-612.826 -432.352,-603.307 -444.094,-603.307Z" style="fill:white;stroke:black;stroke-width:0.84px;"/>
            </g>
            <g transform="matrix(1,0,0,1,850.394,841.89)">
                <path d="M-444.094,-556.063C-455.836,-556.063 -465.354,-565.582 -465.354,-577.323C-465.354,-589.065 -455.836,-598.583 -444.094,-598.583C-432.352,-598.583 -422.834,-589.065 -422.834,-577.323C-422.834,-565.582 -432.352,-556.063 -444.094,-556.063Z" style="fill:white;stroke:black;stroke-width:0.84px;"/>
            </g>
            <g transform="matrix(1,0,0,1,850.394,841.89)">
                <path d="M-444.094,-508.819C-455.836,-508.819 -465.354,-518.338 -465.354,-530.079C-465.354,-541.821 -455.836,-551.339 -444.094,-551.339C-432.352,-551.339 -422.834,-541.821 -422.834,-530.079C-422.834,-518.338 -432.352,-508.819 -444.094,-508.819Z" style="fill:white;stroke:black;stroke-width:0.84px;"/>
            </g>
            <g transform="matrix(1,0,0,1,850.394,841.89)">
                <path d="M-444.094,-461.575C-455.836,-461.575 -465.354,-471.093 -465.354,-482.835C-465.354,-494.576 -455.836,-504.095 -444.094,-504.095C-432.352,-504.095 -422.834,-494.576 -422.834,-482.835C-422.834,-471.093 -432.352,-461.575 -444.094,-461.575Z" style="fill:white;stroke:black;stroke-width:0.84px;"/>
            </g>
            <g transform="matrix(1,0,0,1,850.394,841.89)">
                <path d="M-444.094,-414.331C-455.836,-414.331 -465.354,-423.849 -465.354,-435.591C-465.354,-447.332 -455.836,-456.851 -444.094,-456.851C-432.352,-456.851 -422.834,-447.332 -422.834,-435.591C-422.834,-423.849 -432.352,-414.331 -444.094,-414.331Z" style="fill:white;stroke:black;stroke-width:0.84px;"/>
            </g>
            <g transform="matrix(1,0,0,1,850.394,841.89)">
                <path d="M-444.094,-367.087C-455.836,-367.087 -465.354,-376.605 -465.354,-388.347C-465.354,-400.088 -455.836,-409.607 -444.094,-409.607C-432.352,-409.607 -422.834,-400.088 -422.834,-388.347C-422.834,-376.605 -432.352,-367.087 -444.094,-367.087Z" style="fill:white;stroke:black;stroke-width:0.84px;"/>
            </g>
            <g transform="matrix(1,0,0,1,850.394,841.89)">
                <path d="M-444.094,-319.843C-455.836,-319.843 -465.354,-329.361 -465.354,-341.103C-465.354,-352.844 -455.836,-362.362 -444.094,-362.362C-432.352,-362.362 -422.834,-352.844 -422.834,-341.103C-422.834,-329.361 -432.352,-319.843 -444.094,-319.843Z" style="fill:white;stroke:black;stroke-width:0.84px;"/>
            </g>
            <g transform="matrix(1,0,0,1,850.394,841.89)">
                <path d="M-444.094,-272.599C-455.836,-272.599 -465.354,-282.117 -465.354,-293.859C-465.354,-305.6 -455.836,-315.118 -444.094,-315.118C-432.352,-315.118 -422.834,-305.6 -422.834,-293.859C-422.834,-282.117 -432.352,-272.599 -444.094,-272.599Z" style="fill:white;stroke:black;stroke-width:0.84px;"/>
            </g>
            <g transform="matrix(1,0,0,1,850.394,841.89)">
                <path d="M-444.094,-225.355C-455.836,-225.355 -465.354,-234.873 -465.354,-246.614C-465.354,-258.356 -455.836,-267.874 -444.094,-267.874C-432.352,-267.874 -422.834,-258.356 -422.834,-246.614C-422.834,-234.873 -432.352,-225.355 -444.094,-225.355Z" style="fill:white;stroke:black;stroke-width:0.84px;"/>
            </g>
            <g transform="matrix(1,0,0,1,850.394,841.89)">
                <path d="M-444.094,-178.11C-455.836,-178.11 -465.354,-187.629 -465.354,-199.37C-465.354,-211.112 -455.836,-220.63 -444.094,-220.63C-432.352,-220.63 -422.834,-211.112 -422.834,-199.37C-422.834,-187.629 -432.352,-178.11 -444.094,-178.11Z" style="fill:white;stroke:black;stroke-width:0.84px;"/>
            </g>
            <g transform="matrix(1,0,0,1,850.394,841.89)">
                <path d="M-444.094,-130.866C-455.836,-130.866 -465.354,-140.385 -465.354,-152.126C-465.354,-163.868 -455.836,-173.386 -444.094,-173.386C-432.352,-173.386 -422.834,-163.868 -422.834,-152.126C-422.834,-140.385 -432.352,-130.866 -444.094,-130.866Z" style="fill:white;stroke:black;stroke-width:0.84px;"/>
            </g>
            <g transform="matrix(1,0,0,1,850.394,841.89)">
                <path d="M-444.094,-83.622C-455.836,-83.622 -465.354,-93.141 -465.354,-104.882C-465.354,-116.624 -455.836,-126.142 -444.094,-126.142C-432.352,-126.142 -422.834,-116.624 -422.834,-104.882C-422.834,-93.141 -432.352,-83.622 -444.094,-83.622Z" style="fill:white;stroke:black;stroke-width:0.84px;"/>
            </g>
            <g transform="matrix(1,0,0,1,850.394,841.89)">
                <path d="M-491.338,-650.551C-503.08,-650.551 -512.598,-660.07 -512.598,-671.811C-512.598,-683.553 -503.08,-693.071 -491.338,-693.071C-479.597,-693.071 -470.079,-683.553 -470.079,-671.811C-470.079,-660.07 -479.597,-650.551 -491.338,-650.551Z" style="fill:white;stroke:black;stroke-width:0.84px;"/>
            </g>
            <g transform="matrix(1,0,0,1,850.394,841.89)">
                <path d="M-491.338,-603.307C-503.08,-603.307 -512.598,-612.826 -512.598,-624.567C-512.598,-636.309 -503.08,-645.827 -491.338,-645.827C-479.597,-645.827 -470.079,-636.309 -470.079,-624.567C-470.079,-612.826 -479.597,-603.307 -491.338,-603.307Z" style="fill:white;stroke:black;stroke-width:0.84px;"/>
            </g>
            <g transform="matrix(1,0,0,1,850.394,841.89)">
                <path d="M-491.338,-556.063C-503.08,-556.063 -512.598,-565.582 -512.598,-577.323C-512.598,-589.065 -503.08,-598.583 -491.338,-598.583C-479.597,-598.583 -470.079,-589.065 -470.079,-577.323C-470.079,-565.582 -479.597,-556.063 -491.338,-556.063Z" style="fill:white;stroke:black;stroke-width:0.84px;"/>
            </g>
            <g transform="matrix(1,0,0,1,850.394,841.89)">
                <path d="M-491.338,-508.819C-503.08,-508.819 -512.598,-518.338 -512.598,-530.079C-512.598,-541.821 -503.08,-551.339 -491.338,-551.339C-479.597,-551.339 -470.079,-541.821 -470.079,-530.079C-470.079,-518.338 -479.597,-508.819 -491.338,-508.819Z" style="fill:white;stroke:black;stroke-width:0.84px;"/>
            </g>
            <g transform="matrix(1,0,0,1,850.394,841.89)">
                <path d="M-113.386,-650.551C-125.127,-650.551 -134.645,-660.07 -134.645,-671.811C-134.645,-683.553 -125.127,-693.071 -113.386,-693.071C-101.644,-693.071 -92.126,-683.553 -92.126,-671.811C-92.126,-660.07 -101.644,-650.551 -113.386,-650.551Z" style="fill:white;stroke:black;stroke-width:0.84px;"/>
            </g>
            <g transform="matrix(1,0,0,1,850.394,841.89)">
                <path d="M-113.386,-603.307C-125.127,-603.307 -134.645,-612.826 -134.645,-624.567C-134.645,-636.309 -125.127,-645.827 -113.386,-645.827C-101.644,-645.827 -92.126,-636.309 -92.126,-624.567C-92.126,-612.826 -101.644,-603.307 -113.386,-603.307Z" style="fill:white;stroke:black;stroke-width:0.84px;"/>
            </g>
            <g transform="matrix(1,0,0,1,850.394,841.89)">
                <path d="M-113.386,-556.063C-125.127,-556.063 -134.645,-565.582 -134.645,-577.323C-134.645,-589.065 -125.127,-598.583 -113.386,-598.583C-101.644,-598.583 -92.126,-589.065 -92.126,-577.323C-92.126,-565.582 -101.644,-556.063 -113.386,-556.063Z" style="fill:white;stroke:black;stroke-width:0.84px;"/>
            </g>
            <g transform="matrix(1,0,0,1,850.394,841.89)">
                <path d="M-113.386,-508.819C-125.127,-508.819 -134.645,-518.338 -134.645,-530.079C-134.645,-541.821 -125.127,-551.339 -113.386,-551.339C-101.644,-551.339 -92.126,-541.821 -92.126,-530.079C-92.126,-518.338 -101.644,-508.819 -113.386,-508.819Z" style="fill:white;stroke:black;stroke-width:0.84px;"/>
            </g>
            <g transform="matrix(1,0,0,1,850.394,841.89)">
                <path d="M-113.386,-461.575C-125.127,-461.575 -134.645,-471.093 -134.645,-482.835C-134.645,-494.576 -125.127,-504.095 -113.386,-504.095C-101.644,-504.095 -92.126,-494.576 -92.126,-482.835C-92.126,-471.093 -101.644,-461.575 -113.386,-461.575Z" style="fill:white;stroke:black;stroke-width:0.84px;"/>
            </g>
            <g transform="matrix(1,0,0,1,850.394,841.89)">
                <path d="M-113.386,-414.331C-125.127,-414.331 -134.645,-423.849 -134.645,-435.591C-134.645,-447.332 -125.127,-456.851 -113.386,-456.851C-101.644,-456.851 -92.126,-447.332 -92.126,-435.591C-92.126,-423.849 -101.644,-414.331 -113.386,-414.331Z" style="fill:white;stroke:black;stroke-width:0.84px;"/>
            </g>
            <g transform="matrix(1,0,0,1,850.394,841.89)">
                <path d="M-113.386,-367.087C-125.127,-367.087 -134.645,-376.605 -134.645,-388.347C-134.645,-400.088 -125.127,-409.607 -113.386,-409.607C-101.644,-409.607 -92.126,-400.088 -92.126,-388.347C-92.126,-376.605 -101.644,-367.087 -113.386,-367.087Z" style="fill:white;stroke:black;stroke-width:0.84px;"/>
            </g>
            <g transform="matrix(1,0,0,1,850.394,841.89)">
                <path d="M-113.386,-319.843C-125.127,-319.843 -134.645,-329.361 -134.645,-341.103C-134.645,-352.844 -125.127,-362.362 -113.386,-362.362C-101.644,-362.362 -92.126,-352.844 -92.126,-341.103C-92.126,-329.361 -101.644,-319.843 -113.386,-319.843Z" style="fill:white;stroke:black;stroke-width:0.84px;"/>
            </g>
            <g transform="matrix(1,0,0,1,850.394,841.89)">
                <path d="M-113.386,-272.599C-125.127,-272.599 -134.645,-282.117 -134.645,-293.859C-134.645,-305.6 -125.127,-315.118 -113.386,-315.118C-101.644,-315.118 -92.126,-305.6 -92.126,-293.859C-92.126,-282.117 -101.644,-272.599 -113.386,-272.599Z" style="fill:white;stroke:black;stroke-width:0.84px;"/>
            </g>
            <g transform="matrix(1,0,0,1,850.394,841.89)">
                <path d="M-113.386,-225.355C-125.127,-225.355 -134.645,-234.873 -134.645,-246.614C-134.645,-258.356 -125.127,-267.874 -113.386,-267.874C-101.644,-267.874 -92.126,-258.356 -92.126,-246.614C-92.126,-234.873 -101.644,-225.355 -113.386,-225.355Z" style="fill:white;stroke:black;stroke-width:0.84px;"/>
            </g>
            <g transform="matrix(1,0,0,1,850.394,841.89)">
                <path d="M-113.386,-178.11C-125.127,-178.11 -134.645,-187.629 -134.645,-199.37C-134.645,-211.112 -125.127,-220.63 -113.386,-220.63C-101.644,-220.63 -92.126,-211.112 -92.126,-199.37C-92.126,-187.629 -101.644,-178.11 -113.386,-178.11Z" style="fill:white;stroke:black;stroke-width:0.84px;"/>
            </g>
            <g transform="matrix(1,0,0,1,850.394,841.89)">
                <path d="M-113.386,-130.866C-125.127,-130.866 -134.645,-140.385 -134.645,-152.126C-134.645,-163.868 -125.127,-173.386 -113.386,-173.386C-101.644,-173.386 -92.126,-163.868 -92.126,-152.126C-92.126,-140.385 -101.644,-130.866 -113.386,-130.866Z" style="fill:white;stroke:black;stroke-width:0.84px;"/>
            </g>
            <g transform="matrix(1,0,0,1,850.394,841.89)">
                <path d="M-113.386,-83.622C-125.127,-83.622 -134.645,-93.141 -134.645,-104.882C-134.645,-116.624 -125.127,-126.142 -113.386,-126.142C-101.644,-126.142 -92.126,-116.624 -92.126,-104.882C-92.126,-93.141 -101.644,-83.622 -113.386,-83.622Z" style="fill:white;stroke:black;stroke-width:0.84px;"/>
            </g>
            <g transform="matrix(1,0,0,1,850.394,841.89)">
                <path d="M-160.63,-650.551C-172.371,-650.551 -181.89,-660.07 -181.89,-671.811C-181.89,-683.553 -172.371,-693.071 -160.63,-693.071C-148.888,-693.071 -139.37,-683.553 -139.37,-671.811C-139.37,-660.07 -148.888,-650.551 -160.63,-650.551Z" style="fill:white;stroke:black;stroke-width:0.84px;"/>
            </g>
            <g transform="matrix(1,0,0,1,850.394,841.89)">
                <path d="M-160.63,-603.307C-172.371,-603.307 -181.89,-612.826 -181.89,-624.567C-181.89,-636.309 -172.371,-645.827 -160.63,-645.827C-148.888,-645.827 -139.37,-636.309 -139.37,-624.567C-139.37,-612.826 -148.888,-603.307 -160.63,-603.307Z" style="fill:white;stroke:black;stroke-width:0.84px;"/>
            </g>
            <g transform="matrix(1,0,0,1,850.394,841.89)">
                <path d="M-160.63,-556.063C-172.371,-556.063 -181.89,-565.582 -181.89,-577.323C-181.89,-589.065 -172.371,-598.583 -160.63,-598.583C-148.888,-598.583 -139.37,-589.065 -139.37,-577.323C-139.37,-565.582 -148.888,-556.063 -160.63,-556.063Z" style="fill:white;stroke:black;stroke-width:0.84px;"/>
            </g>
            <g transform="matrix(1,0,0,1,850.394,841.89)">
                <path d="M-160.63,-508.819C-172.371,-508.819 -181.89,-518.338 -181.89,-530.079C-181.89,-541.821 -172.371,-551.339 -160.63,-551.339C-148.888,-551.339 -139.37,-541.821 -139.37,-530.079C-139.37,-518.338 -148.888,-508.819 -160.63,-508.819Z" style="fill:white;stroke:black;stroke-width:0.84px;"/>
            </g>
            <g transform="matrix(1,0,0,1,850.394,841.89)">
                <path d="M-160.63,-461.575C-172.371,-461.575 -181.89,-471.093 -181.89,-482.835C-181.89,-494.576 -172.371,-504.095 -160.63,-504.095C-148.888,-504.095 -139.37,-494.576 -139.37,-482.835C-139.37,-471.093 -148.888,-461.575 -160.63,-461.575Z" style="fill:white;stroke:black;stroke-width:0.84px;"/>
            </g>
            <g transform="matrix(1,0,0,1,850.394,841.89)">
                <path d="M-160.63,-414.331C-172.371,-414.331 -181.89,-423.849 -181.89,-435.591C-181.89,-447.332 -172.371,-456.851 -160.63,-456.851C-148.888,-456.851 -139.37,-447.332 -139.37,-435.591C-139.37,-423.849 -148.888,-414.331 -160.63,-414.331Z" style="fill:white;stroke:black;stroke-width:0.84px;"/>
            </g>
            <g transform="matrix(1,0,0,1,850.394,841.89)">
                <path d="M-160.63,-367.087C-172.371,-367.087 -181.89,-376.605 -181.89,-388.347C-181.89,-400.088 -172.371,-409.607 -160.63,-409.607C-148.888,-409.607 -139.37,-400.088 -139.37,-388.347C-139.37,-376.605 -148.888,-367.087 -160.63,-367.087Z" style="fill:white;stroke:black;stroke-width:0.84px;"/>
            </g>
            <g transform="matrix(1,0,0,1,850.394,841.89)">
                <path d="M-160.63,-319.843C-172.371,-319.843 -181.89,-329.361 -181.89,-341.103C-181.89,-352.844 -172.371,-362.362 -160.63,-362.362C-148.888,-362.362 -139.37,-352.844 -139.37,-341.103C-139.37,-329.361 -148.888,-319.843 -160.63,-319.843Z" style="fill:white;stroke:black;stroke-width:0.84px;"/>
            </g>
            <g transform="matrix(1,0,0,1,850.394,841.89)">
                <path d="M-160.63,-272.599C-172.371,-272.599 -181.89,-282.117 -181.89,-293.859C-181.89,-305.6 -172.371,-315.118 -160.63,-315.118C-148.888,-315.118 -139.37,-305.6 -139.37,-293.859C-139.37,-282.117 -148.888,-272.599 -160.63,-272.599Z" style="fill:white;stroke:black;stroke-width:0.84px;"/>
            </g>
            <g transform="matrix(1,0,0,1,850.394,841.89)">
                <path d="M-160.63,-225.355C-172.371,-225.355 -181.89,-234.873 -181.89,-246.614C-181.89,-258.356 -172.371,-267.874 -160.63,-267.874C-148.888,-267.874 -139.37,-258.356 -139.37,-246.614C-139.37,-234.873 -148.888,-225.355 -160.63,-225.355Z" style="fill:white;stroke:black;stroke-width:0.84px;"/>
            </g>
            <g transform="matrix(1,0,0,1,850.394,841.89)">
                <path d="M-160.63,-178.11C-172.371,-178.11 -181.89,-187.629 -181.89,-199.37C-181.89,-211.112 -172.371,-220.63 -160.63,-220.63C-148.888,-220.63 -139.37,-211.112 -139.37,-199.37C-139.37,-187.629 -148.888,-178.11 -160.63,-178.11Z" style="fill:white;stroke:black;stroke-width:0.84px;"/>
            </g>
            <g transform="matrix(1,0,0,1,850.394,841.89)">
                <path d="M-160.63,-130.866C-172.371,-130.866 -181.89,-140.385 -181.89,-152.126C-181.89,-163.868 -172.371,-173.386 -160.63,-173.386C-148.888,-173.386 -139.37,-163.868 -139.37,-152.126C-139.37,-140.385 -148.888,-130.866 -160.63,-130.866Z" style="fill:white;stroke:black;stroke-width:0.84px;"/>
            </g>
            <g transform="matrix(1,0,0,1,850.394,841.89)">
                <path d="M-160.63,-83.622C-172.371,-83.622 -181.89,-93.141 -181.89,-104.882C-181.89,-116.624 -172.371,-126.142 -160.63,-126.142C-148.888,-126.142 -139.37,-116.624 -139.37,-104.882C-139.37,-93.141 -148.888,-83.622 -160.63,-83.622Z" style="fill:white;stroke:black;stroke-width:0.84px;"/>
            </g>
            <g transform="matrix(1,0,0,1,850.394,841.89)">
                <path d="M-207.874,-650.551C-219.615,-650.551 -229.134,-660.07 -229.134,-671.811C-229.134,-683.553 -219.615,-693.071 -207.874,-693.071C-196.132,-693.071 -186.614,-683.553 -186.614,-671.811C-186.614,-660.07 -196.132,-650.551 -207.874,-650.551Z" style="fill:white;stroke:black;stroke-width:0.84px;"/>
            </g>
            <g transform="matrix(1,0,0,1,850.394,841.89)">
                <path d="M-207.874,-603.307C-219.615,-603.307 -229.134,-612.826 -229.134,-624.567C-229.134,-636.309 -219.615,-645.827 -207.874,-645.827C-196.132,-645.827 -186.614,-636.309 -186.614,-624.567C-186.614,-612.826 -196.132,-603.307 -207.874,-603.307Z" style="fill:white;stroke:black;stroke-width:0.84px;"/>
            </g>
            <g transform="matrix(1,0,0,1,850.394,841.89)">
                <path d="M-207.874,-556.063C-219.615,-556.063 -229.134,-565.582 -229.134,-577.323C-229.134,-589.065 -219.615,-598.583 -207.874,-598.583C-196.132,-598.583 -186.614,-589.065 -186.614,-577.323C-186.614,-565.582 -196.132,-556.063 -207.874,-556.063Z" style="fill:white;stroke:black;stroke-width:0.84px;"/>
            </g>
            <g transform="matrix(1,0,0,1,850.394,841.89)">
                <path d="M-207.874,-508.819C-219.615,-508.819 -229.134,-518.338 -229.134,-530.079C-229.134,-541.821 -219.615,-551.339 -207.874,-551.339C-196.132,-551.339 -186.614,-541.821 -186.614,-530.079C-186.614,-518.338 -196.132,-508.819 -207.874,-508.819Z" style="fill:white;stroke:black;stroke-width:0.84px;"/>
            </g>
            <g transform="matrix(1,0,0,1,850.394,841.89)">
                <path d="M-207.874,-461.575C-219.615,-461.575 -229.134,-471.093 -229.134,-482.835C-229.134,-494.576 -219.615,-504.095 -207.874,-504.095C-196.132,-504.095 -186.614,-494.576 -186.614,-482.835C-186.614,-471.093 -196.132,-461.575 -207.874,-461.575Z" style="fill:white;stroke:black;stroke-width:0.84px;"/>
            </g>
            <g transform="matrix(1,0,0,1,850.394,841.89)">
                <path d="M-302.362,-130.866C-314.103,-130.866 -323.622,-140.385 -323.622,-152.126C-323.622,-163.868 -314.103,-173.386 -302.362,-173.386C-290.621,-173.386 -281.102,-163.868 -281.102,-152.126C-281.102,-140.385 -290.621,-130.866 -302.362,-130.866Z" style="fill:white;stroke:black;stroke-width:0.84px;"/>
            </g>
            <g transform="matrix(1,0,0,1,850.394,841.89)">
                <path d="M-207.874,-414.331C-219.615,-414.331 -229.134,-423.849 -229.134,-435.591C-229.134,-447.332 -219.615,-456.851 -207.874,-456.851C-196.132,-456.851 -186.614,-447.332 -186.614,-435.591C-186.614,-423.849 -196.132,-414.331 -207.874,-414.331Z" style="fill:white;stroke:black;stroke-width:0.84px;"/>
            </g>
            <g transform="matrix(1,0,0,1,850.394,841.89)">
                <path d="M-207.874,-367.087C-219.615,-367.087 -229.134,-376.605 -229.134,-388.347C-229.134,-400.088 -219.615,-409.607 -207.874,-409.607C-196.132,-409.607 -186.614,-400.088 -186.614,-388.347C-186.614,-376.605 -196.132,-367.087 -207.874,-367.087Z" style="fill:white;stroke:black;stroke-width:0.84px;"/>
            </g>
            <g transform="matrix(1,0,0,1,850.394,841.89)">
                <path d="M-207.874,-319.843C-219.615,-319.843 -229.134,-329.361 -229.134,-341.103C-229.134,-352.844 -219.615,-362.362 -207.874,-362.362C-196.132,-362.362 -186.614,-352.844 -186.614,-341.103C-186.614,-329.361 -196.132,-319.843 -207.874,-319.843Z" style="fill:white;stroke:black;stroke-width:0.84px;"/>
            </g>
            <g transform="matrix(1,0,0,1,850.394,841.89)">
                <path d="M-207.874,-272.599C-219.615,-272.599 -229.134,-282.117 -229.134,-293.859C-229.134,-305.6 -219.615,-315.118 -207.874,-315.118C-196.132,-315.118 -186.614,-305.6 -186.614,-293.859C-186.614,-282.117 -196.132,-272.599 -207.874,-272.599Z" style="fill:white;stroke:black;stroke-width:0.84px;"/>
            </g>
            <g transform="matrix(1,0,0,1,850.394,841.89)">
                <path d="M-207.874,-225.355C-219.615,-225.355 -229.134,-234.873 -229.134,-246.614C-229.134,-258.356 -219.615,-267.874 -207.874,-267.874C-196.132,-267.874 -186.614,-258.356 -186.614,-246.614C-186.614,-234.873 -196.132,-225.355 -207.874,-225.355Z" style="fill:white;stroke:black;stroke-width:0.84px;"/>
            </g>
            <g transform="matrix(1,0,0,1,850.394,841.89)">
                <path d="M-207.874,-178.11C-219.615,-178.11 -229.134,-187.629 -229.134,-199.37C-229.134,-211.112 -219.615,-220.63 -207.874,-220.63C-196.132,-220.63 -186.614,-211.112 -186.614,-199.37C-186.614,-187.629 -196.132,-178.11 -207.874,-178.11Z" style="fill:white;stroke:black;stroke-width:0.84px;"/>
            </g>
            <g transform="matrix(1,0,0,1,850.394,841.89)">
                <path d="M-207.874,-130.866C-219.615,-130.866 -229.134,-140.385 -229.134,-152.126C-229.134,-163.868 -219.615,-173.386 -207.874,-173.386C-196.132,-173.386 -186.614,-163.868 -186.614,-152.126C-186.614,-140.385 -196.132,-130.866 -207.874,-130.866Z" style="fill:white;stroke:black;stroke-width:0.84px;"/>
            </g>
            <g transform="matrix(1,0,0,1,850.394,841.89)">
                <path d="M-207.874,-83.622C-219.615,-83.622 -229.134,-93.141 -229.134,-104.882C-229.134,-116.624 -219.615,-126.142 -207.874,-126.142C-196.132,-126.142 -186.614,-116.624 -186.614,-104.882C-186.614,-93.141 -196.132,-83.622 -207.874,-83.622Z" style="fill:white;stroke:black;stroke-width:0.84px;"/>
            </g>
            <g transform="matrix(1,0,0,1,850.394,841.89)">
                <path d="M-255.118,-650.551C-266.859,-650.551 -276.378,-660.07 -276.378,-671.811C-276.378,-683.553 -266.859,-693.071 -255.118,-693.071C-243.376,-693.071 -233.858,-683.553 -233.858,-671.811C-233.858,-660.07 -243.376,-650.551 -255.118,-650.551Z" style="fill:white;stroke:black;stroke-width:0.84px;"/>
            </g>
            <g transform="matrix(1,0,0,1,850.394,841.89)">
                <path d="M-255.118,-603.307C-266.859,-603.307 -276.378,-612.826 -276.378,-624.567C-276.378,-636.309 -266.859,-645.827 -255.118,-645.827C-243.376,-645.827 -233.858,-636.309 -233.858,-624.567C-233.858,-612.826 -243.376,-603.307 -255.118,-603.307Z" style="fill:white;stroke:black;stroke-width:0.84px;"/>
            </g>
            <g transform="matrix(1,0,0,1,850.394,841.89)">
                <path d="M-255.118,-556.063C-266.859,-556.063 -276.378,-565.582 -276.378,-577.323C-276.378,-589.065 -266.859,-598.583 -255.118,-598.583C-243.376,-598.583 -233.858,-589.065 -233.858,-577.323C-233.858,-565.582 -243.376,-556.063 -255.118,-556.063Z" style="fill:white;stroke:black;stroke-width:0.84px;"/>
            </g>
            <g transform="matrix(1,0,0,1,850.394,841.89)">
                <path d="M-255.118,-508.819C-266.859,-508.819 -276.378,-518.338 -276.378,-530.079C-276.378,-541.821 -266.859,-551.339 -255.118,-551.339C-243.376,-551.339 -233.858,-541.821 -233.858,-530.079C-233.858,-518.338 -243.376,-508.819 -255.118,-508.819Z" style="fill:white;stroke:black;stroke-width:0.84px;"/>
            </g>
            <g transform="matrix(1,0,0,1,850.394,841.89)">
                <path d="M-255.118,-461.575C-266.859,-461.575 -276.378,-471.093 -276.378,-482.835C-276.378,-494.576 -266.859,-504.095 -255.118,-504.095C-243.376,-504.095 -233.858,-494.576 -233.858,-482.835C-233.858,-471.093 -243.376,-461.575 -255.118,-461.575Z" style="fill:white;stroke:black;stroke-width:0.84px;"/>
            </g>
            <g transform="matrix(1,0,0,1,850.394,841.89)">
                <path d="M-255.118,-414.331C-266.859,-414.331 -276.378,-423.849 -276.378,-435.591C-276.378,-447.332 -266.859,-456.851 -255.118,-456.851C-243.376,-456.851 -233.858,-447.332 -233.858,-435.591C-233.858,-423.849 -243.376,-414.331 -255.118,-414.331Z" style="fill:white;stroke:black;stroke-width:0.84px;"/>
            </g>
            <g transform="matrix(1,0,0,1,850.394,841.89)">
                <path d="M-255.118,-367.087C-266.859,-367.087 -276.378,-376.605 -276.378,-388.347C-276.378,-400.088 -266.859,-409.607 -255.118,-409.607C-243.376,-409.607 -233.858,-400.088 -233.858,-388.347C-233.858,-376.605 -243.376,-367.087 -255.118,-367.087Z" style="fill:white;stroke:black;stroke-width:0.84px;"/>
            </g>
            <g transform="matrix(1,0,0,1,850.394,841.89)">
                <path d="M-491.338,-461.575C-503.08,-461.575 -512.598,-471.093 -512.598,-482.835C-512.598,-494.576 -503.08,-504.095 -491.338,-504.095C-479.597,-504.095 -470.079,-494.576 -470.079,-482.835C-470.079,-471.093 -479.597,-461.575 -491.338,-461.575Z" style="fill:white;stroke:black;stroke-width:0.84px;"/>
            </g>
            <g transform="matrix(1,0,0,1,850.394,841.89)">
                <path d="M-491.338,-414.331C-503.08,-414.331 -512.598,-423.849 -512.598,-435.591C-512.598,-447.332 -503.08,-456.851 -491.338,-456.851C-479.597,-456.851 -470.079,-447.332 -470.079,-435.591C-470.079,-423.849 -479.597,-414.331 -491.338,-414.331Z" style="fill:white;stroke:black;stroke-width:0.84px;"/>
            </g>
            <g transform="matrix(1,0,0,1,850.394,841.89)">
                <path d="M-491.338,-367.087C-503.08,-367.087 -512.598,-376.605 -512.598,-388.347C-512.598,-400.088 -503.08,-409.607 -491.338,-409.607C-479.597,-409.607 -470.079,-400.088 -470.079,-388.347C-470.079,-376.605 -479.597,-367.087 -491.338,-367.087Z" style="fill:white;stroke:black;stroke-width:0.84px;"/>
            </g>
            <g transform="matrix(1,0,0,1,850.394,841.89)">
                <path d="M-491.338,-319.843C-503.08,-319.843 -512.598,-329.361 -512.598,-341.103C-512.598,-352.844 -503.08,-362.362 -491.338,-362.362C-479.597,-362.362 -470.079,-352.844 -470.079,-341.103C-470.079,-329.361 -479.597,-319.843 -491.338,-319.843Z" style="fill:white;stroke:black;stroke-width:0.84px;"/>
            </g>
            <g transform="matrix(1,0,0,1,850.394,841.89)">
                <path d="M-491.338,-272.599C-503.08,-272.599 -512.598,-282.117 -512.598,-293.859C-512.598,-305.6 -503.08,-315.118 -491.338,-315.118C-479.597,-315.118 -470.079,-305.6 -470.079,-293.859C-470.079,-282.117 -479.597,-272.599 -491.338,-272.599Z" style="fill:white;stroke:black;stroke-width:0.84px;"/>
            </g>
            <g transform="matrix(1,0,0,1,850.394,841.89)">
                <path d="M-491.338,-225.355C-503.08,-225.355 -512.598,-234.873 -512.598,-246.614C-512.598,-258.356 -503.08,-267.874 -491.338,-267.874C-479.597,-267.874 -470.079,-258.356 -470.079,-246.614C-470.079,-234.873 -479.597,-225.355 -491.338,-225.355Z" style="fill:white;stroke:black;stroke-width:0.84px;"/>
            </g>
            <g transform="matrix(1,0,0,1,850.394,841.89)">
                <path d="M-491.338,-178.11C-503.08,-178.11 -512.598,-187.629 -512.598,-199.37C-512.598,-211.112 -503.08,-220.63 -491.338,-220.63C-479.597,-220.63 -470.079,-211.112 -470.079,-199.37C-470.079,-187.629 -479.597,-178.11 -491.338,-178.11Z" style="fill:white;stroke:black;stroke-width:0.84px;"/>
            </g>
            <g transform="matrix(1,0,0,1,850.394,841.89)">
                <path d="M-491.338,-130.866C-503.08,-130.866 -512.598,-140.385 -512.598,-152.126C-512.598,-163.868 -503.08,-173.386 -491.338,-173.386C-479.597,-173.386 -470.079,-163.868 -470.079,-152.126C-470.079,-140.385 -479.597,-130.866 -491.338,-130.866Z" style="fill:white;stroke:black;stroke-width:0.84px;"/>
            </g>
            <g transform="matrix(1,0,0,1,850.394,841.89)">
                <path d="M-491.338,-83.622C-503.08,-83.622 -512.598,-93.141 -512.598,-104.882C-512.598,-116.624 -503.08,-126.142 -491.338,-126.142C-479.597,-126.142 -470.079,-116.624 -470.079,-104.882C-470.079,-93.141 -479.597,-83.622 -491.338,-83.622Z" style="fill:white;stroke:black;stroke-width:0.84px;"/>
            </g>
            <g transform="matrix(1,0,0,1,850.394,841.89)">
                <path d="M-538.582,-650.551C-550.324,-650.551 -559.842,-660.07 -559.842,-671.811C-559.842,-683.553 -550.324,-693.071 -538.582,-693.071C-526.841,-693.071 -517.323,-683.553 -517.323,-671.811C-517.323,-660.07 -526.841,-650.551 -538.582,-650.551Z" style="fill:white;stroke:black;stroke-width:0.84px;"/>
            </g>
            <g transform="matrix(1,0,0,1,850.394,841.89)">
                <path d="M-538.582,-603.307C-550.324,-603.307 -559.842,-612.826 -559.842,-624.567C-559.842,-636.309 -550.324,-645.827 -538.582,-645.827C-526.841,-645.827 -517.323,-636.309 -517.323,-624.567C-517.323,-612.826 -526.841,-603.307 -538.582,-603.307Z" style="fill:white;stroke:black;stroke-width:0.84px;"/>
            </g>
            <g transform="matrix(1,0,0,1,850.394,841.89)">
                <path d="M-538.582,-556.063C-550.324,-556.063 -559.842,-565.582 -559.842,-577.323C-559.842,-589.065 -550.324,-598.583 -538.582,-598.583C-526.841,-598.583 -517.323,-589.065 -517.323,-577.323C-517.323,-565.582 -526.841,-556.063 -538.582,-556.063Z" style="fill:white;stroke:black;stroke-width:0.84px;"/>
            </g>
            <g transform="matrix(1,0,0,1,850.394,841.89)">
                <path d="M-538.582,-508.819C-550.324,-508.819 -559.842,-518.338 -559.842,-530.079C-559.842,-541.821 -550.324,-551.339 -538.582,-551.339C-526.841,-551.339 -517.323,-541.821 -517.323,-530.079C-517.323,-518.338 -526.841,-508.819 -538.582,-508.819Z" style="fill:white;stroke:black;stroke-width:0.84px;"/>
            </g>
            <g transform="matrix(1,0,0,1,850.394,841.89)">
                <path d="M-538.582,-461.575C-550.324,-461.575 -559.842,-471.093 -559.842,-482.835C-559.842,-494.576 -550.324,-504.095 -538.582,-504.095C-526.841,-504.095 -517.323,-494.576 -517.323,-482.835C-517.323,-471.093 -526.841,-461.575 -538.582,-461.575Z" style="fill:white;stroke:black;stroke-width:0.84px;"/>
            </g>
            <g transform="matrix(1,0,0,1,850.394,841.89)">
                <path d="M-538.582,-414.331C-550.324,-414.331 -559.842,-423.849 -559.842,-435.591C-559.842,-447.332 -550.324,-456.851 -538.582,-456.851C-526.841,-456.851 -517.323,-447.332 -517.323,-435.591C-517.323,-423.849 -526.841,-414.331 -538.582,-414.331Z" style="fill:white;stroke:black;stroke-width:0.84px;"/>
            </g>
            <g transform="matrix(1,0,0,1,850.394,841.89)">
                <path d="M-538.582,-367.087C-550.324,-367.087 -559.842,-376.605 -559.842,-388.347C-559.842,-400.088 -550.324,-409.607 -538.582,-409.607C-526.841,-409.607 -517.323,-400.088 -517.323,-388.347C-517.323,-376.605 -526.841,-367.087 -538.582,-367.087Z" style="fill:white;stroke:black;stroke-width:0.84px;"/>
            </g>
            <g transform="matrix(1,0,0,1,850.394,841.89)">
                <path d="M-538.582,-319.843C-550.324,-319.843 -559.842,-329.361 -559.842,-341.103C-559.842,-352.844 -550.324,-362.362 -538.582,-362.362C-526.841,-362.362 -517.323,-352.844 -517.323,-341.103C-517.323,-329.361 -526.841,-319.843 -538.582,-319.843Z" style="fill:white;stroke:black;stroke-width:0.84px;"/>
            </g>
            <g transform="matrix(1,0,0,1,850.394,841.89)">
                <path d="M-538.582,-272.599C-550.324,-272.599 -559.842,-282.117 -559.842,-293.859C-559.842,-305.6 -550.324,-315.118 -538.582,-315.118C-526.841,-315.118 -517.323,-305.6 -517.323,-293.859C-517.323,-282.117 -526.841,-272.599 -538.582,-272.599Z" style="fill:white;stroke:black;stroke-width:0.84px;"/>
            </g>
            <g transform="matrix(1,0,0,1,850.394,841.89)">
                <path d="M-538.582,-225.355C-550.324,-225.355 -559.842,-234.873 -559.842,-246.614C-559.842,-258.356 -550.324,-267.874 -538.582,-267.874C-526.841,-267.874 -517.323,-258.356 -517.323,-246.614C-517.323,-234.873 -526.841,-225.355 -538.582,-225.355Z" style="fill:white;stroke:black;stroke-width:0.84px;"/>
            </g>
            <g transform="matrix(1,0,0,1,850.394,841.89)">
                <path d="M-538.582,-178.11C-550.324,-178.11 -559.842,-187.629 -559.842,-199.37C-559.842,-211.112 -550.324,-220.63 -538.582,-220.63C-526.841,-220.63 -517.323,-211.112 -517.323,-199.37C-517.323,-187.629 -526.841,-178.11 -538.582,-178.11Z" style="fill:white;stroke:black;stroke-width:0.84px;"/>
            </g>
            <g transform="matrix(1,0,0,1,850.394,841.89)">
                <path d="M-538.582,-130.866C-550.324,-130.866 -559.842,-140.385 -559.842,-152.126C-559.842,-163.868 -550.324,-173.386 -538.582,-173.386C-526.841,-173.386 -517.323,-163.868 -517.323,-152.126C-517.323,-140.385 -526.841,-130.866 -538.582,-130.866Z" style="fill:white;stroke:black;stroke-width:0.84px;"/>
            </g>
            <g transform="matrix(1,0,0,1,850.394,841.89)">
                <path d="M-538.582,-83.622C-550.324,-83.622 -559.842,-93.141 -559.842,-104.882C-559.842,-116.624 -550.324,-126.142 -538.582,-126.142C-526.841,-126.142 -517.323,-116.624 -517.323,-104.882C-517.323,-93.141 -526.841,-83.622 -538.582,-83.622Z" style="fill:white;stroke:black;stroke-width:0.84px;"/>
            </g>
            <g transform="matrix(1,0,0,1,850.394,841.89)">
                <path d="M-585.827,-650.551C-597.568,-650.551 -607.086,-660.07 -607.086,-671.811C-607.086,-683.553 -597.568,-693.071 -585.827,-693.071C-574.085,-693.071 -564.567,-683.553 -564.567,-671.811C-564.567,-660.07 -574.085,-650.551 -585.827,-650.551Z" style="fill:white;stroke:black;stroke-width:0.84px;"/>
            </g>
            <g transform="matrix(1,0,0,1,850.394,841.89)">
                <path d="M-585.827,-603.307C-597.568,-603.307 -607.086,-612.826 -607.086,-624.567C-607.086,-636.309 -597.568,-645.827 -585.827,-645.827C-574.085,-645.827 -564.567,-636.309 -564.567,-624.567C-564.567,-612.826 -574.085,-603.307 -585.827,-603.307Z" style="fill:white;stroke:black;stroke-width:0.84px;"/>
            </g>
            <g transform="matrix(1,0,0,1,850.394,841.89)">
                <path d="M-585.827,-556.063C-597.568,-556.063 -607.086,-565.582 -607.086,-577.323C-607.086,-589.065 -597.568,-598.583 -585.827,-598.583C-574.085,-598.583 -564.567,-589.065 -564.567,-577.323C-564.567,-565.582 -574.085,-556.063 -585.827,-556.063Z" style="fill:white;stroke:black;stroke-width:0.84px;"/>
            </g>
            <g transform="matrix(1,0,0,1,850.394,841.89)">
                <path d="M-585.827,-508.819C-597.568,-508.819 -607.086,-518.338 -607.086,-530.079C-607.086,-541.821 -597.568,-551.339 -585.827,-551.339C-574.085,-551.339 -564.567,-541.821 -564.567,-530.079C-564.567,-518.338 -574.085,-508.819 -585.827,-508.819Z" style="fill:white;stroke:black;stroke-width:0.84px;"/>
            </g>
            <g transform="matrix(1,0,0,1,850.394,841.89)">
                <path d="M-585.827,-461.575C-597.568,-461.575 -607.086,-471.093 -607.086,-482.835C-607.086,-494.576 -597.568,-504.095 -585.827,-504.095C-574.085,-504.095 -564.567,-494.576 -564.567,-482.835C-564.567,-471.093 -574.085,-461.575 -585.827,-461.575Z" style="fill:white;stroke:black;stroke-width:0.84px;"/>
            </g>
            <g transform="matrix(1,0,0,1,850.394,841.89)">
                <path d="M-585.827,-414.331C-597.568,-414.331 -607.086,-423.849 -607.086,-435.591C-607.086,-447.332 -597.568,-456.851 -585.827,-456.851C-574.085,-456.851 -564.567,-447.332 -564.567,-435.591C-564.567,-423.849 -574.085,-414.331 -585.827,-414.331Z" style="fill:white;stroke:black;stroke-width:0.84px;"/>
            </g>
            <g transform="matrix(1,0,0,1,850.394,841.89)">
                <path d="M-585.827,-367.087C-597.568,-367.087 -607.086,-376.605 -607.086,-388.347C-607.086,-400.088 -597.568,-409.607 -585.827,-409.607C-574.085,-409.607 -564.567,-400.088 -564.567,-388.347C-564.567,-376.605 -574.085,-367.087 -585.827,-367.087Z" style="fill:white;stroke:black;stroke-width:0.84px;"/>
            </g>
            <g transform="matrix(1,0,0,1,850.394,841.89)">
                <path d="M-585.827,-319.843C-597.568,-319.843 -607.086,-329.361 -607.086,-341.103C-607.086,-352.844 -597.568,-362.362 -585.827,-362.362C-574.085,-362.362 -564.567,-352.844 -564.567,-341.103C-564.567,-329.361 -574.085,-319.843 -585.827,-319.843Z" style="fill:white;stroke:black;stroke-width:0.84px;"/>
            </g>
            <g transform="matrix(1,0,0,1,850.394,841.89)">
                <path d="M-585.827,-272.599C-597.568,-272.599 -607.086,-282.117 -607.086,-293.859C-607.086,-305.6 -597.568,-315.118 -585.827,-315.118C-574.085,-315.118 -564.567,-305.6 -564.567,-293.859C-564.567,-282.117 -574.085,-272.599 -585.827,-272.599Z" style="fill:white;stroke:black;stroke-width:0.84px;"/>
            </g>
            <g transform="matrix(1,0,0,1,850.394,841.89)">
                <path d="M-585.827,-225.355C-597.568,-225.355 -607.086,-234.873 -607.086,-246.614C-607.086,-258.356 -597.568,-267.874 -585.827,-267.874C-574.085,-267.874 -564.567,-258.356 -564.567,-246.614C-564.567,-234.873 -574.085,-225.355 -585.827,-225.355Z" style="fill:white;stroke:black;stroke-width:0.84px;"/>
            </g>
            <g transform="matrix(1,0,0,1,850.394,841.89)">
                <path d="M-585.827,-178.11C-597.568,-178.11 -607.086,-187.629 -607.086,-199.37C-607.086,-211.112 -597.568,-220.63 -585.827,-220.63C-574.085,-220.63 -564.567,-211.112 -564.567,-199.37C-564.567,-187.629 -574.085,-178.11 -585.827,-178.11Z" style="fill:white;stroke:black;stroke-width:0.84px;"/>
            </g>
            <g transform="matrix(1,0,0,1,850.394,841.89)">
                <path d="M-585.827,-130.866C-597.568,-130.866 -607.086,-140.385 -607.086,-152.126C-607.086,-163.868 -597.568,-173.386 -585.827,-173.386C-574.085,-173.386 -564.567,-163.868 -564.567,-152.126C-564.567,-140.385 -574.085,-130.866 -585.827,-130.866Z" style="fill:white;stroke:black;stroke-width:0.84px;"/>
            </g>
            <g transform="matrix(1,0,0,1,850.394,841.89)">
                <path d="M-585.827,-83.622C-597.568,-83.622 -607.086,-93.141 -607.086,-104.882C-607.086,-116.624 -597.568,-126.142 -585.827,-126.142C-574.085,-126.142 -564.567,-116.624 -564.567,-104.882C-564.567,-93.141 -574.085,-83.622 -585.827,-83.622Z" style="fill:white;stroke:black;stroke-width:0.84px;"/>
            </g>
            <g transform="matrix(1,0,0,1,850.394,841.89)">
                <path d="M-633.071,-650.551C-644.812,-650.551 -654.331,-660.07 -654.331,-671.811C-654.331,-683.553 -644.812,-693.071 -633.071,-693.071C-621.329,-693.071 -611.811,-683.553 -611.811,-671.811C-611.811,-660.07 -621.329,-650.551 -633.071,-650.551Z" style="fill:white;stroke:black;stroke-width:0.84px;"/>
            </g>
            <g transform="matrix(1,0,0,1,850.394,841.89)">
                <path d="M-633.071,-603.307C-644.812,-603.307 -654.331,-612.826 -654.331,-624.567C-654.331,-636.309 -644.812,-645.827 -633.071,-645.827C-621.329,-645.827 -611.811,-636.309 -611.811,-624.567C-611.811,-612.826 -621.329,-603.307 -633.071,-603.307Z" style="fill:white;stroke:black;stroke-width:0.84px;"/>
            </g>
            <g transform="matrix(1,0,0,1,850.394,841.89)">
                <path d="M-633.071,-556.063C-644.812,-556.063 -654.331,-565.582 -654.331,-577.323C-654.331,-589.065 -644.812,-598.583 -633.071,-598.583C-621.329,-598.583 -611.811,-589.065 -611.811,-577.323C-611.811,-565.582 -621.329,-556.063 -633.071,-556.063Z" style="fill:white;stroke:black;stroke-width:0.84px;"/>
            </g>
            <g transform="matrix(1,0,0,1,850.394,841.89)">
                <path d="M-633.071,-508.819C-644.812,-508.819 -654.331,-518.338 -654.331,-530.079C-654.331,-541.821 -644.812,-551.339 -633.071,-551.339C-621.329,-551.339 -611.811,-541.821 -611.811,-530.079C-611.811,-518.338 -621.329,-508.819 -633.071,-508.819Z" style="fill:white;stroke:black;stroke-width:0.84px;"/>
            </g>
            <g transform="matrix(1,0,0,1,850.394,841.89)">
                <path d="M-633.071,-461.575C-644.812,-461.575 -654.331,-471.093 -654.331,-482.835C-654.331,-494.576 -644.812,-504.095 -633.071,-504.095C-621.329,-504.095 -611.811,-494.576 -611.811,-482.835C-611.811,-471.093 -621.329,-461.575 -633.071,-461.575Z" style="fill:white;stroke:black;stroke-width:0.84px;"/>
            </g>
            <g transform="matrix(1,0,0,1,850.394,841.89)">
                <path d="M-633.071,-414.331C-644.812,-414.331 -654.331,-423.849 -654.331,-435.591C-654.331,-447.332 -644.812,-456.851 -633.071,-456.851C-621.329,-456.851 -611.811,-447.332 -611.811,-435.591C-611.811,-423.849 -621.329,-414.331 -633.071,-414.331Z" style="fill:white;stroke:black;stroke-width:0.84px;"/>
            </g>
            <g transform="matrix(1,0,0,1,850.394,841.89)">
                <path d="M-633.071,-367.087C-644.812,-367.087 -654.331,-376.605 -654.331,-388.347C-654.331,-400.088 -644.812,-409.607 -633.071,-409.607C-621.329,-409.607 -611.811,-400.088 -611.811,-388.347C-611.811,-376.605 -621.329,-367.087 -633.071,-367.087Z" style="fill:white;stroke:black;stroke-width:0.84px;"/>
            </g>
            <g transform="matrix(1,0,0,1,850.394,841.89)">
                <path d="M-633.071,-319.843C-644.812,-319.843 -654.331,-329.361 -654.331,-341.103C-654.331,-352.844 -644.812,-362.362 -633.071,-362.362C-621.329,-362.362 -611.811,-352.844 -611.811,-341.103C-611.811,-329.361 -621.329,-319.843 -633.071,-319.843Z" style="fill:white;stroke:black;stroke-width:0.84px;"/>
            </g>
            <g transform="matrix(1,0,0,1,850.394,841.89)">
                <path d="M-633.071,-272.599C-644.812,-272.599 -654.331,-282.117 -654.331,-293.859C-654.331,-305.6 -644.812,-315.118 -633.071,-315.118C-621.329,-315.118 -611.811,-305.6 -611.811,-293.859C-611.811,-282.117 -621.329,-272.599 -633.071,-272.599Z" style="fill:white;stroke:black;stroke-width:0.84px;"/>
            </g>
            <g transform="matrix(1,0,0,1,850.394,841.89)">
                <path d="M-633.071,-225.355C-644.812,-225.355 -654.331,-234.873 -654.331,-246.614C-654.331,-258.356 -644.812,-267.874 -633.071,-267.874C-621.329,-267.874 -611.811,-258.356 -611.811,-246.614C-611.811,-234.873 -621.329,-225.355 -633.071,-225.355Z" style="fill:white;stroke:black;stroke-width:0.84px;"/>
            </g>
            <g transform="matrix(1,0,0,1,850.394,841.89)">
                <path d="M-633.071,-178.11C-644.812,-178.11 -654.331,-187.629 -654.331,-199.37C-654.331,-211.112 -644.812,-220.63 -633.071,-220.63C-621.329,-220.63 -611.811,-211.112 -611.811,-199.37C-611.811,-187.629 -621.329,-178.11 -633.071,-178.11Z" style="fill:white;stroke:black;stroke-width:0.84px;"/>
            </g>
            <g transform="matrix(1,0,0,1,850.394,841.89)">
                <path d="M-633.071,-130.866C-644.812,-130.866 -654.331,-140.385 -654.331,-152.126C-654.331,-163.868 -644.812,-173.386 -633.071,-173.386C-621.329,-173.386 -611.811,-163.868 -611.811,-152.126C-611.811,-140.385 -621.329,-130.866 -633.071,-130.866Z" style="fill:white;stroke:black;stroke-width:0.84px;"/>
            </g>
            <g transform="matrix(1,0,0,1,850.394,841.89)">
                <path d="M-633.071,-83.622C-644.812,-83.622 -654.331,-93.141 -654.331,-104.882C-654.331,-116.624 -644.812,-126.142 -633.071,-126.142C-621.329,-126.142 -611.811,-116.624 -611.811,-104.882C-611.811,-93.141 -621.329,-83.622 -633.071,-83.622Z" style="fill:white;stroke:black;stroke-width:0.84px;"/>
            </g>
            <g transform="matrix(1,0,0,1,850.394,841.89)">
                <path d="M-680.315,-650.551C-692.056,-650.551 -701.575,-660.07 -701.575,-671.811C-701.575,-683.553 -692.056,-693.071 -680.315,-693.071C-668.573,-693.071 -659.055,-683.553 -659.055,-671.811C-659.055,-660.07 -668.573,-650.551 -680.315,-650.551Z" style="fill:white;stroke:black;stroke-width:0.84px;"/>
            </g>
            <g transform="matrix(1,0,0,1,850.394,841.89)">
                <path d="M-680.315,-603.307C-692.056,-603.307 -701.575,-612.826 -701.575,-624.567C-701.575,-636.309 -692.056,-645.827 -680.315,-645.827C-668.573,-645.827 -659.055,-636.309 -659.055,-624.567C-659.055,-612.826 -668.573,-603.307 -680.315,-603.307Z" style="fill:white;stroke:black;stroke-width:0.84px;"/>
            </g>
            <g transform="matrix(1,0,0,1,850.394,841.89)">
                <path d="M-680.315,-556.063C-692.056,-556.063 -701.575,-565.582 -701.575,-577.323C-701.575,-589.065 -692.056,-598.583 -680.315,-598.583C-668.573,-598.583 -659.055,-589.065 -659.055,-577.323C-659.055,-565.582 -668.573,-556.063 -680.315,-556.063Z" style="fill:white;stroke:black;stroke-width:0.84px;"/>
            </g>
            <g transform="matrix(1,0,0,1,850.394,841.89)">
                <path d="M-680.315,-508.819C-692.056,-508.819 -701.575,-518.338 -701.575,-530.079C-701.575,-541.821 -692.056,-551.339 -680.315,-551.339C-668.573,-551.339 -659.055,-541.821 -659.055,-530.079C-659.055,-518.338 -668.573,-508.819 -680.315,-508.819Z" style="fill:white;stroke:black;stroke-width:0.84px;"/>
            </g>
            <g transform="matrix(1,0,0,1,850.394,841.89)">
                <path d="M-680.315,-461.575C-692.056,-461.575 -701.575,-471.093 -701.575,-482.835C-701.575,-494.576 -692.056,-504.095 -680.315,-504.095C-668.573,-504.095 -659.055,-494.576 -659.055,-482.835C-659.055,-471.093 -668.573,-461.575 -680.315,-461.575Z" style="fill:white;stroke:black;stroke-width:0.84px;"/>
            </g>
            <g transform="matrix(1,0,0,1,850.394,841.89)">
                <path d="M-680.315,-414.331C-692.056,-414.331 -701.575,-423.849 -701.575,-435.591C-701.575,-447.332 -692.056,-456.851 -680.315,-456.851C-668.573,-456.851 -659.055,-447.332 -659.055,-435.591C-659.055,-423.849 -668.573,-414.331 -680.315,-414.331Z" style="fill:white;stroke:black;stroke-width:0.84px;"/>
            </g>
            <g transform="matrix(1,0,0,1,850.394,841.89)">
                <path d="M-680.315,-367.087C-692.056,-367.087 -701.575,-376.605 -701.575,-388.347C-701.575,-400.088 -692.056,-409.607 -680.315,-409.607C-668.573,-409.607 -659.055,-400.088 -659.055,-388.347C-659.055,-376.605 -668.573,-367.087 -680.315,-367.087Z" style="fill:white;stroke:black;stroke-width:0.84px;"/>
            </g>
            <g transform="matrix(1,0,0,1,850.394,841.89)">
                <path d="M-680.315,-319.843C-692.056,-319.843 -701.575,-329.361 -701.575,-341.103C-701.575,-352.844 -692.056,-362.362 -680.315,-362.362C-668.573,-362.362 -659.055,-352.844 -659.055,-341.103C-659.055,-329.361 -668.573,-319.843 -680.315,-319.843Z" style="fill:white;stroke:black;stroke-width:0.84px;"/>
            </g>
            <g transform="matrix(1,0,0,1,850.394,841.89)">
                <path d="M-680.315,-272.599C-692.056,-272.599 -701.575,-282.117 -701.575,-293.859C-701.575,-305.6 -692.056,-315.118 -680.315,-315.118C-668.573,-315.118 -659.055,-305.6 -659.055,-293.859C-659.055,-282.117 -668.573,-272.599 -680.315,-272.599Z" style="fill:white;stroke:black;stroke-width:0.84px;"/>
            </g>
            <g transform="matrix(1,0,0,1,850.394,841.89)">
                <path d="M-680.315,-225.355C-692.056,-225.355 -701.575,-234.873 -701.575,-246.614C-701.575,-258.356 -692.056,-267.874 -680.315,-267.874C-668.573,-267.874 -659.055,-258.356 -659.055,-246.614C-659.055,-234.873 -668.573,-225.355 -680.315,-225.355Z" style="fill:white;stroke:black;stroke-width:0.84px;"/>
            </g>
            <g transform="matrix(1,0,0,1,850.394,841.89)">
                <path d="M-680.315,-178.11C-692.056,-178.11 -701.575,-187.629 -701.575,-199.37C-701.575,-211.112 -692.056,-220.63 -680.315,-220.63C-668.573,-220.63 -659.055,-211.112 -659.055,-199.37C-659.055,-187.629 -668.573,-178.11 -680.315,-178.11Z" style="fill:white;stroke:black;stroke-width:0.84px;"/>
            </g>
            <g transform="matrix(1,0,0,1,850.394,841.89)">
                <path d="M-680.315,-130.866C-692.056,-130.866 -701.575,-140.385 -701.575,-152.126C-701.575,-163.868 -692.056,-173.386 -680.315,-173.386C-668.573,-173.386 -659.055,-163.868 -659.055,-152.126C-659.055,-140.385 -668.573,-130.866 -680.315,-130.866Z" style="fill:white;stroke:black;stroke-width:0.84px;"/>
            </g>
            <g transform="matrix(1,0,0,1,850.394,841.89)">
                <path d="M-680.315,-83.622C-692.056,-83.622 -701.575,-93.141 -701.575,-104.882C-701.575,-116.624 -692.056,-126.142 -680.315,-126.142C-668.573,-126.142 -659.055,-116.624 -659.055,-104.882C-659.055,-93.141 -668.573,-83.622 -680.315,-83.622Z" style="fill:white;stroke:black;stroke-width:0.84px;"/>
            </g>
        </g>
        <g id="Skruvhål" transform="matrix(4.16667,0,0,4.16667,472.441,472.441)">
            <g transform="matrix(0.999993,0,0,0.999993,850.394,841.884)">
                <path d="M0,-776.693C-4.696,-776.693 -8.504,-780.501 -8.504,-785.197C-8.504,-789.894 -4.696,-793.701 0,-793.701C4.697,-793.701 8.504,-789.894 8.504,-785.197C8.504,-780.501 4.697,-776.693 0,-776.693Z" style="fill:white;stroke:black;stroke-width:0.34px;"/>
            </g>
            <g transform="matrix(0.999993,0,0,0.999993,850.394,841.89)">
                <path d="M0,17.008C-4.696,17.008 -8.504,13.2 -8.504,8.504C-8.504,3.807 -4.696,0 0,0C4.697,0 8.504,3.807 8.504,8.504C8.504,13.2 4.697,17.008 0,17.008Z" style="fill:white;stroke:black;stroke-width:0.34px;"/>
            </g>
            <g transform="matrix(0.999993,0,0,0.999993,850.388,841.884)">
                <path d="M-793.701,-776.693C-798.397,-776.693 -802.205,-780.501 -802.205,-785.197C-802.205,-789.894 -798.397,-793.701 -793.701,-793.701C-789.004,-793.701 -785.197,-789.894 -785.197,-785.197C-785.197,-780.501 -789.004,-776.693 -793.701,-776.693Z" style="fill:white;stroke:black;stroke-width:0.34px;"/>
            </g>
            <g transform="matrix(0.999993,0,0,0.999993,850.388,841.89)">
                <path d="M-793.701,17.008C-798.397,17.008 -802.205,13.2 -802.205,8.504C-802.205,3.807 -798.397,0 -793.701,0C-789.004,0 -785.197,3.807 -785.197,8.504C-785.197,13.2 -789.004,17.008 -793.701,17.008Z" style="fill:white;stroke:black;stroke-width:0.34px;"/>
            </g>
        </g>
        <g transform="matrix(8.92857,0,0,0.178571,-1645.11,3585.49)">
            <g id="Utgröpning">
                <path d="M614.173,1086.61L614.173,2740.16C614.173,2922.68 611.21,3070.87 607.559,3070.87L290.079,3070.87C286.428,3070.87 283.465,2922.68 283.465,2740.16L283.465,1086.61C283.465,904.091 286.428,755.906 290.079,755.906L607.559,755.906C611.21,755.906 614.173,904.091 614.173,1086.61Z" style="fill:rgb(127,127,127);"/>
            </g>
        </g>
        <g transform="matrix(8.92857,0,0,0.178571,-1645.11,455.568)">
            <g id="Utgröpning1" serif:id="Utgröpning">
                <path d="M614.173,1086.61L614.173,2740.16C614.173,2922.68 611.21,3070.87 607.559,3070.87L290.079,3070.87C286.428,3070.87 283.465,2922.68 283.465,2740.16L283.465,1086.61C283.465,904.091 286.428,755.906 290.079,755.906L607.559,755.906C611.21,755.906 614.173,904.091 614.173,1086.61Z" style="fill:rgb(127,127,127);"/>
            </g>
        </g>
        <g id="Yttermått" transform="matrix(6.8,0,0,8.68083,-30165.4,-11009.4)">
            <rect x="4488.19" y="1309.05" width="590.551" height="462.599" style="fill:none;stroke:rgb(0,23,255);stroke-width:0.13px;stroke-linecap:square;stroke-miterlimit:1;"/>
        </g>
        <g transform="matrix(3.93701,0,0,3.28084,316.929,288.327)">
            <g id="Origo">
                <g>
                    <path d="M18.5,20.118L9.5,20.118L9.5,2.118L18.5,20.118Z" style="fill:rgb(255,0,0);fill-rule:nonzero;stroke:rgb(255,0,0);stroke-width:0.79px;"/>
                </g>
            </g>
        </g>
    </g>
</svg>
