<?xml version="1.0" encoding="UTF-8" standalone="no"?>
<!DOCTYPE svg PUBLIC "-//W3C//DTD SVG 1.1//EN" "http://www.w3.org/Graphics/SVG/1.1/DTD/svg11.dtd">
<svg width="911px" height="925px" version="1.1" xmlns="http://www.w3.org/2000/svg" xmlns:xlink="http://www.w3.org/1999/xlink" xml:space="preserve" xmlns:serif="http://www.serif.com/" style="fill-rule:evenodd;clip-rule:evenodd;stroke-miterlimit:10;">
    <g transform="matrix(0.24,0,0,0.24,-109.933,-95.7601)">
        <g transform="matrix(4.16667,0,0,4.16667,472.441,472.441)">
            <g id="Utgröpning">
                <g id="Höger--7mm-" serif:id="Höger (7mm)" transform="matrix(1,0,0,1,731.339,0)">
                    <g transform="matrix(0.36,0,0,0.306122,-73.7008,-132.187)">
                        <path d="M614.173,792.945L614.173,3033.83C614.173,3054.27 600.06,3070.87 582.677,3070.87L314.961,3070.87C297.577,3070.87 283.465,3054.27 283.465,3033.83L283.465,792.945C283.465,772.502 297.577,755.906 314.961,755.906L582.677,755.906C600.06,755.906 614.173,772.502 614.173,792.945Z" style="fill:white;stroke:black;stroke-width:2.99px;"/>
                    </g>
                    <g transform="matrix(0.24,0,0,0.24,-252.283,-65.1969)">
                        <path d="M1228.35,744.094L1228.35,3578.74L1606.3,3578.74L1606.3,744.094L1299.21,744.094L1299.21,3507.87L1381.89,3507.87L1381.89,814.961L1452.76,814.961L1452.76,3507.87L1523.62,3507.87L1523.62,814.961" style="fill:none;stroke:rgb(125,125,125);stroke-width:94.49px;stroke-linecap:round;stroke-linejoin:round;stroke-miterlimit:1.5;"/>
                    </g>
                </g>
                <g id="Vänster--7mm-" serif:id="Vänster (7mm)">
                    <g transform="matrix(0.36,0,0,0.306122,-73.7008,-132.187)">
                        <path d="M614.173,792.945L614.173,3033.83C614.173,3054.27 600.06,3070.87 582.677,3070.87L314.961,3070.87C297.577,3070.87 283.465,3054.27 283.465,3033.83L283.465,792.945C283.465,772.502 297.577,755.906 314.961,755.906L582.677,755.906C600.06,755.906 614.173,772.502 614.173,792.945Z" style="fill:white;stroke:black;stroke-width:2.99px;"/>
                    </g>
                    <g transform="matrix(0.24,0,0,0.24,-252.283,-65.1969)">
                        <path d="M1228.35,744.094L1228.35,3578.74L1606.3,3578.74L1606.3,744.094L1299.21,744.094L1299.21,3507.87L1381.89,3507.87L1381.89,814.961L1452.76,814.961L1452.76,3507.87L1523.62,3507.87L1523.62,814.961" style="fill:none;stroke:rgb(125,125,125);stroke-width:94.49px;stroke-linecap:round;stroke-linejoin:round;stroke-miterlimit:1.5;"/>
                    </g>
                </g>
                <g id="Botten--19mm-" serif:id="Botten (19mm)">
                    <g transform="matrix(2.14286,0,0,0.0489796,-508.211,728.33)">
                        <path d="M614.173,987.402L614.173,2839.37C614.173,2967.14 611.802,3070.87 608.882,3070.87L288.756,3070.87C285.836,3070.87 283.465,2967.14 283.465,2839.37L283.465,987.402C283.465,859.635 285.836,755.906 288.756,755.906L608.882,755.906C611.802,755.906 614.173,859.635 614.173,987.402Z" style="fill:white;stroke:black;stroke-width:0.66px;"/>
                    </g>
                    <g transform="matrix(0.24,0,0,0.24,-121.89,-119.055)">
                        <path d="M980.315,3744.09L980.315,4098.43L3814.96,4098.43L3814.96,3744.09L1051.18,3744.09L1051.18,3814.96L3744.09,3814.96L3744.09,3885.83L1051.18,3885.83L1051.18,3956.69L3744.09,3956.69L3744.09,4027.56L1051.18,4027.56" style="fill:none;stroke:rgb(125,125,125);stroke-width:94.49px;stroke-linecap:round;stroke-linejoin:round;stroke-miterlimit:1.5;"/>
                    </g>
                </g>
                <g id="Toppen--19mm-" serif:id="Toppen (19mm)" transform="matrix(1,0,0,1,0,-737.008)">
                    <g transform="matrix(2.14286,0,0,0.0489796,-508.211,728.33)">
                        <path d="M614.173,987.402L614.173,2839.37C614.173,2967.14 611.802,3070.87 608.882,3070.87L288.756,3070.87C285.836,3070.87 283.465,2967.14 283.465,2839.37L283.465,987.402C283.465,859.635 285.836,755.906 288.756,755.906L608.882,755.906C611.802,755.906 614.173,859.635 614.173,987.402Z" style="fill:white;stroke:black;stroke-width:0.66px;"/>
                    </g>
                    <g transform="matrix(0.24,0,0,0.24,-121.89,-119.055)">
                        <path d="M980.315,3744.09L980.315,4098.43L3814.96,4098.43L3814.96,3744.09L1051.18,3744.09L1051.18,3814.96L3744.09,3814.96L3744.09,3885.83L1051.18,3885.83L1051.18,3956.69L3744.09,3956.69L3744.09,4027.56L1051.18,4027.56" style="fill:none;stroke:rgb(125,125,125);stroke-width:94.49px;stroke-linecap:round;stroke-linejoin:round;stroke-miterlimit:1.5;"/>
                    </g>
                </g>
            </g>
        </g>
        <g transform="matrix(4.16667,0,0,4.16667,472.441,472.441)">
            <g id="Skåror-för-LED--2mm-" serif:id="Skåror för LED (2mm)">
                <g transform="matrix(0.914286,0,0,0.12,-1236.45,-42.5197)">
                    <path d="M2220.47,1748.03L2220.47,1795.28C2220.47,1847.42 2214.91,1889.76 2208.07,1889.76L1488.78,1889.76C1481.93,1889.76 1476.38,1847.42 1476.38,1795.28L1476.38,1748.03C1476.38,1695.88 1481.93,1653.54 1488.78,1653.54L2208.07,1653.54C2214.91,1653.54 2220.47,1695.88 2220.47,1748.03Z" style="fill:white;stroke:black;stroke-width:3.07px;"/>
                </g>
                <g transform="matrix(0.914286,0,0,0.12,-1236.45,4.72441)">
                    <path d="M2220.47,1748.03L2220.47,1795.28C2220.47,1847.42 2214.91,1889.76 2208.07,1889.76L1488.78,1889.76C1481.93,1889.76 1476.38,1847.42 1476.38,1795.28L1476.38,1748.03C1476.38,1695.88 1481.93,1653.54 1488.78,1653.54L2208.07,1653.54C2214.91,1653.54 2220.47,1695.88 2220.47,1748.03Z" style="fill:white;stroke:black;stroke-width:3.07px;"/>
                </g>
                <g transform="matrix(0.914286,0,0,0.12,-1236.45,51.9685)">
                    <path d="M2220.47,1748.03L2220.47,1795.28C2220.47,1847.42 2214.91,1889.76 2208.07,1889.76L1488.78,1889.76C1481.93,1889.76 1476.38,1847.42 1476.38,1795.28L1476.38,1748.03C1476.38,1695.88 1481.93,1653.54 1488.78,1653.54L2208.07,1653.54C2214.91,1653.54 2220.47,1695.88 2220.47,1748.03Z" style="fill:white;stroke:black;stroke-width:3.07px;"/>
                </g>
                <g transform="matrix(0.914286,0,0,0.12,-1236.45,99.2126)">
                    <path d="M2220.47,1748.03L2220.47,1795.28C2220.47,1847.42 2214.91,1889.76 2208.07,1889.76L1488.78,1889.76C1481.93,1889.76 1476.38,1847.42 1476.38,1795.28L1476.38,1748.03C1476.38,1695.88 1481.93,1653.54 1488.78,1653.54L2208.07,1653.54C2214.91,1653.54 2220.47,1695.88 2220.47,1748.03Z" style="fill:white;stroke:black;stroke-width:3.07px;"/>
                </g>
                <g transform="matrix(0.914286,0,0,0.12,-1236.45,146.457)">
                    <path d="M2220.47,1748.03L2220.47,1795.28C2220.47,1847.42 2214.91,1889.76 2208.07,1889.76L1488.78,1889.76C1481.93,1889.76 1476.38,1847.42 1476.38,1795.28L1476.38,1748.03C1476.38,1695.88 1481.93,1653.54 1488.78,1653.54L2208.07,1653.54C2214.91,1653.54 2220.47,1695.88 2220.47,1748.03Z" style="fill:white;stroke:black;stroke-width:3.07px;"/>
                </g>
                <g transform="matrix(0.914286,0,0,0.12,-1236.45,193.701)">
                    <path d="M2220.47,1748.03L2220.47,1795.28C2220.47,1847.42 2214.91,1889.76 2208.07,1889.76L1488.78,1889.76C1481.93,1889.76 1476.38,1847.42 1476.38,1795.28L1476.38,1748.03C1476.38,1695.88 1481.93,1653.54 1488.78,1653.54L2208.07,1653.54C2214.91,1653.54 2220.47,1695.88 2220.47,1748.03Z" style="fill:white;stroke:black;stroke-width:3.07px;"/>
                </g>
                <g transform="matrix(0.914286,0,0,0.12,-1236.45,240.945)">
                    <path d="M2220.47,1748.03L2220.47,1795.28C2220.47,1847.42 2214.91,1889.76 2208.07,1889.76L1488.78,1889.76C1481.93,1889.76 1476.38,1847.42 1476.38,1795.28L1476.38,1748.03C1476.38,1695.88 1481.93,1653.54 1488.78,1653.54L2208.07,1653.54C2214.91,1653.54 2220.47,1695.88 2220.47,1748.03Z" style="fill:white;stroke:black;stroke-width:3.07px;"/>
                </g>
                <g transform="matrix(0.914286,0,0,0.12,-1236.45,288.189)">
                    <path d="M2220.47,1748.03L2220.47,1795.28C2220.47,1847.42 2214.91,1889.76 2208.07,1889.76L1488.78,1889.76C1481.93,1889.76 1476.38,1847.42 1476.38,1795.28L1476.38,1748.03C1476.38,1695.88 1481.93,1653.54 1488.78,1653.54L2208.07,1653.54C2214.91,1653.54 2220.47,1695.88 2220.47,1748.03Z" style="fill:white;stroke:black;stroke-width:3.07px;"/>
                </g>
                <g transform="matrix(0.914286,0,0,0.12,-1236.45,382.677)">
                    <path d="M2220.47,1748.03L2220.47,1795.28C2220.47,1847.42 2214.91,1889.76 2208.07,1889.76L1488.78,1889.76C1481.93,1889.76 1476.38,1847.42 1476.38,1795.28L1476.38,1748.03C1476.38,1695.88 1481.93,1653.54 1488.78,1653.54L2208.07,1653.54C2214.91,1653.54 2220.47,1695.88 2220.47,1748.03Z" style="fill:white;stroke:black;stroke-width:3.07px;"/>
                </g>
                <g transform="matrix(0.914286,0,0,0.12,-1236.45,335.433)">
                    <path d="M2220.47,1748.03L2220.47,1795.28C2220.47,1847.42 2214.91,1889.76 2208.07,1889.76L1488.78,1889.76C1481.93,1889.76 1476.38,1847.42 1476.38,1795.28L1476.38,1748.03C1476.38,1695.88 1481.93,1653.54 1488.78,1653.54L2208.07,1653.54C2214.91,1653.54 2220.47,1695.88 2220.47,1748.03Z" style="fill:white;stroke:black;stroke-width:3.07px;"/>
                </g>
                <g transform="matrix(0.914286,0,0,0.12,-1236.45,429.921)">
                    <path d="M2220.47,1748.03L2220.47,1795.28C2220.47,1847.42 2214.91,1889.76 2208.07,1889.76L1488.78,1889.76C1481.93,1889.76 1476.38,1847.42 1476.38,1795.28L1476.38,1748.03C1476.38,1695.88 1481.93,1653.54 1488.78,1653.54L2208.07,1653.54C2214.91,1653.54 2220.47,1695.88 2220.47,1748.03Z" style="fill:white;stroke:black;stroke-width:3.07px;"/>
                </g>
                <g transform="matrix(0.914286,0,0,0.12,-1236.45,477.165)">
                    <path d="M2220.47,1748.03L2220.47,1795.28C2220.47,1847.42 2214.91,1889.76 2208.07,1889.76L1488.78,1889.76C1481.93,1889.76 1476.38,1847.42 1476.38,1795.28L1476.38,1748.03C1476.38,1695.88 1481.93,1653.54 1488.78,1653.54L2208.07,1653.54C2214.91,1653.54 2220.47,1695.88 2220.47,1748.03Z" style="fill:white;stroke:black;stroke-width:3.07px;"/>
                </g>
                <g transform="matrix(0.914286,0,0,0.12,-1236.45,524.409)">
                    <path d="M2220.47,1748.03L2220.47,1795.28C2220.47,1847.42 2214.91,1889.76 2208.07,1889.76L1488.78,1889.76C1481.93,1889.76 1476.38,1847.42 1476.38,1795.28L1476.38,1748.03C1476.38,1695.88 1481.93,1653.54 1488.78,1653.54L2208.07,1653.54C2214.91,1653.54 2220.47,1695.88 2220.47,1748.03Z" style="fill:white;stroke:black;stroke-width:3.07px;"/>
                </g>
            </g>
        </g>
        <g transform="matrix(4.16667,0,0,4.16667,472.441,472.441)">
            <g id="Guide" transform="matrix(0.698182,0,0,0.698182,-329.85,-536.006)">
                <rect x="472.441" y="767.717" width="1299.21" height="1299.21" style="fill:none;stroke:rgb(0,23,255);stroke-width:0.34px;stroke-linecap:square;stroke-miterlimit:1;"/>
            </g>
        </g>
        <g transform="matrix(4.16667,0,0,4.16667,472.441,472.441)">
            <g transform="matrix(0.944882,0,0,0.787402,-8.97638,-15.8409)">
                <g id="Origo">
                    <g>
                        <path d="M18.5,20.118L9.5,20.118L9.5,2.118L18.5,20.118Z" style="fill:rgb(255,0,0);fill-rule:nonzero;stroke:rgb(255,0,0);stroke-width:0.79px;"/>
                    </g>
                </g>
            </g>
        </g>
    </g>
</svg>
