<?xml version="1.0" encoding="UTF-8" standalone="no"?>
<!DOCTYPE svg PUBLIC "-//W3C//DTD SVG 1.1//EN" "http://www.w3.org/Graphics/SVG/1.1/DTD/svg11.dtd">
<svg width="1134px" height="1134px" version="1.1" xmlns="http://www.w3.org/2000/svg" xmlns:xlink="http://www.w3.org/1999/xlink" xml:space="preserve" xmlns:serif="http://www.serif.com/" style="fill-rule:evenodd;clip-rule:evenodd;stroke-miterlimit:10;">
    <g transform="matrix(0.24,0,0,0.24,0,0)">
        <g id="B" transform="matrix(4.16667,0,0,4.16667,472.441,472.441)">
            <g id="Utgröpning">
                <g transform="matrix(0.36,0,0,0.306122,-73.7008,-132.187)">
                    <path d="M614.173,792.945L614.173,3033.83C614.173,3054.27 600.06,3070.87 582.677,3070.87L314.961,3070.87C297.577,3070.87 283.465,3054.27 283.465,3033.83L283.465,792.945C283.465,772.502 297.577,755.906 314.961,755.906L582.677,755.906C600.06,755.906 614.173,772.502 614.173,792.945Z" style="fill:rgb(127,127,127);"/>
                </g>
                <g transform="matrix(0.36,0,0,0.306122,657.638,-132.187)">
                    <path d="M614.173,792.945L614.173,3033.83C614.173,3054.27 600.06,3070.87 582.677,3070.87L314.961,3070.87C297.577,3070.87 283.465,3054.27 283.465,3033.83L283.465,792.945C283.465,772.502 297.577,755.906 314.961,755.906L582.677,755.906C600.06,755.906 614.173,772.502 614.173,792.945Z" style="fill:rgb(127,127,127);"/>
                </g>
                <g transform="matrix(2.14286,0,0,0.0489796,-508.211,728.33)">
                    <path d="M614.173,987.402L614.173,2839.37C614.173,2967.14 611.802,3070.87 608.882,3070.87L288.756,3070.87C285.836,3070.87 283.465,2967.14 283.465,2839.37L283.465,987.402C283.465,859.635 285.836,755.906 288.756,755.906L608.882,755.906C611.802,755.906 614.173,859.635 614.173,987.402Z" style="fill:rgb(127,127,127);"/>
                </g>
            </g>
            <g id="Skåror-för-LED" serif:id="Skåror för LED">
                <g transform="matrix(0.914286,0,0,0.12,-1236.45,-42.5197)">
                    <path d="M2220.47,1748.03L2220.47,1795.28C2220.47,1847.42 2214.91,1889.76 2208.07,1889.76L1488.78,1889.76C1481.93,1889.76 1476.38,1847.42 1476.38,1795.28L1476.38,1748.03C1476.38,1695.88 1481.93,1653.54 1488.78,1653.54L2208.07,1653.54C2214.91,1653.54 2220.47,1695.88 2220.47,1748.03Z" style="fill:white;stroke:black;stroke-width:3.07px;"/>
                </g>
                <g transform="matrix(0.914286,0,0,0.12,-1236.45,4.72441)">
                    <path d="M2220.47,1748.03L2220.47,1795.28C2220.47,1847.42 2214.91,1889.76 2208.07,1889.76L1488.78,1889.76C1481.93,1889.76 1476.38,1847.42 1476.38,1795.28L1476.38,1748.03C1476.38,1695.88 1481.93,1653.54 1488.78,1653.54L2208.07,1653.54C2214.91,1653.54 2220.47,1695.88 2220.47,1748.03Z" style="fill:white;stroke:black;stroke-width:3.07px;"/>
                </g>
                <g transform="matrix(0.914286,0,0,0.12,-1236.45,51.9685)">
                    <path d="M2220.47,1748.03L2220.47,1795.28C2220.47,1847.42 2214.91,1889.76 2208.07,1889.76L1488.78,1889.76C1481.93,1889.76 1476.38,1847.42 1476.38,1795.28L1476.38,1748.03C1476.38,1695.88 1481.93,1653.54 1488.78,1653.54L2208.07,1653.54C2214.91,1653.54 2220.47,1695.88 2220.47,1748.03Z" style="fill:white;stroke:black;stroke-width:3.07px;"/>
                </g>
                <g transform="matrix(0.914286,0,0,0.12,-1236.45,99.2126)">
                    <path d="M2220.47,1748.03L2220.47,1795.28C2220.47,1847.42 2214.91,1889.76 2208.07,1889.76L1488.78,1889.76C1481.93,1889.76 1476.38,1847.42 1476.38,1795.28L1476.38,1748.03C1476.38,1695.88 1481.93,1653.54 1488.78,1653.54L2208.07,1653.54C2214.91,1653.54 2220.47,1695.88 2220.47,1748.03Z" style="fill:white;stroke:black;stroke-width:3.07px;"/>
                </g>
                <g transform="matrix(0.914286,0,0,0.12,-1236.45,146.457)">
                    <path d="M2220.47,1748.03L2220.47,1795.28C2220.47,1847.42 2214.91,1889.76 2208.07,1889.76L1488.78,1889.76C1481.93,1889.76 1476.38,1847.42 1476.38,1795.28L1476.38,1748.03C1476.38,1695.88 1481.93,1653.54 1488.78,1653.54L2208.07,1653.54C2214.91,1653.54 2220.47,1695.88 2220.47,1748.03Z" style="fill:white;stroke:black;stroke-width:3.07px;"/>
                </g>
                <g transform="matrix(0.914286,0,0,0.12,-1236.45,193.701)">
                    <path d="M2220.47,1748.03L2220.47,1795.28C2220.47,1847.42 2214.91,1889.76 2208.07,1889.76L1488.78,1889.76C1481.93,1889.76 1476.38,1847.42 1476.38,1795.28L1476.38,1748.03C1476.38,1695.88 1481.93,1653.54 1488.78,1653.54L2208.07,1653.54C2214.91,1653.54 2220.47,1695.88 2220.47,1748.03Z" style="fill:white;stroke:black;stroke-width:3.07px;"/>
                </g>
                <g transform="matrix(0.914286,0,0,0.12,-1236.45,240.945)">
                    <path d="M2220.47,1748.03L2220.47,1795.28C2220.47,1847.42 2214.91,1889.76 2208.07,1889.76L1488.78,1889.76C1481.93,1889.76 1476.38,1847.42 1476.38,1795.28L1476.38,1748.03C1476.38,1695.88 1481.93,1653.54 1488.78,1653.54L2208.07,1653.54C2214.91,1653.54 2220.47,1695.88 2220.47,1748.03Z" style="fill:white;stroke:black;stroke-width:3.07px;"/>
                </g>
                <g transform="matrix(0.914286,0,0,0.12,-1236.45,288.189)">
                    <path d="M2220.47,1748.03L2220.47,1795.28C2220.47,1847.42 2214.91,1889.76 2208.07,1889.76L1488.78,1889.76C1481.93,1889.76 1476.38,1847.42 1476.38,1795.28L1476.38,1748.03C1476.38,1695.88 1481.93,1653.54 1488.78,1653.54L2208.07,1653.54C2214.91,1653.54 2220.47,1695.88 2220.47,1748.03Z" style="fill:white;stroke:black;stroke-width:3.07px;"/>
                </g>
                <g transform="matrix(0.914286,0,0,0.12,-1236.45,382.677)">
                    <path d="M2220.47,1748.03L2220.47,1795.28C2220.47,1847.42 2214.91,1889.76 2208.07,1889.76L1488.78,1889.76C1481.93,1889.76 1476.38,1847.42 1476.38,1795.28L1476.38,1748.03C1476.38,1695.88 1481.93,1653.54 1488.78,1653.54L2208.07,1653.54C2214.91,1653.54 2220.47,1695.88 2220.47,1748.03Z" style="fill:white;stroke:black;stroke-width:3.07px;"/>
                </g>
                <g transform="matrix(0.914286,0,0,0.12,-1236.45,335.433)">
                    <path d="M2220.47,1748.03L2220.47,1795.28C2220.47,1847.42 2214.91,1889.76 2208.07,1889.76L1488.78,1889.76C1481.93,1889.76 1476.38,1847.42 1476.38,1795.28L1476.38,1748.03C1476.38,1695.88 1481.93,1653.54 1488.78,1653.54L2208.07,1653.54C2214.91,1653.54 2220.47,1695.88 2220.47,1748.03Z" style="fill:white;stroke:black;stroke-width:3.07px;"/>
                </g>
                <g transform="matrix(0.914286,0,0,0.12,-1236.45,429.921)">
                    <path d="M2220.47,1748.03L2220.47,1795.28C2220.47,1847.42 2214.91,1889.76 2208.07,1889.76L1488.78,1889.76C1481.93,1889.76 1476.38,1847.42 1476.38,1795.28L1476.38,1748.03C1476.38,1695.88 1481.93,1653.54 1488.78,1653.54L2208.07,1653.54C2214.91,1653.54 2220.47,1695.88 2220.47,1748.03Z" style="fill:white;stroke:black;stroke-width:3.07px;"/>
                </g>
                <g transform="matrix(0.914286,0,0,0.12,-1236.45,477.165)">
                    <path d="M2220.47,1748.03L2220.47,1795.28C2220.47,1847.42 2214.91,1889.76 2208.07,1889.76L1488.78,1889.76C1481.93,1889.76 1476.38,1847.42 1476.38,1795.28L1476.38,1748.03C1476.38,1695.88 1481.93,1653.54 1488.78,1653.54L2208.07,1653.54C2214.91,1653.54 2220.47,1695.88 2220.47,1748.03Z" style="fill:white;stroke:black;stroke-width:3.07px;"/>
                </g>
                <g transform="matrix(0.914286,0,0,0.12,-1236.45,524.409)">
                    <path d="M2220.47,1748.03L2220.47,1795.28C2220.47,1847.42 2214.91,1889.76 2208.07,1889.76L1488.78,1889.76C1481.93,1889.76 1476.38,1847.42 1476.38,1795.28L1476.38,1748.03C1476.38,1695.88 1481.93,1653.54 1488.78,1653.54L2208.07,1653.54C2214.91,1653.54 2220.47,1695.88 2220.47,1748.03Z" style="fill:white;stroke:black;stroke-width:3.07px;"/>
                </g>
            </g>
            <g transform="matrix(0.944882,0,0,0.787402,-8.97638,-15.8409)">
                <g id="Origo">
                    <g>
                        <path d="M18.5,20.118L9.5,20.118L9.5,2.118L18.5,20.118Z" style="fill:rgb(255,0,0);fill-rule:nonzero;stroke:rgb(255,0,0);stroke-width:0.79px;"/>
                    </g>
                </g>
            </g>
            <g id="Guide" transform="matrix(0.698182,0,0,0.698182,-329.85,-536.006)">
                <rect x="472.441" y="767.717" width="1299.21" height="1299.21" style="fill:none;stroke:rgb(0,23,255);stroke-width:0.34px;stroke-linecap:square;stroke-miterlimit:1;"/>
            </g>
            <g transform="matrix(0.366076,0,0,0.366076,-806.379,-131.284)">
                <g transform="matrix(50,0,0,50,3548.34,727.526)">
                </g>
                <text x="3306.61px" y="727.526px" style="font-family:'ArialMT', 'Arial', sans-serif;font-size:50px;fill:none;stroke:rgb(0,23,255);stroke-width:0.66px;stroke-linecap:square;stroke-miterlimit:1;">Djup 2 mm</text>
            </g>
            <g transform="matrix(0.366076,0,0,0.366076,-1166.38,129.503)">
                <g transform="matrix(50,0,0,50,3548.34,727.526)">
                </g>
                <text x="3306.61px" y="727.526px" style="font-family:'ArialMT', 'Arial', sans-serif;font-size:50px;fill:none;stroke:rgb(0,23,255);stroke-width:0.66px;stroke-linecap:square;stroke-miterlimit:1;">Djup 7 mm</text>
            </g>
            <g transform="matrix(0.366076,0,0,0.366076,-830.065,560.37)">
                <g transform="matrix(50,0,0,50,3576.14,727.526)">
                </g>
                <text x="3306.61px" y="727.526px" style="font-family:'ArialMT', 'Arial', sans-serif;font-size:50px;fill:none;stroke:rgb(0,23,255);stroke-width:0.66px;stroke-linecap:square;stroke-miterlimit:1;">Djup 19 mm</text>
            </g>
            <g transform="matrix(0.24,0,0,0.18,-85.0394,127.559)">
                <path d="M2185.04,4488.19L2185.04,4015.75" style="fill:none;stroke:rgb(127,127,127);stroke-width:106.9px;stroke-linejoin:round;"/>
            </g>
        </g>
    </g>
</svg>
