<?xml version="1.0" encoding="UTF-8" standalone="no"?>
<!DOCTYPE svg PUBLIC "-//W3C//DTD SVG 1.1//EN" "http://www.w3.org/Graphics/SVG/1.1/DTD/svg11.dtd">
<svg width="911px" height="925px" version="1.1" xmlns="http://www.w3.org/2000/svg" xmlns:xlink="http://www.w3.org/1999/xlink" xml:space="preserve" xmlns:serif="http://www.serif.com/" style="fill-rule:evenodd;clip-rule:evenodd;stroke-miterlimit:10;">
    <g transform="matrix(0.24,0,0,0.24,-109.933,-95.7601)">
        <g transform="matrix(4.16667,0,0,4.16667,472.441,472.441)">
            <g id="Utgröpning">
                <g id="Höger--7mm-" serif:id="Höger (7mm)" transform="matrix(1,0,0,1,728.504,0)">
                    <g transform="matrix(0.36,0,0,0.306122,-70.8661,-132.187)">
                        <path d="M614.173,792.945L614.173,3033.83C614.173,3054.27 600.06,3070.87 582.677,3070.87L314.961,3070.87C297.577,3070.87 283.465,3054.27 283.465,3033.83L283.465,792.945C283.465,772.502 297.577,755.906 314.961,755.906L582.677,755.906C600.06,755.906 614.173,772.502 614.173,792.945Z" style="fill:white;stroke:black;stroke-width:2.99px;"/>
                    </g>
                    <g transform="matrix(0.768,0,0,4.8,-489.827,-4535.43)">
                        <rect x="696.85" y="968.504" width="118.11" height="141.732" style="fill:none;stroke:rgb(125,125,125);stroke-width:6.6px;stroke-linecap:round;stroke-linejoin:round;stroke-miterlimit:1.5;"/>
                    </g>
                    <g transform="matrix(0.369231,0,0,6.84,-208.019,-6817.32)">
                        <rect x="732.283" y="1015.75" width="153.543" height="94.488" style="fill:none;stroke:rgb(125,125,125);stroke-width:4.68px;stroke-linecap:round;stroke-linejoin:round;stroke-miterlimit:1.5;"/>
                    </g>
                    <g transform="matrix(0.174545,0,0,4.32,-54.6314,-4444.72)">
                        <rect x="767.717" y="1062.99" width="129.921" height="141.732" style="fill:none;stroke:rgb(125,125,125);stroke-width:7.42px;stroke-linecap:round;stroke-linejoin:round;stroke-miterlimit:1.5;"/>
                    </g>
                </g>
                <g id="Vänster--7mm-" serif:id="Vänster (7mm)" transform="matrix(1,0,0,1,-2.83465,0)">
                    <g transform="matrix(0.36,0,0,0.306122,-70.8661,-132.187)">
                        <path d="M614.173,792.945L614.173,3033.83C614.173,3054.27 600.06,3070.87 582.677,3070.87L314.961,3070.87C297.577,3070.87 283.465,3054.27 283.465,3033.83L283.465,792.945C283.465,772.502 297.577,755.906 314.961,755.906L582.677,755.906C600.06,755.906 614.173,772.502 614.173,792.945Z" style="fill:white;stroke:black;stroke-width:2.99px;"/>
                    </g>
                    <g transform="matrix(0.768,0,0,4.8,-489.827,-4535.43)">
                        <rect x="696.85" y="968.504" width="118.11" height="141.732" style="fill:none;stroke:rgb(125,125,125);stroke-width:6.6px;stroke-linecap:round;stroke-linejoin:round;stroke-miterlimit:1.5;"/>
                    </g>
                    <g transform="matrix(0.369231,0,0,6.84,-208.019,-6817.32)">
                        <rect x="732.283" y="1015.75" width="153.543" height="94.488" style="fill:none;stroke:rgb(125,125,125);stroke-width:4.68px;stroke-linecap:round;stroke-linejoin:round;stroke-miterlimit:1.5;"/>
                    </g>
                    <g transform="matrix(0.174545,0,0,4.32,-54.6314,-4444.72)">
                        <rect x="767.717" y="1062.99" width="129.921" height="141.732" style="fill:none;stroke:rgb(125,125,125);stroke-width:7.42px;stroke-linecap:round;stroke-linejoin:round;stroke-miterlimit:1.5;"/>
                    </g>
                </g>
                <g id="Toppen--19mm-" serif:id="Toppen (19mm)" transform="matrix(1,0,0,1,0,-737.008)">
                    <g transform="matrix(2.14286,0,0,0.0489796,-508.211,728.33)">
                        <path d="M614.173,987.402L614.173,2839.37C614.173,2967.14 611.802,3070.87 608.882,3070.87L288.756,3070.87C285.836,3070.87 283.465,2967.14 283.465,2839.37L283.465,987.402C283.465,859.635 285.836,755.906 288.756,755.906L608.882,755.906C611.802,755.906 614.173,859.635 614.173,987.402Z" style="fill:white;stroke:black;stroke-width:0.66px;"/>
                    </g>
                    <g transform="matrix(2.05714,0,0,0.288,-1878.97,585.638)">
                        <rect x="968.504" y="673.228" width="330.709" height="295.276" style="fill:none;stroke:rgb(125,125,125);stroke-width:15.44px;stroke-linecap:round;stroke-linejoin:round;stroke-miterlimit:1.5;"/>
                    </g>
                    <g transform="matrix(1.97143,0,0,0.192,-1781.78,664.441)">
                        <rect x="968.504" y="673.228" width="330.709" height="295.276" style="fill:none;stroke:rgb(125,125,125);stroke-width:16.19px;stroke-linecap:round;stroke-linejoin:round;stroke-miterlimit:1.5;"/>
                    </g>
                    <g transform="matrix(1.88571,0,0,0.0768,-1684.59,759.005)">
                        <rect x="968.504" y="673.228" width="330.709" height="295.276" style="fill:none;stroke:rgb(125,125,125);stroke-width:16.99px;stroke-linecap:round;stroke-linejoin:round;stroke-miterlimit:1.5;"/>
                    </g>
                </g>
            </g>
        </g>
        <g transform="matrix(4.16667,0,0,4.16667,472.441,472.441)">
            <g id="Guide" transform="matrix(0.698182,0,0,0.698182,-329.85,-536.006)">
                <rect x="472.441" y="767.717" width="1299.21" height="1299.21" style="fill:none;stroke:rgb(0,23,255);stroke-width:0.34px;stroke-linecap:square;stroke-miterlimit:1;"/>
            </g>
        </g>
        <g transform="matrix(4.16667,0,0,4.16667,472.441,472.441)">
            <g transform="matrix(0.944882,0,0,0.787402,-8.97638,-15.8409)">
                <g id="Origo">
                    <g>
                        <path d="M18.5,20.118L9.5,20.118L9.5,2.118L18.5,20.118Z" style="fill:rgb(255,0,0);fill-rule:nonzero;stroke:rgb(255,0,0);stroke-width:0.79px;"/>
                    </g>
                </g>
            </g>
        </g>
    </g>
</svg>
