<?xml version="1.0" encoding="UTF-8" standalone="no"?>
<!DOCTYPE svg PUBLIC "-//W3C//DTD SVG 1.1//EN" "http://www.w3.org/Graphics/SVG/1.1/DTD/svg11.dtd">
<svg width="911px" height="925px" version="1.1" xmlns="http://www.w3.org/2000/svg" xmlns:xlink="http://www.w3.org/1999/xlink" xml:space="preserve" xmlns:serif="http://www.serif.com/" style="fill-rule:evenodd;clip-rule:evenodd;stroke-miterlimit:10;">
    <g transform="matrix(0.24,0,0,0.24,-109.933,-95.7601)">
        <g transform="matrix(4.16667,0,0,4.16667,472.441,472.441)">
            <g id="Skåror-för-LED--2mm-" serif:id="Skåror för LED (2mm)">
                <g transform="matrix(0.914286,0,0,0.12,-1236.45,-42.5197)">
                    <path d="M2220.47,1748.03L2220.47,1795.28C2220.47,1847.42 2214.91,1889.76 2208.07,1889.76L1488.78,1889.76C1481.93,1889.76 1476.38,1847.42 1476.38,1795.28L1476.38,1748.03C1476.38,1695.88 1481.93,1653.54 1488.78,1653.54L2208.07,1653.54C2214.91,1653.54 2220.47,1695.88 2220.47,1748.03Z" style="fill:white;stroke:black;stroke-width:3.07px;"/>
                </g>
                <g transform="matrix(0.914286,0,0,0.12,-1236.45,4.72441)">
                    <path d="M2220.47,1748.03L2220.47,1795.28C2220.47,1847.42 2214.91,1889.76 2208.07,1889.76L1488.78,1889.76C1481.93,1889.76 1476.38,1847.42 1476.38,1795.28L1476.38,1748.03C1476.38,1695.88 1481.93,1653.54 1488.78,1653.54L2208.07,1653.54C2214.91,1653.54 2220.47,1695.88 2220.47,1748.03Z" style="fill:white;stroke:black;stroke-width:3.07px;"/>
                </g>
                <g transform="matrix(0.914286,0,0,0.12,-1236.45,51.9685)">
                    <path d="M2220.47,1748.03L2220.47,1795.28C2220.47,1847.42 2214.91,1889.76 2208.07,1889.76L1488.78,1889.76C1481.93,1889.76 1476.38,1847.42 1476.38,1795.28L1476.38,1748.03C1476.38,1695.88 1481.93,1653.54 1488.78,1653.54L2208.07,1653.54C2214.91,1653.54 2220.47,1695.88 2220.47,1748.03Z" style="fill:white;stroke:black;stroke-width:3.07px;"/>
                </g>
                <g transform="matrix(0.914286,0,0,0.12,-1236.45,99.2126)">
                    <path d="M2220.47,1748.03L2220.47,1795.28C2220.47,1847.42 2214.91,1889.76 2208.07,1889.76L1488.78,1889.76C1481.93,1889.76 1476.38,1847.42 1476.38,1795.28L1476.38,1748.03C1476.38,1695.88 1481.93,1653.54 1488.78,1653.54L2208.07,1653.54C2214.91,1653.54 2220.47,1695.88 2220.47,1748.03Z" style="fill:white;stroke:black;stroke-width:3.07px;"/>
                </g>
                <g transform="matrix(0.914286,0,0,0.12,-1236.45,146.457)">
                    <path d="M2220.47,1748.03L2220.47,1795.28C2220.47,1847.42 2214.91,1889.76 2208.07,1889.76L1488.78,1889.76C1481.93,1889.76 1476.38,1847.42 1476.38,1795.28L1476.38,1748.03C1476.38,1695.88 1481.93,1653.54 1488.78,1653.54L2208.07,1653.54C2214.91,1653.54 2220.47,1695.88 2220.47,1748.03Z" style="fill:white;stroke:black;stroke-width:3.07px;"/>
                </g>
                <g transform="matrix(0.914286,0,0,0.12,-1236.45,193.701)">
                    <path d="M2220.47,1748.03L2220.47,1795.28C2220.47,1847.42 2214.91,1889.76 2208.07,1889.76L1488.78,1889.76C1481.93,1889.76 1476.38,1847.42 1476.38,1795.28L1476.38,1748.03C1476.38,1695.88 1481.93,1653.54 1488.78,1653.54L2208.07,1653.54C2214.91,1653.54 2220.47,1695.88 2220.47,1748.03Z" style="fill:white;stroke:black;stroke-width:3.07px;"/>
                </g>
                <g transform="matrix(0.914286,0,0,0.12,-1236.45,240.945)">
                    <path d="M2220.47,1748.03L2220.47,1795.28C2220.47,1847.42 2214.91,1889.76 2208.07,1889.76L1488.78,1889.76C1481.93,1889.76 1476.38,1847.42 1476.38,1795.28L1476.38,1748.03C1476.38,1695.88 1481.93,1653.54 1488.78,1653.54L2208.07,1653.54C2214.91,1653.54 2220.47,1695.88 2220.47,1748.03Z" style="fill:white;stroke:black;stroke-width:3.07px;"/>
                </g>
                <g transform="matrix(0.914286,0,0,0.12,-1236.45,288.189)">
                    <path d="M2220.47,1748.03L2220.47,1795.28C2220.47,1847.42 2214.91,1889.76 2208.07,1889.76L1488.78,1889.76C1481.93,1889.76 1476.38,1847.42 1476.38,1795.28L1476.38,1748.03C1476.38,1695.88 1481.93,1653.54 1488.78,1653.54L2208.07,1653.54C2214.91,1653.54 2220.47,1695.88 2220.47,1748.03Z" style="fill:white;stroke:black;stroke-width:3.07px;"/>
                </g>
                <g transform="matrix(0.914286,0,0,0.12,-1236.45,382.677)">
                    <path d="M2220.47,1748.03L2220.47,1795.28C2220.47,1847.42 2214.91,1889.76 2208.07,1889.76L1488.78,1889.76C1481.93,1889.76 1476.38,1847.42 1476.38,1795.28L1476.38,1748.03C1476.38,1695.88 1481.93,1653.54 1488.78,1653.54L2208.07,1653.54C2214.91,1653.54 2220.47,1695.88 2220.47,1748.03Z" style="fill:white;stroke:black;stroke-width:3.07px;"/>
                </g>
                <g transform="matrix(0.914286,0,0,0.12,-1236.45,335.433)">
                    <path d="M2220.47,1748.03L2220.47,1795.28C2220.47,1847.42 2214.91,1889.76 2208.07,1889.76L1488.78,1889.76C1481.93,1889.76 1476.38,1847.42 1476.38,1795.28L1476.38,1748.03C1476.38,1695.88 1481.93,1653.54 1488.78,1653.54L2208.07,1653.54C2214.91,1653.54 2220.47,1695.88 2220.47,1748.03Z" style="fill:white;stroke:black;stroke-width:3.07px;"/>
                </g>
                <g transform="matrix(0.914286,0,0,0.12,-1236.45,429.921)">
                    <path d="M2220.47,1748.03L2220.47,1795.28C2220.47,1847.42 2214.91,1889.76 2208.07,1889.76L1488.78,1889.76C1481.93,1889.76 1476.38,1847.42 1476.38,1795.28L1476.38,1748.03C1476.38,1695.88 1481.93,1653.54 1488.78,1653.54L2208.07,1653.54C2214.91,1653.54 2220.47,1695.88 2220.47,1748.03Z" style="fill:white;stroke:black;stroke-width:3.07px;"/>
                </g>
                <g transform="matrix(0.914286,0,0,0.12,-1236.45,477.165)">
                    <path d="M2220.47,1748.03L2220.47,1795.28C2220.47,1847.42 2214.91,1889.76 2208.07,1889.76L1488.78,1889.76C1481.93,1889.76 1476.38,1847.42 1476.38,1795.28L1476.38,1748.03C1476.38,1695.88 1481.93,1653.54 1488.78,1653.54L2208.07,1653.54C2214.91,1653.54 2220.47,1695.88 2220.47,1748.03Z" style="fill:white;stroke:black;stroke-width:3.07px;"/>
                </g>
                <g transform="matrix(0.914286,0,0,0.12,-1236.45,524.409)">
                    <path d="M2220.47,1748.03L2220.47,1795.28C2220.47,1847.42 2214.91,1889.76 2208.07,1889.76L1488.78,1889.76C1481.93,1889.76 1476.38,1847.42 1476.38,1795.28L1476.38,1748.03C1476.38,1695.88 1481.93,1653.54 1488.78,1653.54L2208.07,1653.54C2214.91,1653.54 2220.47,1695.88 2220.47,1748.03Z" style="fill:white;stroke:black;stroke-width:3.07px;"/>
                </g>
            </g>
        </g>
        <g transform="matrix(4.16667,0,0,4.16667,472.441,472.441)">
            <g id="Guide" transform="matrix(0.698182,0,0,0.698182,-329.85,-536.006)">
                <rect x="472.441" y="767.717" width="1299.21" height="1299.21" style="fill:none;stroke:rgb(0,23,255);stroke-width:0.34px;stroke-linecap:square;stroke-miterlimit:1;"/>
            </g>
        </g>
        <g transform="matrix(4.16667,0,0,4.16667,472.441,472.441)">
            <g transform="matrix(0.944882,0,0,0.787402,-8.97638,-15.8409)">
                <g id="Origo">
                    <g>
                        <path d="M18.5,20.118L9.5,20.118L9.5,2.118L18.5,20.118Z" style="fill:rgb(255,0,0);fill-rule:nonzero;stroke:rgb(255,0,0);stroke-width:0.79px;"/>
                    </g>
                </g>
            </g>
        </g>
    </g>
</svg>
