<?xml version="1.0" encoding="UTF-8" standalone="no"?>
<!DOCTYPE svg PUBLIC "-//W3C//DTD SVG 1.1//EN" "http://www.w3.org/Graphics/SVG/1.1/DTD/svg11.dtd">
<svg width="1609px" height="782px" version="1.1" xmlns="http://www.w3.org/2000/svg" xmlns:xlink="http://www.w3.org/1999/xlink" xml:space="preserve" xmlns:serif="http://www.serif.com/" style="fill-rule:evenodd;clip-rule:evenodd;stroke-linecap:square;stroke-miterlimit:1;">
    <g transform="matrix(1,0,0,1,-24.5778,-7.56988)">
        <g transform="matrix(1,0,0,1,14.1732,0)">
            <g transform="matrix(4.22388,0,0,5.58333,-1829.7,-5289.45)">
                <rect x="436.535" y="952.441" width="379.843" height="136.063" style="fill:none;stroke:rgb(0,23,255);stroke-width:0.2px;"/>
            </g>
            <g transform="matrix(1,0,0,1,67.8071,337.02)">
                <g transform="matrix(0.625005,0,0,0.625005,212.822,-498.596)">
                    <circle cx="204.094" cy="476.22" r="68.031" style="fill:white;stroke:black;stroke-width:2.68px;stroke-linecap:butt;stroke-miterlimit:10;"/>
                </g>
                <g transform="matrix(0.625005,0,0,0.625005,-59.3037,-498.596)">
                    <circle cx="204.094" cy="476.22" r="68.031" style="fill:white;stroke:black;stroke-width:2.68px;stroke-linecap:butt;stroke-miterlimit:10;"/>
                </g>
                <g transform="matrix(0.625005,0,0,0.625005,484.948,-498.596)">
                    <circle cx="204.094" cy="476.22" r="68.031" style="fill:white;stroke:black;stroke-width:2.68px;stroke-linecap:butt;stroke-miterlimit:10;"/>
                </g>
                <g transform="matrix(0.625005,0,0,0.625005,757.074,-498.596)">
                    <circle cx="204.094" cy="476.22" r="68.031" style="fill:white;stroke:black;stroke-width:2.68px;stroke-linecap:butt;stroke-miterlimit:10;"/>
                </g>
                <g transform="matrix(0.625005,0,0,0.625005,1029.2,-498.596)">
                    <circle cx="204.094" cy="476.22" r="68.031" style="fill:white;stroke:black;stroke-width:2.68px;stroke-linecap:butt;stroke-miterlimit:10;"/>
                </g>
                <g transform="matrix(0.625005,0,0,0.625005,212.822,-226.47)">
                    <circle cx="204.094" cy="476.22" r="68.031" style="fill:white;stroke:black;stroke-width:2.68px;stroke-linecap:butt;stroke-miterlimit:10;"/>
                </g>
                <g transform="matrix(0.625005,0,0,0.625005,-59.3037,-226.47)">
                    <circle cx="204.094" cy="476.22" r="68.031" style="fill:white;stroke:black;stroke-width:2.68px;stroke-linecap:butt;stroke-miterlimit:10;"/>
                </g>
                <g transform="matrix(0.625005,0,0,0.625005,484.948,-226.47)">
                    <circle cx="204.094" cy="476.22" r="68.031" style="fill:white;stroke:black;stroke-width:2.68px;stroke-linecap:butt;stroke-miterlimit:10;"/>
                </g>
                <g transform="matrix(0.625005,0,0,0.625005,757.074,-226.47)">
                    <circle cx="204.094" cy="476.22" r="68.031" style="fill:white;stroke:black;stroke-width:2.68px;stroke-linecap:butt;stroke-miterlimit:10;"/>
                </g>
                <g transform="matrix(0.625005,0,0,0.625005,1029.2,-226.47)">
                    <circle cx="204.094" cy="476.22" r="68.031" style="fill:white;stroke:black;stroke-width:2.68px;stroke-linecap:butt;stroke-miterlimit:10;"/>
                </g>
                <g transform="matrix(0.625005,0,0,0.625005,212.822,45.6556)">
                    <circle cx="204.094" cy="476.22" r="68.031" style="fill:white;stroke:black;stroke-width:2.68px;stroke-linecap:butt;stroke-miterlimit:10;"/>
                </g>
                <g transform="matrix(0.625005,0,0,0.625005,-59.3037,45.6556)">
                    <circle cx="204.094" cy="476.22" r="68.031" style="fill:white;stroke:black;stroke-width:2.68px;stroke-linecap:butt;stroke-miterlimit:10;"/>
                </g>
                <g transform="matrix(0.625005,0,0,0.625005,484.948,45.6556)">
                    <circle cx="204.094" cy="476.22" r="68.031" style="fill:white;stroke:black;stroke-width:2.68px;stroke-linecap:butt;stroke-miterlimit:10;"/>
                </g>
                <g transform="matrix(0.625005,0,0,0.625005,757.074,45.6556)">
                    <circle cx="204.094" cy="476.22" r="68.031" style="fill:white;stroke:black;stroke-width:2.68px;stroke-linecap:butt;stroke-miterlimit:10;"/>
                </g>
                <g transform="matrix(0.625005,0,0,0.625005,1029.2,45.6556)">
                    <circle cx="204.094" cy="476.22" r="68.031" style="fill:white;stroke:black;stroke-width:2.68px;stroke-linecap:butt;stroke-miterlimit:10;"/>
                </g>
                <g transform="matrix(0.625005,0,0,0.625005,1301.33,-498.596)">
                    <circle cx="204.094" cy="476.22" r="68.031" style="fill:white;stroke:black;stroke-width:2.68px;stroke-linecap:butt;stroke-miterlimit:10;"/>
                </g>
                <g transform="matrix(0.625005,0,0,0.625005,1301.33,-226.47)">
                    <circle cx="204.094" cy="476.22" r="68.031" style="fill:white;stroke:black;stroke-width:2.68px;stroke-linecap:butt;stroke-miterlimit:10;"/>
                </g>
                <g transform="matrix(0.625005,0,0,0.625005,1301.33,45.6556)">
                    <circle cx="204.094" cy="476.22" r="68.031" style="fill:white;stroke:black;stroke-width:2.68px;stroke-linecap:butt;stroke-miterlimit:10;"/>
                </g>
            </g>
        </g>
        <g transform="matrix(0.944882,0,0,0.944882,19.3701,9.33732)">
            <path d="M18.5,20.118L9.5,20.118L9.5,2.118L18.5,20.118Z" style="fill:rgb(255,0,0);fill-rule:nonzero;stroke:rgb(255,0,0);stroke-width:0.79px;stroke-linecap:butt;stroke-miterlimit:10;"/>
        </g>
    </g>
</svg>
