<?xml version="1.0" encoding="UTF-8" standalone="no"?>
<!DOCTYPE svg PUBLIC "-//W3C//DTD SVG 1.1//EN" "http://www.w3.org/Graphics/SVG/1.1/DTD/svg11.dtd">
<svg width="1157px" height="223px" version="1.1" xmlns="http://www.w3.org/2000/svg" xmlns:xlink="http://www.w3.org/1999/xlink" xml:space="preserve" xmlns:serif="http://www.serif.com/" style="fill-rule:evenodd;clip-rule:evenodd;stroke-miterlimit:10;">
    <g transform="matrix(1,0,0,1,-16.8093,-1305.14)">
        <g transform="matrix(1.31576,0,0,1.25984,15.8467,1308.94)">
            <path d="M18.5,20.118L9.5,20.118L9.5,2.118L18.5,20.118Z" style="fill:rgb(255,0,0);fill-rule:nonzero;stroke:rgb(255,0,0);stroke-width:1px;"/>
        </g>
        <g transform="matrix(1,0,0,1,-210.311,-51.0236)">
            <g transform="matrix(3.77358,0,0,1.5,-403.149,697.323)">
                <rect x="170.079" y="459.213" width="300.472" height="120.945" style="fill:none;stroke:rgb(243,0,255);stroke-width:0.8px;"/>
            </g>
            <g transform="matrix(6.38801,0,0,6.38801,-2633.98,-7879.07)">
                <path d="M490.859,1453.98L490.712,1454.89C490.653,1455.23 490.53,1455.76 490.343,1456.5C490.157,1457.24 489.916,1458.09 489.621,1459.06C489.326,1460.04 488.992,1461.08 488.618,1462.2C488.245,1463.32 487.852,1464.44 487.439,1465.57C487.026,1466.68 486.603,1467.77 486.171,1468.81C485.738,1469.85 485.311,1470.77 484.888,1471.58C484.466,1472.39 484.063,1473.03 483.679,1473.51C483.296,1473.99 482.947,1474.24 482.633,1474.26C482.456,1474.26 482.328,1474.21 482.249,1474.1C482.171,1473.99 482.121,1473.87 482.102,1473.72C482.082,1473.57 482.077,1473.41 482.087,1473.25C482.097,1473.08 482.112,1472.94 482.131,1472.82C482.19,1472.44 482.362,1471.88 482.647,1471.14C482.932,1470.39 483.296,1469.54 483.738,1468.59C484.181,1467.63 484.682,1466.61 485.242,1465.51C485.802,1464.4 486.392,1463.3 487.011,1462.2C487.631,1461.1 488.264,1460.05 488.913,1459.03C489.562,1458.02 490.186,1457.13 490.786,1456.35C491.385,1455.57 491.95,1454.95 492.481,1454.49C493.012,1454.03 493.464,1453.79 493.838,1453.77C494.211,1453.75 494.481,1454.01 494.648,1454.55C494.815,1455.09 494.919,1455.78 494.958,1456.62C494.997,1457.45 494.992,1458.38 494.943,1459.39C494.894,1460.4 494.825,1461.38 494.737,1462.32C494.648,1463.27 494.56,1464.12 494.471,1464.87C494.383,1465.63 494.329,1466.16 494.309,1466.48C494.191,1467.99 494.167,1469.53 494.236,1471.09C494.304,1472.66 494.594,1474.11 495.105,1475.44C494.594,1474.11 494.304,1472.66 494.236,1471.09C494.167,1469.53 494.191,1467.99 494.309,1466.48C494.329,1466.16 494.383,1465.63 494.471,1464.87C494.56,1464.12 494.648,1463.27 494.737,1462.32C494.825,1461.38 494.894,1460.4 494.943,1459.39C494.992,1458.38 494.997,1457.45 494.958,1456.62C494.919,1455.78 494.811,1455.09 494.634,1454.55C494.457,1454.01 494.191,1453.75 493.838,1453.77C493.464,1453.79 493.012,1454.03 492.481,1454.49C491.95,1454.95 491.385,1455.57 490.786,1456.35C490.186,1457.13 489.562,1458.02 488.913,1459.03C488.264,1460.05 487.631,1461.1 487.011,1462.2C486.392,1463.3 485.802,1464.4 485.242,1465.51C484.682,1466.61 484.181,1467.63 483.738,1468.59C483.296,1469.54 482.932,1470.39 482.647,1471.14C482.362,1471.88 482.19,1472.44 482.131,1472.82C482.112,1472.94 482.097,1473.08 482.087,1473.25C482.077,1473.41 482.082,1473.57 482.102,1473.72C482.121,1473.87 482.171,1473.99 482.249,1474.1C482.328,1474.21 482.456,1474.26 482.633,1474.26C482.947,1474.24 483.296,1473.99 483.679,1473.51C484.063,1473.03 484.466,1472.39 484.888,1471.58C485.311,1470.77 485.738,1469.85 486.171,1468.81C486.603,1467.77 487.026,1466.68 487.439,1465.57C487.852,1464.44 488.245,1463.32 488.618,1462.2C488.992,1461.08 489.326,1460.04 489.621,1459.06C489.916,1458.09 490.157,1457.24 490.343,1456.5C490.53,1455.76 490.653,1455.23 490.712,1454.89L490.859,1453.98ZM483.753,1465.65C483.792,1465.65 483.822,1465.66 483.841,1465.67C483.861,1465.68 483.891,1465.68 483.93,1465.68C484.264,1465.66 484.819,1465.59 485.596,1465.48C486.372,1465.36 487.267,1465.2 488.279,1465.01C489.292,1464.81 490.358,1464.59 491.479,1464.36C492.599,1464.12 493.651,1463.88 494.634,1463.63C495.617,1463.39 496.477,1463.16 497.214,1462.94C497.951,1462.72 498.447,1462.55 498.703,1462.41C498.447,1462.55 497.951,1462.72 497.214,1462.94C496.477,1463.16 495.612,1463.39 494.619,1463.63C493.626,1463.88 492.574,1464.12 491.464,1464.36C490.353,1464.59 489.292,1464.81 488.279,1465.01C487.267,1465.2 486.372,1465.36 485.596,1465.48C484.819,1465.59 484.264,1465.66 483.93,1465.68C483.891,1465.68 483.861,1465.68 483.841,1465.67C483.822,1465.66 483.792,1465.65 483.753,1465.65Z" style="fill:none;fill-rule:nonzero;stroke:rgb(127,127,127);stroke-width:0.89px;"/>
                <path d="M499.381,1465.39C499.283,1465.57 499.155,1465.9 498.998,1466.4C498.84,1466.91 498.693,1467.43 498.555,1467.98C498.418,1468.53 498.32,1469.05 498.261,1469.55C498.202,1470.04 498.211,1470.37 498.29,1470.55C498.388,1470.35 498.511,1470.06 498.659,1469.68C498.806,1469.3 498.973,1468.88 499.16,1468.42C499.347,1467.97 499.548,1467.51 499.764,1467.04C499.981,1466.57 500.207,1466.14 500.443,1465.76C500.678,1465.37 500.924,1465.05 501.18,1464.8C501.435,1464.54 501.691,1464.41 501.946,1464.41C502.182,1464.39 502.349,1464.51 502.448,1464.77C502.546,1465.02 502.605,1465.34 502.625,1465.71C502.644,1466.09 502.654,1466.5 502.654,1466.95C502.654,1467.4 502.669,1467.82 502.698,1468.19C502.728,1468.56 502.806,1468.88 502.934,1469.13C503.062,1469.39 503.263,1469.51 503.539,1469.49C503.853,1469.47 504.197,1469.35 504.571,1469.13C504.944,1468.92 505.313,1468.66 505.676,1468.35C506.04,1468.05 506.374,1467.73 506.679,1467.39C506.984,1467.06 507.225,1466.76 507.401,1466.51C507.225,1466.76 506.984,1467.06 506.679,1467.39C506.374,1467.73 506.04,1468.05 505.676,1468.35C505.313,1468.66 504.944,1468.92 504.571,1469.13C504.197,1469.35 503.853,1469.47 503.539,1469.49C503.263,1469.49 503.062,1469.36 502.934,1469.12C502.806,1468.87 502.728,1468.56 502.698,1468.19C502.669,1467.82 502.654,1467.4 502.654,1466.95C502.654,1466.5 502.644,1466.09 502.625,1465.71C502.605,1465.34 502.546,1465.02 502.448,1464.77C502.349,1464.51 502.182,1464.39 501.946,1464.41C501.691,1464.41 501.435,1464.54 501.18,1464.8C500.924,1465.05 500.678,1465.37 500.443,1465.76C500.207,1466.14 499.981,1466.57 499.764,1467.04C499.548,1467.51 499.347,1467.97 499.16,1468.42C498.973,1468.88 498.806,1469.3 498.659,1469.68C498.511,1470.06 498.388,1470.35 498.29,1470.55C498.211,1470.37 498.202,1470.04 498.261,1469.55C498.32,1469.05 498.418,1468.53 498.555,1467.98C498.693,1467.43 498.84,1466.91 498.998,1466.4C499.155,1465.9 499.283,1465.57 499.381,1465.39Z" style="fill:none;fill-rule:nonzero;stroke:rgb(127,127,127);stroke-width:0.89px;"/>
                <path d="M513.889,1456.87C513.26,1458.54 512.68,1460.22 512.149,1461.91C511.618,1463.6 511.215,1465.3 510.94,1467.01C510.802,1467.86 510.714,1468.69 510.675,1469.53C510.635,1470.37 510.714,1471.18 510.91,1471.96C510.714,1471.18 510.635,1470.37 510.675,1469.53C510.714,1468.69 510.802,1467.86 510.94,1467.01C511.215,1465.3 511.618,1463.6 512.149,1461.91C512.68,1460.22 513.26,1458.54 513.889,1456.87ZM509.908,1466.95C509.947,1466.77 509.967,1466.55 509.967,1466.29C509.967,1466.02 509.937,1465.77 509.878,1465.52C509.819,1465.28 509.726,1465.07 509.598,1464.9C509.47,1464.73 509.289,1464.65 509.053,1464.65C508.778,1464.67 508.522,1464.8 508.286,1465.05C508.05,1465.3 507.844,1465.59 507.667,1465.93C507.49,1466.28 507.347,1466.62 507.239,1466.96C507.131,1467.31 507.057,1467.59 507.018,1467.81C506.998,1467.94 506.984,1468.1 506.974,1468.28C506.964,1468.45 506.979,1468.62 507.018,1468.76C507.057,1468.91 507.121,1469.04 507.21,1469.15C507.298,1469.26 507.431,1469.31 507.608,1469.31C507.922,1469.29 508.247,1469.12 508.581,1468.81C508.915,1468.49 509.239,1468.09 509.554,1467.6C509.869,1467.11 510.173,1466.56 510.468,1465.95C510.763,1465.34 511.028,1464.75 511.264,1464.18C511.5,1463.61 511.707,1463.08 511.883,1462.6C512.06,1462.12 512.188,1461.75 512.267,1461.5C512.188,1461.75 512.06,1462.12 511.883,1462.6C511.707,1463.08 511.5,1463.61 511.264,1464.18C511.028,1464.75 510.763,1465.34 510.468,1465.95C510.173,1466.56 509.869,1467.11 509.554,1467.6C509.239,1468.09 508.915,1468.5 508.581,1468.82C508.247,1469.15 507.922,1469.31 507.608,1469.31C507.431,1469.31 507.298,1469.26 507.21,1469.15C507.121,1469.04 507.057,1468.91 507.018,1468.76C506.979,1468.62 506.964,1468.45 506.974,1468.28C506.984,1468.1 506.998,1467.94 507.018,1467.81C507.057,1467.59 507.131,1467.31 507.239,1466.96C507.347,1466.62 507.49,1466.28 507.667,1465.93C507.844,1465.59 508.05,1465.3 508.286,1465.05C508.522,1464.8 508.778,1464.67 509.053,1464.65C509.289,1464.65 509.47,1464.73 509.598,1464.9C509.726,1465.07 509.819,1465.28 509.878,1465.52C509.937,1465.77 509.967,1466.02 509.967,1466.29C509.967,1466.55 509.947,1466.77 509.908,1466.95Z" style="fill:none;fill-rule:nonzero;stroke:rgb(127,127,127);stroke-width:0.89px;"/>
                <path d="M513.417,1467.66C513.613,1467.62 513.825,1467.56 514.051,1467.47C514.277,1467.38 514.488,1467.27 514.685,1467.13C514.881,1466.99 515.053,1466.83 515.201,1466.66C515.348,1466.48 515.442,1466.27 515.481,1466.04C515.52,1465.88 515.505,1465.74 515.437,1465.61C515.368,1465.48 515.255,1465.42 515.098,1465.42C514.881,1465.42 514.675,1465.49 514.478,1465.62C514.282,1465.76 514.11,1465.93 513.962,1466.12C513.815,1466.32 513.692,1466.53 513.594,1466.76C513.495,1466.99 513.427,1467.19 513.387,1467.36C513.328,1467.78 513.402,1468.14 513.608,1468.45C513.815,1468.77 514.134,1468.93 514.567,1468.93C514.98,1468.91 515.363,1468.82 515.717,1468.68C516.071,1468.53 516.4,1468.34 516.705,1468.12C517.009,1467.89 517.304,1467.63 517.589,1467.35C517.874,1467.06 518.164,1466.78 518.459,1466.51C518.164,1466.78 517.874,1467.06 517.589,1467.35C517.304,1467.63 517.009,1467.89 516.705,1468.12C516.4,1468.34 516.071,1468.53 515.717,1468.68C515.363,1468.82 514.98,1468.91 514.567,1468.93C514.134,1468.93 513.815,1468.77 513.608,1468.45C513.402,1468.14 513.328,1467.78 513.387,1467.36C513.427,1467.19 513.495,1466.99 513.594,1466.76C513.692,1466.53 513.815,1466.32 513.962,1466.12C514.11,1465.93 514.282,1465.76 514.478,1465.62C514.675,1465.49 514.881,1465.42 515.098,1465.42C515.255,1465.42 515.368,1465.48 515.437,1465.61C515.505,1465.74 515.52,1465.88 515.481,1466.04C515.442,1466.27 515.348,1466.48 515.201,1466.66C515.053,1466.83 514.881,1466.99 514.685,1467.13C514.488,1467.27 514.277,1467.38 514.051,1467.47C513.825,1467.56 513.613,1467.62 513.417,1467.66Z" style="fill:none;fill-rule:nonzero;stroke:rgb(127,127,127);stroke-width:0.89px;"/>
                <path d="M518.783,1464.59C518.744,1464.79 518.71,1464.98 518.68,1465.17C518.651,1465.35 518.616,1465.55 518.577,1465.74C518.439,1466.57 518.331,1467.38 518.253,1468.19C518.174,1469 518.076,1469.81 517.958,1470.64C517.977,1470.48 518.036,1470.22 518.135,1469.87C518.233,1469.52 518.361,1469.13 518.518,1468.7C518.675,1468.28 518.852,1467.85 519.049,1467.41C519.245,1466.96 519.452,1466.56 519.668,1466.18C519.884,1465.81 520.1,1465.51 520.317,1465.27C520.533,1465.03 520.739,1464.92 520.936,1464.92C520.995,1464.92 521.059,1464.95 521.128,1465.03C521.196,1465.11 521.28,1465.2 521.378,1465.3C521.477,1465.4 521.594,1465.49 521.732,1465.57C521.87,1465.64 522.027,1465.68 522.204,1465.68C522.322,1465.68 522.42,1465.65 522.499,1465.59C522.42,1465.65 522.322,1465.68 522.204,1465.68C522.027,1465.68 521.87,1465.64 521.732,1465.57C521.594,1465.49 521.477,1465.4 521.378,1465.3C521.28,1465.2 521.196,1465.11 521.128,1465.03C521.059,1464.95 520.995,1464.92 520.936,1464.92C520.739,1464.92 520.533,1465.03 520.317,1465.27C520.1,1465.51 519.884,1465.81 519.668,1466.18C519.452,1466.56 519.245,1466.96 519.049,1467.41C518.852,1467.85 518.675,1468.28 518.518,1468.7C518.361,1469.13 518.233,1469.52 518.135,1469.87C518.036,1470.22 517.977,1470.48 517.958,1470.64C518.076,1469.81 518.174,1469 518.253,1468.19C518.331,1467.38 518.439,1466.57 518.577,1465.74C518.616,1465.55 518.651,1465.35 518.68,1465.17C518.71,1464.98 518.744,1464.79 518.783,1464.59Z" style="fill:none;fill-rule:nonzero;stroke:rgb(127,127,127);stroke-width:0.89px;"/>
                <path d="M525.241,1464.27C525.044,1464.17 524.838,1464.12 524.622,1464.12C524.229,1464.14 523.929,1464.32 523.722,1464.65C523.516,1464.99 523.393,1465.32 523.354,1465.65C523.275,1466.12 523.344,1466.51 523.56,1466.82C523.776,1467.12 524.017,1467.42 524.283,1467.72C524.548,1468.01 524.779,1468.35 524.976,1468.72C525.172,1469.09 525.221,1469.58 525.123,1470.16C525.084,1470.38 525.02,1470.64 524.931,1470.95C524.843,1471.25 524.725,1471.55 524.578,1471.83C524.43,1472.12 524.248,1472.36 524.032,1472.57C523.816,1472.77 523.56,1472.88 523.265,1472.88C523.069,1472.88 522.931,1472.81 522.853,1472.67C522.774,1472.53 522.754,1472.37 522.794,1472.17C522.872,1471.7 523.157,1471.18 523.649,1470.62C524.14,1470.06 524.71,1469.51 525.359,1468.97C526.008,1468.43 526.666,1467.94 527.335,1467.5C528.003,1467.05 528.544,1466.73 528.956,1466.51C528.544,1466.73 528.003,1467.05 527.335,1467.5C526.666,1467.94 526.008,1468.43 525.359,1468.97C524.71,1469.51 524.14,1470.06 523.649,1470.62C523.157,1471.18 522.872,1471.7 522.794,1472.17C522.754,1472.37 522.774,1472.53 522.853,1472.67C522.931,1472.81 523.069,1472.88 523.265,1472.88C523.56,1472.88 523.816,1472.77 524.032,1472.57C524.248,1472.36 524.43,1472.12 524.578,1471.83C524.725,1471.55 524.843,1471.25 524.931,1470.95C525.02,1470.64 525.084,1470.38 525.123,1470.16C525.221,1469.58 525.172,1469.09 524.976,1468.72C524.779,1468.35 524.548,1468.01 524.283,1467.72C524.017,1467.42 523.776,1467.12 523.56,1466.82C523.344,1466.51 523.275,1466.12 523.354,1465.65C523.393,1465.32 523.516,1464.99 523.722,1464.65C523.929,1464.32 524.229,1464.14 524.622,1464.12C524.838,1464.12 525.044,1464.17 525.241,1464.27Z" style="fill:none;fill-rule:nonzero;stroke:rgb(127,127,127);stroke-width:0.89px;"/>
                <path d="M537.567,1464.27C537.37,1464.17 537.164,1464.12 536.947,1464.12C536.554,1464.14 536.254,1464.32 536.048,1464.65C535.842,1464.99 535.719,1465.32 535.679,1465.65C535.601,1466.12 535.67,1466.51 535.886,1466.82C536.102,1467.12 536.343,1467.42 536.608,1467.72C536.874,1468.01 537.105,1468.35 537.301,1468.72C537.498,1469.09 537.547,1469.58 537.449,1470.16C537.409,1470.38 537.345,1470.64 537.257,1470.95C537.168,1471.25 537.05,1471.55 536.903,1471.83C536.756,1472.12 536.574,1472.36 536.358,1472.57C536.141,1472.77 535.886,1472.88 535.591,1472.88C535.394,1472.88 535.257,1472.81 535.178,1472.67C535.099,1472.53 535.08,1472.37 535.119,1472.17C535.198,1471.7 535.483,1471.18 535.974,1470.62C536.466,1470.06 537.036,1469.51 537.684,1468.97C538.333,1468.43 538.992,1467.94 539.66,1467.5C540.328,1467.05 540.869,1466.73 541.282,1466.51C540.869,1466.73 540.328,1467.05 539.66,1467.5C538.992,1467.94 538.333,1468.43 537.684,1468.97C537.036,1469.51 536.466,1470.06 535.974,1470.62C535.483,1471.18 535.198,1471.7 535.119,1472.17C535.08,1472.37 535.099,1472.53 535.178,1472.67C535.257,1472.81 535.394,1472.88 535.591,1472.88C535.886,1472.88 536.141,1472.77 536.358,1472.57C536.574,1472.36 536.756,1472.12 536.903,1471.83C537.05,1471.55 537.168,1471.25 537.257,1470.95C537.345,1470.64 537.409,1470.38 537.449,1470.16C537.547,1469.58 537.498,1469.09 537.301,1468.72C537.105,1468.35 536.874,1468.01 536.608,1467.72C536.343,1467.42 536.102,1467.12 535.886,1466.82C535.67,1466.51 535.601,1466.12 535.679,1465.65C535.719,1465.32 535.842,1464.99 536.048,1464.65C536.254,1464.32 536.554,1464.14 536.947,1464.12C537.164,1464.12 537.37,1464.17 537.567,1464.27Z" style="fill:none;fill-rule:nonzero;stroke:rgb(127,127,127);stroke-width:0.89px;"/>
                <path d="M540.987,1467.66C541.184,1467.62 541.395,1467.56 541.621,1467.47C541.847,1467.38 542.058,1467.27 542.255,1467.13C542.452,1466.99 542.624,1466.83 542.771,1466.66C542.918,1466.48 543.012,1466.27 543.051,1466.04C543.09,1465.88 543.076,1465.74 543.007,1465.61C542.938,1465.48 542.825,1465.42 542.668,1465.42C542.452,1465.42 542.245,1465.49 542.049,1465.62C541.852,1465.76 541.68,1465.93 541.532,1466.12C541.385,1466.32 541.262,1466.53 541.164,1466.76C541.066,1466.99 540.997,1467.19 540.958,1467.36C540.899,1467.78 540.972,1468.14 541.179,1468.45C541.385,1468.77 541.705,1468.93 542.137,1468.93C542.55,1468.91 542.933,1468.82 543.287,1468.68C543.641,1468.53 543.97,1468.34 544.275,1468.12C544.579,1467.89 544.874,1467.63 545.159,1467.35C545.444,1467.06 545.734,1466.78 546.029,1466.51C545.734,1466.78 545.444,1467.06 545.159,1467.35C544.874,1467.63 544.579,1467.89 544.275,1468.12C543.97,1468.34 543.641,1468.53 543.287,1468.68C542.933,1468.82 542.55,1468.91 542.137,1468.93C541.705,1468.93 541.385,1468.77 541.179,1468.45C540.972,1468.14 540.899,1467.78 540.958,1467.36C540.997,1467.19 541.066,1466.99 541.164,1466.76C541.262,1466.53 541.385,1466.32 541.532,1466.12C541.68,1465.93 541.852,1465.76 542.049,1465.62C542.245,1465.49 542.452,1465.42 542.668,1465.42C542.825,1465.42 542.938,1465.48 543.007,1465.61C543.076,1465.74 543.09,1465.88 543.051,1466.04C543.012,1466.27 542.918,1466.48 542.771,1466.66C542.624,1466.83 542.452,1466.99 542.255,1467.13C542.058,1467.27 541.847,1467.38 541.621,1467.47C541.395,1467.56 541.184,1467.62 540.987,1467.66Z" style="fill:none;fill-rule:nonzero;stroke:rgb(127,127,127);stroke-width:0.89px;"/>
                <path d="M546.206,1465.33C546.147,1465.72 546.083,1466.2 546.015,1466.77C545.946,1467.34 545.941,1467.89 546,1468.41C546.059,1468.93 546.216,1469.37 546.472,1469.72C546.727,1470.08 547.14,1470.24 547.71,1470.22C548.182,1470.2 548.663,1470.07 549.155,1469.81C549.646,1469.56 550.128,1469.24 550.6,1468.87C551.071,1468.49 551.519,1468.1 551.941,1467.67C552.364,1467.25 552.752,1466.86 553.106,1466.51C552.752,1466.86 552.364,1467.25 551.941,1467.67C551.519,1468.1 551.071,1468.49 550.6,1468.87C550.128,1469.24 549.646,1469.56 549.155,1469.81C548.663,1470.07 548.182,1470.2 547.71,1470.22C547.14,1470.24 546.727,1470.08 546.472,1469.72C546.216,1469.37 546.059,1468.93 546,1468.41C545.941,1467.89 545.946,1467.34 546.015,1466.77C546.083,1466.2 546.147,1465.72 546.206,1465.33ZM550.039,1464.53C548.801,1465.95 547.641,1467.39 546.56,1468.87C545.479,1470.34 544.457,1471.82 543.493,1473.29C544.457,1471.82 545.479,1470.34 546.56,1468.87C547.641,1467.39 548.801,1465.95 550.039,1464.53Z" style="fill:none;fill-rule:nonzero;stroke:rgb(127,127,127);stroke-width:0.89px;"/>
                <path d="M556.527,1457.75C555.662,1459.66 554.851,1461.57 554.094,1463.49C553.337,1465.4 552.801,1467.35 552.487,1469.34C552.448,1469.61 552.403,1469.95 552.354,1470.36C552.305,1470.76 552.3,1471.15 552.339,1471.54C552.379,1471.92 552.487,1472.25 552.664,1472.52C552.841,1472.8 553.116,1472.94 553.489,1472.94C553.942,1472.92 554.482,1472.64 555.111,1472.11C555.74,1471.58 556.369,1470.96 556.998,1470.25C557.627,1469.55 558.212,1468.84 558.753,1468.13C559.293,1467.42 559.682,1466.88 559.918,1466.51C559.682,1466.88 559.293,1467.42 558.753,1468.13C558.212,1468.84 557.627,1469.55 556.998,1470.25C556.369,1470.96 555.74,1471.58 555.111,1472.11C554.482,1472.64 553.942,1472.92 553.489,1472.94C553.116,1472.94 552.841,1472.8 552.664,1472.52C552.487,1472.25 552.379,1471.92 552.339,1471.54C552.3,1471.15 552.305,1470.76 552.354,1470.36C552.403,1469.95 552.448,1469.61 552.487,1469.34C552.801,1467.35 553.337,1465.4 554.094,1463.49C554.851,1461.57 555.662,1459.66 556.527,1457.75ZM563.544,1459.76C563.505,1459.74 563.451,1459.73 563.382,1459.73L563.191,1459.73C562.188,1459.77 561.185,1459.85 560.183,1459.98C559.18,1460.11 558.173,1460.24 557.161,1460.38C556.148,1460.51 555.141,1460.64 554.138,1460.76C553.136,1460.88 552.133,1460.95 551.13,1460.99C550.973,1461.01 550.816,1461.02 550.659,1461.01C550.501,1461 550.354,1460.95 550.216,1460.88C550.354,1460.95 550.501,1461 550.659,1461.01C550.816,1461.02 550.973,1461.01 551.13,1460.99C552.133,1460.95 553.136,1460.88 554.138,1460.76C555.141,1460.64 556.148,1460.51 557.161,1460.38C558.173,1460.24 559.18,1460.11 560.183,1459.98C561.185,1459.85 562.188,1459.77 563.191,1459.73L563.382,1459.73C563.451,1459.73 563.505,1459.74 563.544,1459.76Z" style="fill:none;fill-rule:nonzero;stroke:rgb(127,127,127);stroke-width:0.89px;"/>
                <path d="M560.507,1465.18C560.271,1465.69 560.05,1466.2 559.844,1466.7C559.637,1467.2 559.495,1467.71 559.416,1468.22C559.338,1468.63 559.362,1469 559.49,1469.32C559.618,1469.65 559.908,1469.81 560.36,1469.81C560.655,1469.79 561.023,1469.65 561.466,1469.4C561.908,1469.14 562.36,1468.84 562.822,1468.48C563.284,1468.13 563.707,1467.77 564.09,1467.41C564.473,1467.04 564.744,1466.74 564.901,1466.51C564.744,1466.74 564.473,1467.04 564.09,1467.41C563.707,1467.77 563.284,1468.13 562.822,1468.48C562.36,1468.84 561.908,1469.14 561.466,1469.4C561.023,1469.65 560.655,1469.79 560.36,1469.81C559.908,1469.81 559.618,1469.65 559.49,1469.32C559.362,1469 559.338,1468.63 559.416,1468.22C559.495,1467.71 559.637,1467.2 559.844,1466.7C560.05,1466.2 560.271,1465.69 560.507,1465.18ZM560.743,1464.59L560.92,1464.27L560.743,1464.59Z" style="fill:none;fill-rule:nonzero;stroke:rgb(127,127,127);stroke-width:0.89px;"/>
                <path d="M565.903,1465.71C565.53,1465.87 565.21,1466.12 564.945,1466.45C564.68,1466.78 564.518,1467.14 564.459,1467.51C564.439,1467.67 564.434,1467.84 564.444,1468.03C564.454,1468.21 564.488,1468.39 564.547,1468.54C564.606,1468.7 564.694,1468.83 564.812,1468.93C564.93,1469.03 565.078,1469.07 565.255,1469.07C565.491,1469.07 565.697,1469 565.874,1468.85C566.051,1468.7 566.203,1468.53 566.331,1468.32C566.459,1468.12 566.562,1467.9 566.641,1467.67C566.719,1467.45 566.768,1467.25 566.788,1467.07C566.808,1466.93 566.813,1466.78 566.803,1466.61C566.793,1466.44 566.763,1466.29 566.714,1466.15C566.665,1466.02 566.591,1465.9 566.493,1465.8C566.395,1465.7 566.267,1465.65 566.11,1465.65C565.972,1465.65 565.884,1465.72 565.844,1465.86C565.825,1466.06 565.903,1466.23 566.08,1466.39C566.257,1466.55 566.483,1466.67 566.759,1466.77C567.034,1466.87 567.319,1466.95 567.614,1467C567.908,1467.04 568.144,1467.07 568.321,1467.07C568.773,1467.07 569.221,1467.02 569.663,1466.91C570.105,1466.8 570.533,1466.67 570.946,1466.51C570.533,1466.67 570.105,1466.8 569.663,1466.91C569.221,1467.02 568.773,1467.07 568.321,1467.07C568.144,1467.07 567.908,1467.04 567.614,1467C567.319,1466.95 567.034,1466.87 566.759,1466.77C566.483,1466.67 566.257,1466.55 566.08,1466.39C565.903,1466.23 565.825,1466.06 565.844,1465.86C565.884,1465.72 565.972,1465.65 566.11,1465.65C566.267,1465.65 566.395,1465.7 566.493,1465.8C566.591,1465.9 566.665,1466.02 566.714,1466.15C566.763,1466.29 566.793,1466.44 566.803,1466.61C566.813,1466.78 566.808,1466.93 566.788,1467.07C566.768,1467.25 566.719,1467.45 566.641,1467.67C566.562,1467.9 566.459,1468.12 566.331,1468.32C566.203,1468.53 566.051,1468.7 565.874,1468.85C565.697,1469 565.491,1469.07 565.255,1469.07C565.078,1469.07 564.93,1469.03 564.812,1468.93C564.694,1468.83 564.606,1468.7 564.547,1468.54C564.488,1468.39 564.454,1468.21 564.444,1468.03C564.434,1467.84 564.439,1467.67 564.459,1467.51C564.518,1467.14 564.68,1466.78 564.945,1466.45C565.21,1466.12 565.53,1465.87 565.903,1465.71Z" style="fill:none;fill-rule:nonzero;stroke:rgb(127,127,127);stroke-width:0.89px;"/>
                <path d="M580.322,1465.62C580.263,1465.74 580.219,1465.87 580.19,1465.99C580.16,1466.12 580.126,1466.24 580.087,1466.36C580.047,1466.6 580.028,1466.83 580.028,1467.07C580.028,1467.31 580.057,1467.52 580.116,1467.7C580.175,1467.89 580.283,1468.05 580.44,1468.17C580.598,1468.3 580.814,1468.37 581.089,1468.37C581.345,1468.37 581.625,1468.3 581.929,1468.17C582.234,1468.05 582.534,1467.89 582.829,1467.7C583.124,1467.52 583.409,1467.31 583.684,1467.1C583.959,1466.88 584.185,1466.68 584.362,1466.51C584.185,1466.68 583.959,1466.88 583.684,1467.1C583.409,1467.31 583.124,1467.52 582.829,1467.7C582.534,1467.89 582.234,1468.05 581.929,1468.17C581.625,1468.3 581.345,1468.37 581.089,1468.37C580.814,1468.37 580.598,1468.3 580.44,1468.17C580.283,1468.05 580.175,1467.89 580.116,1467.7C580.057,1467.52 580.028,1467.31 580.028,1467.07C580.028,1466.83 580.047,1466.6 580.087,1466.36C580.126,1466.24 580.16,1466.12 580.19,1465.99C580.219,1465.87 580.263,1465.74 580.322,1465.62ZM580.44,1465.42C580.401,1465.26 580.308,1465.14 580.16,1465.06C580.013,1464.99 579.851,1464.95 579.674,1464.95C579.359,1464.96 579.045,1465.1 578.73,1465.36C578.416,1465.61 578.131,1465.92 577.875,1466.29C577.619,1466.65 577.403,1467.03 577.226,1467.42C577.049,1467.82 576.941,1468.15 576.902,1468.42C576.863,1468.58 576.858,1468.78 576.887,1469.03C576.917,1469.28 577.04,1469.4 577.256,1469.4C577.531,1469.4 577.826,1469.24 578.14,1468.91C578.455,1468.59 578.76,1468.21 579.055,1467.78C579.349,1467.34 579.615,1466.91 579.851,1466.48C580.087,1466.05 580.263,1465.71 580.381,1465.48C580.263,1465.71 580.087,1466.05 579.851,1466.48C579.615,1466.91 579.349,1467.34 579.055,1467.78C578.76,1468.21 578.455,1468.59 578.14,1468.91C577.826,1469.24 577.531,1469.4 577.256,1469.4C577.04,1469.4 576.917,1469.28 576.887,1469.03C576.858,1468.78 576.863,1468.58 576.902,1468.42C576.941,1468.15 577.049,1467.82 577.226,1467.42C577.403,1467.03 577.619,1466.65 577.875,1466.29C578.131,1465.92 578.416,1465.61 578.73,1465.36C579.045,1465.1 579.359,1464.96 579.674,1464.95C579.851,1464.95 580.013,1464.99 580.16,1465.06C580.308,1465.14 580.401,1465.26 580.44,1465.42ZM579.556,1460.99C579.261,1461.01 579.035,1461.14 578.878,1461.36C578.72,1461.59 578.622,1461.84 578.583,1462.12C578.524,1462.41 578.553,1462.68 578.671,1462.93C578.789,1463.17 579.015,1463.29 579.349,1463.29C579.723,1463.28 580.028,1463.14 580.263,1462.88C580.499,1462.63 580.637,1462.35 580.676,1462.06C580.735,1461.72 580.671,1461.45 580.485,1461.25C580.298,1461.04 580.057,1460.94 579.762,1460.96C580.057,1460.94 580.298,1461.04 580.485,1461.25C580.671,1461.45 580.735,1461.72 580.676,1462.06C580.637,1462.35 580.499,1462.63 580.263,1462.88C580.028,1463.14 579.723,1463.28 579.349,1463.29C579.015,1463.29 578.789,1463.17 578.671,1462.93C578.553,1462.68 578.524,1462.41 578.583,1462.12C578.622,1461.84 578.72,1461.59 578.878,1461.36C579.035,1461.14 579.261,1461.01 579.556,1460.99Z" style="fill:none;fill-rule:nonzero;stroke:rgb(127,127,127);stroke-width:0.89px;"/>
                <path d="M584.687,1464.59C584.647,1464.79 584.613,1464.98 584.583,1465.17C584.554,1465.35 584.519,1465.55 584.48,1465.74C584.342,1466.57 584.234,1467.38 584.156,1468.19C584.077,1469 583.979,1469.81 583.861,1470.64C583.881,1470.48 583.94,1470.22 584.038,1469.87C584.136,1469.52 584.264,1469.13 584.421,1468.7C584.578,1468.28 584.755,1467.85 584.952,1467.41C585.148,1466.96 585.355,1466.56 585.571,1466.18C585.787,1465.81 586.004,1465.51 586.22,1465.27C586.436,1465.03 586.642,1464.92 586.839,1464.92C586.898,1464.92 586.962,1464.95 587.031,1465.03C587.1,1465.11 587.183,1465.2 587.281,1465.3C587.38,1465.4 587.498,1465.49 587.635,1465.57C587.773,1465.64 587.93,1465.68 588.107,1465.68C588.225,1465.68 588.323,1465.65 588.402,1465.59C588.323,1465.65 588.225,1465.68 588.107,1465.68C587.93,1465.68 587.773,1465.64 587.635,1465.57C587.498,1465.49 587.38,1465.4 587.281,1465.3C587.183,1465.2 587.1,1465.11 587.031,1465.03C586.962,1464.95 586.898,1464.92 586.839,1464.92C586.642,1464.92 586.436,1465.03 586.22,1465.27C586.004,1465.51 585.787,1465.81 585.571,1466.18C585.355,1466.56 585.148,1466.96 584.952,1467.41C584.755,1467.85 584.578,1468.28 584.421,1468.7C584.264,1469.13 584.136,1469.52 584.038,1469.87C583.94,1470.22 583.881,1470.48 583.861,1470.64C583.979,1469.81 584.077,1469 584.156,1468.19C584.234,1467.38 584.342,1466.57 584.48,1465.74C584.519,1465.55 584.554,1465.35 584.583,1465.17C584.613,1464.98 584.647,1464.79 584.687,1464.59Z" style="fill:none;fill-rule:nonzero;stroke:rgb(127,127,127);stroke-width:0.89px;"/>
                <path d="M591.586,1467.42C591.567,1467.5 591.557,1467.59 591.557,1467.69C591.557,1467.79 591.547,1467.86 591.527,1467.89C591.547,1467.86 591.557,1467.79 591.557,1467.69C591.557,1467.59 591.567,1467.5 591.586,1467.42ZM594.8,1454.12C594.663,1454.44 594.501,1454.88 594.314,1455.45C594.127,1456.02 593.936,1456.66 593.739,1457.38C593.542,1458.1 593.346,1458.87 593.149,1459.7C592.953,1460.52 592.761,1461.34 592.574,1462.16C592.387,1462.98 592.215,1463.76 592.058,1464.52C591.901,1465.28 591.763,1465.96 591.645,1466.57C591.763,1465.96 591.901,1465.28 592.058,1464.52C592.215,1463.76 592.387,1462.98 592.574,1462.16C592.761,1461.34 592.953,1460.52 593.149,1459.7C593.346,1458.87 593.542,1458.1 593.739,1457.38C593.936,1456.66 594.127,1456.02 594.314,1455.45C594.501,1454.88 594.663,1454.44 594.8,1454.12Z" style="fill:none;fill-rule:nonzero;stroke:rgb(127,127,127);stroke-width:0.89px;"/>
            </g>
        </g>
        <g transform="matrix(0.992584,0,0,0.950399,-29.6191,1316.91)">
            <g transform="matrix(25,0,0,25,88.0251,75.8247)">
            </g>
            <text x="75.525px" y="75.825px" style="font-family:'ArialMT', 'Arial', sans-serif;font-size:25px;fill:rgb(0,104,255);">J</text>
        </g>
    </g>
</svg>
