<?xml version="1.0" encoding="UTF-8" standalone="no"?>
<!DOCTYPE svg PUBLIC "-//W3C//DTD SVG 1.1//EN" "http://www.w3.org/Graphics/SVG/1.1/DTD/svg11.dtd">
<svg width="1107px" height="131px" version="1.1" xmlns="http://www.w3.org/2000/svg" xmlns:xlink="http://www.w3.org/1999/xlink" xml:space="preserve" xmlns:serif="http://www.serif.com/" style="fill-rule:evenodd;clip-rule:evenodd;stroke-miterlimit:10;">
    <g transform="matrix(1,0,0,1,-17.8621,-1447.01)">
        <g transform="matrix(1,0,0,1,8.7752e-13,858.066)">
            <g>
                <g transform="matrix(1.25984,0,0,1.25984,16.378,592.607)">
                    <path d="M18.5,20.118L9.5,20.118L9.5,2.118L18.5,20.118Z" style="fill:rgb(255,0,0);fill-rule:nonzero;stroke:rgb(255,0,0);stroke-width:1px;"/>
                </g>
                <g transform="matrix(3.61321,0,0,0.75,-586.183,273.543)">
                    <rect x="170.079" y="459.213" width="300.472" height="120.945" style="fill:none;stroke:rgb(127,127,127);stroke-width:0.8px;"/>
                </g>
            </g>
        </g>
        <g transform="matrix(6.7727,0,0,6.7727,-3199.81,-8416.4)">
            <path d="M486.339,1461.7L486.264,1462.16C486.234,1462.33 486.172,1462.61 486.077,1462.98C485.982,1463.36 485.859,1463.79 485.709,1464.29C485.559,1464.78 485.389,1465.31 485.199,1465.88C485.009,1466.45 484.809,1467.02 484.599,1467.59C484.389,1468.16 484.174,1468.71 483.954,1469.24C483.734,1469.77 483.517,1470.24 483.302,1470.65C483.087,1471.06 482.882,1471.39 482.687,1471.63C482.492,1471.88 482.314,1472.01 482.154,1472.02C482.064,1472.02 481.999,1471.99 481.959,1471.93C481.919,1471.88 481.894,1471.82 481.884,1471.74C481.874,1471.66 481.872,1471.59 481.877,1471.5C481.882,1471.41 481.889,1471.34 481.899,1471.28C481.929,1471.09 482.017,1470.81 482.162,1470.43C482.307,1470.05 482.492,1469.62 482.717,1469.13C482.942,1468.64 483.197,1468.12 483.482,1467.56C483.767,1467 484.067,1466.44 484.382,1465.88C484.697,1465.32 485.019,1464.79 485.349,1464.27C485.679,1463.76 485.997,1463.3 486.302,1462.9C486.607,1462.51 486.894,1462.19 487.164,1461.96C487.434,1461.73 487.664,1461.6 487.854,1461.59C488.044,1461.58 488.182,1461.71 488.267,1461.99C488.352,1462.27 488.404,1462.62 488.424,1463.04C488.444,1463.46 488.442,1463.93 488.417,1464.45C488.392,1464.96 488.357,1465.46 488.312,1465.94C488.267,1466.42 488.222,1466.86 488.177,1467.24C488.132,1467.62 488.104,1467.9 488.094,1468.06C488.034,1468.83 488.022,1469.61 488.057,1470.4C488.092,1471.2 488.239,1471.94 488.499,1472.62C488.239,1471.94 488.092,1471.2 488.057,1470.4C488.022,1469.61 488.034,1468.83 488.094,1468.06C488.104,1467.9 488.132,1467.62 488.177,1467.24C488.222,1466.86 488.267,1466.42 488.312,1465.94C488.357,1465.46 488.392,1464.96 488.417,1464.45C488.442,1463.93 488.444,1463.46 488.424,1463.04C488.404,1462.62 488.349,1462.27 488.259,1461.99C488.169,1461.71 488.034,1461.58 487.854,1461.59C487.664,1461.6 487.434,1461.73 487.164,1461.96C486.894,1462.19 486.607,1462.51 486.302,1462.9C485.997,1463.3 485.679,1463.76 485.349,1464.27C485.019,1464.79 484.697,1465.32 484.382,1465.88C484.067,1466.44 483.767,1467 483.482,1467.56C483.197,1468.12 482.942,1468.64 482.717,1469.13C482.492,1469.62 482.307,1470.05 482.162,1470.43C482.017,1470.81 481.929,1471.09 481.899,1471.28C481.889,1471.34 481.882,1471.41 481.877,1471.5C481.872,1471.59 481.874,1471.66 481.884,1471.74C481.894,1471.82 481.919,1471.88 481.959,1471.93C481.999,1471.99 482.064,1472.02 482.154,1472.02C482.314,1472.01 482.492,1471.88 482.687,1471.63C482.882,1471.39 483.087,1471.06 483.302,1470.65C483.517,1470.24 483.734,1469.77 483.954,1469.24C484.174,1468.71 484.389,1468.16 484.599,1467.59C484.809,1467.02 485.009,1466.45 485.199,1465.88C485.389,1465.31 485.559,1464.78 485.709,1464.29C485.859,1463.79 485.982,1463.36 486.077,1462.98C486.172,1462.61 486.234,1462.33 486.264,1462.16L486.339,1461.7ZM482.724,1467.64C482.744,1467.64 482.759,1467.64 482.769,1467.64C482.779,1467.65 482.794,1467.65 482.814,1467.65C482.984,1467.64 483.267,1467.61 483.662,1467.55C484.057,1467.49 484.512,1467.41 485.027,1467.31C485.542,1467.21 486.084,1467.1 486.654,1466.98C487.224,1466.86 487.759,1466.74 488.259,1466.61C488.759,1466.49 489.197,1466.37 489.572,1466.26C489.947,1466.15 490.199,1466.06 490.329,1465.99C490.199,1466.06 489.947,1466.15 489.572,1466.26C489.197,1466.37 488.757,1466.49 488.252,1466.61C487.747,1466.74 487.212,1466.86 486.647,1466.98C486.082,1467.1 485.542,1467.21 485.027,1467.31C484.512,1467.41 484.057,1467.49 483.662,1467.55C483.267,1467.61 482.984,1467.64 482.814,1467.65C482.794,1467.65 482.779,1467.65 482.769,1467.64C482.759,1467.64 482.744,1467.64 482.724,1467.64Z" style="fill:none;fill-rule:nonzero;stroke:rgb(127,127,127);stroke-width:0.04px;"/>
        </g>
        <g transform="matrix(6.7727,0,0,6.7727,-3199.81,-8416.4)">
            <path d="M490.674,1467.5C490.624,1467.59 490.559,1467.77 490.479,1468.02C490.399,1468.28 490.324,1468.54 490.254,1468.82C490.184,1469.1 490.134,1469.37 490.104,1469.62C490.074,1469.87 490.079,1470.04 490.119,1470.13C490.169,1470.03 490.232,1469.88 490.307,1469.68C490.382,1469.49 490.467,1469.28 490.562,1469.05C490.657,1468.82 490.759,1468.58 490.869,1468.34C490.979,1468.1 491.094,1467.88 491.214,1467.69C491.334,1467.5 491.459,1467.33 491.589,1467.2C491.719,1467.07 491.849,1467.01 491.979,1467.01C492.099,1467 492.184,1467.06 492.234,1467.19C492.284,1467.32 492.314,1467.48 492.324,1467.67C492.334,1467.86 492.339,1468.07 492.339,1468.3C492.339,1468.53 492.347,1468.74 492.362,1468.93C492.377,1469.12 492.417,1469.28 492.482,1469.41C492.547,1469.54 492.649,1469.6 492.789,1469.59C492.949,1469.58 493.124,1469.52 493.314,1469.41C493.504,1469.3 493.692,1469.16 493.877,1469.01C494.062,1468.86 494.232,1468.69 494.387,1468.52C494.542,1468.35 494.664,1468.2 494.754,1468.07C494.664,1468.2 494.542,1468.35 494.387,1468.52C494.232,1468.69 494.062,1468.86 493.877,1469.01C493.692,1469.16 493.504,1469.3 493.314,1469.41C493.124,1469.52 492.949,1469.58 492.789,1469.59C492.649,1469.59 492.547,1469.53 492.482,1469.4C492.417,1469.28 492.377,1469.12 492.362,1468.93C492.347,1468.74 492.339,1468.53 492.339,1468.3C492.339,1468.07 492.334,1467.86 492.324,1467.67C492.314,1467.48 492.284,1467.32 492.234,1467.19C492.184,1467.06 492.099,1467 491.979,1467.01C491.849,1467.01 491.719,1467.07 491.589,1467.2C491.459,1467.33 491.334,1467.5 491.214,1467.69C491.094,1467.88 490.979,1468.1 490.869,1468.34C490.759,1468.58 490.657,1468.82 490.562,1469.05C490.467,1469.28 490.382,1469.49 490.307,1469.68C490.232,1469.88 490.169,1470.03 490.119,1470.13C490.079,1470.04 490.074,1469.87 490.104,1469.62C490.134,1469.37 490.184,1469.1 490.254,1468.82C490.324,1468.54 490.399,1468.28 490.479,1468.02C490.559,1467.77 490.624,1467.59 490.674,1467.5Z" style="fill:none;fill-rule:nonzero;stroke:rgb(127,127,127);stroke-width:0.02px;"/>
        </g>
        <g transform="matrix(6.7727,0,0,6.7727,-3199.81,-8416.4)">
            <path d="M498.054,1463.17C497.734,1464.02 497.439,1464.87 497.169,1465.73C496.899,1466.59 496.694,1467.46 496.554,1468.33C496.484,1468.76 496.439,1469.18 496.419,1469.61C496.399,1470.04 496.439,1470.45 496.539,1470.85C496.439,1470.45 496.399,1470.04 496.419,1469.61C496.439,1469.18 496.484,1468.76 496.554,1468.33C496.694,1467.46 496.899,1466.59 497.169,1465.73C497.439,1464.87 497.734,1464.02 498.054,1463.17ZM496.029,1468.3C496.049,1468.21 496.059,1468.1 496.059,1467.96C496.059,1467.83 496.044,1467.69 496.014,1467.57C495.984,1467.44 495.937,1467.34 495.872,1467.26C495.807,1467.17 495.714,1467.13 495.594,1467.13C495.454,1467.14 495.324,1467.2 495.204,1467.33C495.084,1467.45 494.979,1467.61 494.889,1467.78C494.799,1467.95 494.727,1468.13 494.672,1468.31C494.617,1468.48 494.579,1468.62 494.559,1468.73C494.549,1468.8 494.542,1468.88 494.537,1468.97C494.532,1469.06 494.539,1469.14 494.559,1469.22C494.579,1469.3 494.612,1469.36 494.657,1469.41C494.702,1469.47 494.769,1469.5 494.859,1469.5C495.019,1469.49 495.184,1469.4 495.354,1469.24C495.524,1469.08 495.689,1468.88 495.849,1468.63C496.009,1468.38 496.164,1468.1 496.314,1467.79C496.464,1467.48 496.599,1467.18 496.719,1466.89C496.839,1466.6 496.944,1466.33 497.034,1466.09C497.124,1465.84 497.189,1465.65 497.229,1465.52C497.189,1465.65 497.124,1465.84 497.034,1466.09C496.944,1466.33 496.839,1466.6 496.719,1466.89C496.599,1467.18 496.464,1467.48 496.314,1467.79C496.164,1468.1 496.009,1468.38 495.849,1468.63C495.689,1468.88 495.524,1469.09 495.354,1469.25C495.184,1469.41 495.019,1469.5 494.859,1469.5C494.769,1469.5 494.702,1469.47 494.657,1469.41C494.612,1469.36 494.579,1469.3 494.559,1469.22C494.539,1469.14 494.532,1469.06 494.537,1468.97C494.542,1468.88 494.549,1468.8 494.559,1468.73C494.579,1468.62 494.617,1468.48 494.672,1468.31C494.727,1468.13 494.799,1467.95 494.889,1467.78C494.979,1467.61 495.084,1467.45 495.204,1467.33C495.324,1467.2 495.454,1467.14 495.594,1467.13C495.714,1467.13 495.807,1467.17 495.872,1467.26C495.937,1467.34 495.984,1467.44 496.014,1467.57C496.044,1467.69 496.059,1467.83 496.059,1467.96C496.059,1468.1 496.049,1468.21 496.029,1468.3Z" style="fill:none;fill-rule:nonzero;stroke:rgb(127,127,127);stroke-width:0.02px;"/>
        </g>
        <g transform="matrix(6.7727,0,0,6.7727,-3199.81,-8416.4)">
            <path d="M497.814,1468.66C497.914,1468.64 498.022,1468.61 498.137,1468.56C498.252,1468.52 498.359,1468.46 498.459,1468.39C498.559,1468.32 498.647,1468.24 498.722,1468.15C498.797,1468.06 498.844,1467.95 498.864,1467.83C498.884,1467.75 498.877,1467.68 498.842,1467.62C498.807,1467.55 498.749,1467.52 498.669,1467.52C498.559,1467.52 498.454,1467.55 498.354,1467.62C498.254,1467.69 498.167,1467.78 498.092,1467.88C498.017,1467.98 497.954,1468.09 497.904,1468.2C497.854,1468.32 497.819,1468.42 497.799,1468.51C497.769,1468.72 497.807,1468.9 497.912,1469.06C498.017,1469.22 498.179,1469.3 498.399,1469.3C498.609,1469.29 498.804,1469.25 498.984,1469.17C499.164,1469.1 499.332,1469.01 499.487,1468.89C499.642,1468.78 499.792,1468.64 499.937,1468.5C500.082,1468.36 500.229,1468.21 500.379,1468.07C500.229,1468.21 500.082,1468.36 499.937,1468.5C499.792,1468.64 499.642,1468.78 499.487,1468.89C499.332,1469.01 499.164,1469.1 498.984,1469.17C498.804,1469.25 498.609,1469.29 498.399,1469.3C498.179,1469.3 498.017,1469.22 497.912,1469.06C497.807,1468.9 497.769,1468.72 497.799,1468.51C497.819,1468.42 497.854,1468.32 497.904,1468.2C497.954,1468.09 498.017,1467.98 498.092,1467.88C498.167,1467.78 498.254,1467.69 498.354,1467.62C498.454,1467.55 498.559,1467.52 498.669,1467.52C498.749,1467.52 498.807,1467.55 498.842,1467.62C498.877,1467.68 498.884,1467.75 498.864,1467.83C498.844,1467.95 498.797,1468.06 498.722,1468.15C498.647,1468.24 498.559,1468.32 498.459,1468.39C498.359,1468.46 498.252,1468.52 498.137,1468.56C498.022,1468.61 497.914,1468.64 497.814,1468.66Z" style="fill:none;fill-rule:nonzero;stroke:rgb(127,127,127);stroke-width:0.01px;"/>
        </g>
        <g transform="matrix(6.7727,0,0,6.7727,-3199.81,-8416.4)">
            <path d="M500.544,1467.1C500.524,1467.2 500.507,1467.3 500.492,1467.39C500.477,1467.49 500.459,1467.58 500.439,1467.68C500.369,1468.1 500.314,1468.52 500.274,1468.93C500.234,1469.34 500.184,1469.75 500.124,1470.17C500.134,1470.09 500.164,1469.96 500.214,1469.78C500.264,1469.6 500.329,1469.4 500.409,1469.19C500.489,1468.98 500.579,1468.76 500.679,1468.53C500.779,1468.31 500.884,1468.1 500.994,1467.91C501.104,1467.72 501.214,1467.56 501.324,1467.44C501.434,1467.32 501.539,1467.26 501.639,1467.26C501.669,1467.26 501.702,1467.28 501.737,1467.32C501.772,1467.36 501.814,1467.41 501.864,1467.46C501.914,1467.51 501.974,1467.55 502.044,1467.59C502.114,1467.63 502.194,1467.65 502.284,1467.65C502.344,1467.65 502.394,1467.64 502.434,1467.61C502.394,1467.64 502.344,1467.65 502.284,1467.65C502.194,1467.65 502.114,1467.63 502.044,1467.59C501.974,1467.55 501.914,1467.51 501.864,1467.46C501.814,1467.41 501.772,1467.36 501.737,1467.32C501.702,1467.28 501.669,1467.26 501.639,1467.26C501.539,1467.26 501.434,1467.32 501.324,1467.44C501.214,1467.56 501.104,1467.72 500.994,1467.91C500.884,1468.1 500.779,1468.31 500.679,1468.53C500.579,1468.76 500.489,1468.98 500.409,1469.19C500.329,1469.4 500.264,1469.6 500.214,1469.78C500.164,1469.96 500.134,1470.09 500.124,1470.17C500.184,1469.75 500.234,1469.34 500.274,1468.93C500.314,1468.52 500.369,1468.1 500.439,1467.68C500.459,1467.58 500.477,1467.49 500.492,1467.39C500.507,1467.3 500.524,1467.2 500.544,1467.1Z" style="fill:none;fill-rule:nonzero;stroke:rgb(127,127,127);stroke-width:0.01px;"/>
        </g>
        <g transform="matrix(6.7727,0,0,6.7727,-3199.81,-8416.4)">
            <path d="M503.829,1466.93C503.729,1466.88 503.624,1466.86 503.514,1466.86C503.314,1466.87 503.162,1466.96 503.057,1467.13C502.952,1467.3 502.889,1467.47 502.869,1467.64C502.829,1467.88 502.864,1468.08 502.974,1468.23C503.084,1468.38 503.207,1468.54 503.342,1468.69C503.477,1468.84 503.594,1469.01 503.694,1469.2C503.794,1469.39 503.819,1469.63 503.769,1469.93C503.749,1470.04 503.717,1470.17 503.672,1470.33C503.627,1470.49 503.567,1470.63 503.492,1470.78C503.417,1470.92 503.324,1471.05 503.214,1471.15C503.104,1471.26 502.974,1471.31 502.824,1471.31C502.724,1471.31 502.654,1471.28 502.614,1471.21C502.574,1471.14 502.564,1471.05 502.584,1470.95C502.624,1470.71 502.769,1470.45 503.019,1470.16C503.269,1469.88 503.559,1469.6 503.889,1469.33C504.219,1469.05 504.554,1468.8 504.894,1468.58C505.234,1468.35 505.509,1468.18 505.719,1468.07C505.509,1468.18 505.234,1468.35 504.894,1468.58C504.554,1468.8 504.219,1469.05 503.889,1469.33C503.559,1469.6 503.269,1469.88 503.019,1470.16C502.769,1470.45 502.624,1470.71 502.584,1470.95C502.564,1471.05 502.574,1471.14 502.614,1471.21C502.654,1471.28 502.724,1471.31 502.824,1471.31C502.974,1471.31 503.104,1471.26 503.214,1471.15C503.324,1471.05 503.417,1470.92 503.492,1470.78C503.567,1470.63 503.627,1470.49 503.672,1470.33C503.717,1470.17 503.749,1470.04 503.769,1469.93C503.819,1469.63 503.794,1469.39 503.694,1469.2C503.594,1469.01 503.477,1468.84 503.342,1468.69C503.207,1468.54 503.084,1468.38 502.974,1468.23C502.864,1468.08 502.829,1467.88 502.869,1467.64C502.889,1467.47 502.952,1467.3 503.057,1467.13C503.162,1466.96 503.314,1466.87 503.514,1466.86C503.624,1466.86 503.729,1466.88 503.829,1466.93Z" style="fill:none;fill-rule:nonzero;stroke:rgb(127,127,127);stroke-width:0.02px;"/>
        </g>
        <g transform="matrix(6.7727,0,0,6.7727,-3199.81,-8416.4)">
            <path d="M510.099,1466.93C509.999,1466.88 509.894,1466.86 509.784,1466.86C509.584,1466.87 509.432,1466.96 509.327,1467.13C509.222,1467.3 509.159,1467.47 509.139,1467.64C509.099,1467.88 509.134,1468.08 509.244,1468.23C509.354,1468.38 509.477,1468.54 509.612,1468.69C509.747,1468.84 509.864,1469.01 509.964,1469.2C510.064,1469.39 510.089,1469.63 510.039,1469.93C510.019,1470.04 509.987,1470.17 509.942,1470.33C509.897,1470.49 509.837,1470.63 509.762,1470.78C509.687,1470.92 509.594,1471.05 509.484,1471.15C509.374,1471.26 509.244,1471.31 509.094,1471.31C508.994,1471.31 508.924,1471.28 508.884,1471.21C508.844,1471.14 508.834,1471.05 508.854,1470.95C508.894,1470.71 509.039,1470.45 509.289,1470.16C509.539,1469.88 509.829,1469.6 510.159,1469.33C510.489,1469.05 510.824,1468.8 511.164,1468.58C511.504,1468.35 511.779,1468.18 511.989,1468.07C511.779,1468.18 511.504,1468.35 511.164,1468.58C510.824,1468.8 510.489,1469.05 510.159,1469.33C509.829,1469.6 509.539,1469.88 509.289,1470.16C509.039,1470.45 508.894,1470.71 508.854,1470.95C508.834,1471.05 508.844,1471.14 508.884,1471.21C508.924,1471.28 508.994,1471.31 509.094,1471.31C509.244,1471.31 509.374,1471.26 509.484,1471.15C509.594,1471.05 509.687,1470.92 509.762,1470.78C509.837,1470.63 509.897,1470.49 509.942,1470.33C509.987,1470.17 510.019,1470.04 510.039,1469.93C510.089,1469.63 510.064,1469.39 509.964,1469.2C509.864,1469.01 509.747,1468.84 509.612,1468.69C509.477,1468.54 509.354,1468.38 509.244,1468.23C509.134,1468.08 509.099,1467.88 509.139,1467.64C509.159,1467.47 509.222,1467.3 509.327,1467.13C509.432,1466.96 509.584,1466.87 509.784,1466.86C509.894,1466.86 509.999,1466.88 510.099,1466.93Z" style="fill:none;fill-rule:nonzero;stroke:rgb(127,127,127);stroke-width:0.02px;"/>
        </g>
        <g transform="matrix(6.7727,0,0,6.7727,-3199.81,-8416.4)">
            <path d="M511.839,1468.66C511.939,1468.64 512.047,1468.61 512.162,1468.56C512.277,1468.52 512.384,1468.46 512.484,1468.39C512.584,1468.32 512.672,1468.24 512.747,1468.15C512.822,1468.06 512.869,1467.95 512.889,1467.83C512.909,1467.75 512.902,1467.68 512.867,1467.62C512.832,1467.55 512.774,1467.52 512.694,1467.52C512.584,1467.52 512.479,1467.55 512.379,1467.62C512.279,1467.69 512.192,1467.78 512.117,1467.88C512.042,1467.98 511.979,1468.09 511.929,1468.2C511.879,1468.32 511.844,1468.42 511.824,1468.51C511.794,1468.72 511.832,1468.9 511.937,1469.06C512.042,1469.22 512.204,1469.3 512.424,1469.3C512.634,1469.29 512.829,1469.25 513.009,1469.17C513.189,1469.1 513.357,1469.01 513.512,1468.89C513.667,1468.78 513.817,1468.64 513.962,1468.5C514.107,1468.36 514.254,1468.21 514.404,1468.07C514.254,1468.21 514.107,1468.36 513.962,1468.5C513.817,1468.64 513.667,1468.78 513.512,1468.89C513.357,1469.01 513.189,1469.1 513.009,1469.17C512.829,1469.25 512.634,1469.29 512.424,1469.3C512.204,1469.3 512.042,1469.22 511.937,1469.06C511.832,1468.9 511.794,1468.72 511.824,1468.51C511.844,1468.42 511.879,1468.32 511.929,1468.2C511.979,1468.09 512.042,1467.98 512.117,1467.88C512.192,1467.78 512.279,1467.69 512.379,1467.62C512.479,1467.55 512.584,1467.52 512.694,1467.52C512.774,1467.52 512.832,1467.55 512.867,1467.62C512.902,1467.68 512.909,1467.75 512.889,1467.83C512.869,1467.95 512.822,1468.06 512.747,1468.15C512.672,1468.24 512.584,1468.32 512.484,1468.39C512.384,1468.46 512.277,1468.52 512.162,1468.56C512.047,1468.61 511.939,1468.64 511.839,1468.66Z" style="fill:none;fill-rule:nonzero;stroke:rgb(127,127,127);stroke-width:0.01px;"/>
        </g>
        <g transform="matrix(6.7727,0,0,6.7727,-3199.81,-8416.4)">
            <path d="M514.494,1467.47C514.464,1467.67 514.432,1467.92 514.397,1468.21C514.362,1468.5 514.359,1468.78 514.389,1469.04C514.419,1469.31 514.499,1469.53 514.629,1469.71C514.759,1469.89 514.969,1469.97 515.259,1469.96C515.499,1469.95 515.744,1469.88 515.994,1469.75C516.244,1469.62 516.489,1469.46 516.729,1469.27C516.969,1469.08 517.197,1468.88 517.412,1468.66C517.627,1468.45 517.824,1468.25 518.004,1468.07C517.824,1468.25 517.627,1468.45 517.412,1468.66C517.197,1468.88 516.969,1469.08 516.729,1469.27C516.489,1469.46 516.244,1469.62 515.994,1469.75C515.744,1469.88 515.499,1469.95 515.259,1469.96C514.969,1469.97 514.759,1469.89 514.629,1469.71C514.499,1469.53 514.419,1469.31 514.389,1469.04C514.359,1468.78 514.362,1468.5 514.397,1468.21C514.432,1467.92 514.464,1467.67 514.494,1467.47ZM516.444,1467.07C515.814,1467.79 515.224,1468.52 514.674,1469.27C514.124,1470.02 513.604,1470.77 513.114,1471.52C513.604,1470.77 514.124,1470.02 514.674,1469.27C515.224,1468.52 515.814,1467.79 516.444,1467.07Z" style="fill:none;fill-rule:nonzero;stroke:rgb(127,127,127);stroke-width:0.02px;"/>
        </g>
        <g transform="matrix(6.7727,0,0,6.7727,-3199.81,-8416.4)">
            <path d="M519.744,1463.62C519.304,1464.59 518.892,1465.56 518.507,1466.54C518.122,1467.51 517.849,1468.5 517.689,1469.51C517.669,1469.65 517.647,1469.83 517.622,1470.03C517.597,1470.24 517.594,1470.43 517.614,1470.63C517.634,1470.83 517.689,1470.99 517.779,1471.13C517.869,1471.27 518.009,1471.34 518.199,1471.34C518.429,1471.33 518.704,1471.19 519.024,1470.92C519.344,1470.65 519.664,1470.34 519.984,1469.98C520.304,1469.62 520.602,1469.26 520.877,1468.9C521.152,1468.54 521.349,1468.26 521.469,1468.07C521.349,1468.26 521.152,1468.54 520.877,1468.9C520.602,1469.26 520.304,1469.62 519.984,1469.98C519.664,1470.34 519.344,1470.65 519.024,1470.92C518.704,1471.19 518.429,1471.33 518.199,1471.34C518.009,1471.34 517.869,1471.27 517.779,1471.13C517.689,1470.99 517.634,1470.83 517.614,1470.63C517.594,1470.43 517.597,1470.24 517.622,1470.03C517.647,1469.83 517.669,1469.65 517.689,1469.51C517.849,1468.5 518.122,1467.51 518.507,1466.54C518.892,1465.56 519.304,1464.59 519.744,1463.62ZM523.314,1464.64C523.294,1464.63 523.267,1464.62 523.232,1464.62L523.134,1464.62C522.624,1464.64 522.114,1464.68 521.604,1464.75C521.094,1464.82 520.582,1464.88 520.067,1464.95C519.552,1465.02 519.039,1465.09 518.529,1465.15C518.019,1465.21 517.509,1465.25 516.999,1465.27C516.919,1465.28 516.839,1465.28 516.759,1465.28C516.679,1465.27 516.604,1465.25 516.534,1465.21C516.604,1465.25 516.679,1465.27 516.759,1465.28C516.839,1465.28 516.919,1465.28 516.999,1465.27C517.509,1465.25 518.019,1465.21 518.529,1465.15C519.039,1465.09 519.552,1465.02 520.067,1464.95C520.582,1464.88 521.094,1464.82 521.604,1464.75C522.114,1464.68 522.624,1464.64 523.134,1464.62L523.232,1464.62C523.267,1464.62 523.294,1464.63 523.314,1464.64Z" style="fill:none;fill-rule:nonzero;stroke:rgb(127,127,127);stroke-width:0.03px;"/>
        </g>
        <g transform="matrix(6.7727,0,0,6.7727,-3199.81,-8416.4)">
            <path d="M521.769,1467.4C521.649,1467.66 521.537,1467.91 521.432,1468.17C521.327,1468.42 521.254,1468.68 521.214,1468.94C521.174,1469.15 521.187,1469.34 521.252,1469.51C521.317,1469.67 521.464,1469.75 521.694,1469.75C521.844,1469.74 522.032,1469.67 522.257,1469.54C522.482,1469.41 522.712,1469.26 522.947,1469.08C523.182,1468.9 523.397,1468.71 523.592,1468.53C523.787,1468.35 523.924,1468.19 524.004,1468.07C523.924,1468.19 523.787,1468.35 523.592,1468.53C523.397,1468.71 523.182,1468.9 522.947,1469.08C522.712,1469.26 522.482,1469.41 522.257,1469.54C522.032,1469.67 521.844,1469.74 521.694,1469.75C521.464,1469.75 521.317,1469.67 521.252,1469.51C521.187,1469.34 521.174,1469.15 521.214,1468.94C521.254,1468.68 521.327,1468.42 521.432,1468.17C521.537,1467.91 521.649,1467.66 521.769,1467.4ZM521.889,1467.1L521.979,1466.93L521.889,1467.1Z" style="fill:none;fill-rule:nonzero;stroke:rgb(127,127,127);stroke-width:0.01px;"/>
        </g>
        <g transform="matrix(6.7727,0,0,6.7727,-3199.81,-8416.4)">
            <path d="M524.514,1467.67C524.324,1467.75 524.162,1467.87 524.027,1468.04C523.892,1468.21 523.809,1468.39 523.779,1468.58C523.769,1468.66 523.767,1468.75 523.772,1468.85C523.777,1468.94 523.794,1469.03 523.824,1469.11C523.854,1469.19 523.899,1469.25 523.959,1469.3C524.019,1469.35 524.094,1469.38 524.184,1469.38C524.304,1469.38 524.409,1469.34 524.499,1469.27C524.589,1469.19 524.667,1469.1 524.732,1469C524.797,1468.89 524.849,1468.78 524.889,1468.66C524.929,1468.55 524.954,1468.45 524.964,1468.36C524.974,1468.29 524.977,1468.21 524.972,1468.12C524.967,1468.04 524.952,1467.96 524.927,1467.89C524.902,1467.82 524.864,1467.76 524.814,1467.71C524.764,1467.66 524.699,1467.64 524.619,1467.64C524.549,1467.64 524.504,1467.67 524.484,1467.74C524.474,1467.84 524.514,1467.93 524.604,1468.01C524.694,1468.09 524.809,1468.16 524.949,1468.21C525.089,1468.26 525.234,1468.3 525.384,1468.32C525.534,1468.35 525.654,1468.36 525.744,1468.36C525.974,1468.36 526.202,1468.33 526.427,1468.28C526.652,1468.22 526.869,1468.15 527.079,1468.07C526.869,1468.15 526.652,1468.22 526.427,1468.28C526.202,1468.33 525.974,1468.36 525.744,1468.36C525.654,1468.36 525.534,1468.35 525.384,1468.32C525.234,1468.3 525.089,1468.26 524.949,1468.21C524.809,1468.16 524.694,1468.09 524.604,1468.01C524.514,1467.93 524.474,1467.84 524.484,1467.74C524.504,1467.67 524.549,1467.64 524.619,1467.64C524.699,1467.64 524.764,1467.66 524.814,1467.71C524.864,1467.76 524.902,1467.82 524.927,1467.89C524.952,1467.96 524.967,1468.04 524.972,1468.12C524.977,1468.21 524.974,1468.29 524.964,1468.36C524.954,1468.45 524.929,1468.55 524.889,1468.66C524.849,1468.78 524.797,1468.89 524.732,1469C524.667,1469.1 524.589,1469.19 524.499,1469.27C524.409,1469.34 524.304,1469.38 524.184,1469.38C524.094,1469.38 524.019,1469.35 523.959,1469.3C523.899,1469.25 523.854,1469.19 523.824,1469.11C523.794,1469.03 523.777,1468.94 523.772,1468.85C523.767,1468.75 523.769,1468.66 523.779,1468.58C523.809,1468.39 523.892,1468.21 524.027,1468.04C524.162,1467.87 524.324,1467.75 524.514,1467.67Z" style="fill:none;fill-rule:nonzero;stroke:rgb(127,127,127);stroke-width:0.01px;"/>
        </g>
        <g transform="matrix(6.7727,0,0,6.7727,-3199.81,-8416.4)">
            <path d="M531.849,1467.62C531.819,1467.68 531.797,1467.75 531.782,1467.81C531.767,1467.88 531.749,1467.94 531.729,1468C531.709,1468.12 531.699,1468.24 531.699,1468.36C531.699,1468.48 531.714,1468.59 531.744,1468.68C531.774,1468.78 531.829,1468.86 531.909,1468.92C531.989,1468.99 532.099,1469.02 532.239,1469.02C532.369,1469.02 532.512,1468.99 532.667,1468.92C532.822,1468.86 532.974,1468.78 533.124,1468.68C533.274,1468.59 533.419,1468.48 533.559,1468.37C533.699,1468.26 533.814,1468.16 533.904,1468.07C533.814,1468.16 533.699,1468.26 533.559,1468.37C533.419,1468.48 533.274,1468.59 533.124,1468.68C532.974,1468.78 532.822,1468.86 532.667,1468.92C532.512,1468.99 532.369,1469.02 532.239,1469.02C532.099,1469.02 531.989,1468.99 531.909,1468.92C531.829,1468.86 531.774,1468.78 531.744,1468.68C531.714,1468.59 531.699,1468.48 531.699,1468.36C531.699,1468.24 531.709,1468.12 531.729,1468C531.749,1467.94 531.767,1467.88 531.782,1467.81C531.797,1467.75 531.819,1467.68 531.849,1467.62ZM531.909,1467.52C531.889,1467.44 531.842,1467.38 531.767,1467.34C531.692,1467.3 531.609,1467.28 531.519,1467.28C531.359,1467.29 531.199,1467.36 531.039,1467.49C530.879,1467.62 530.734,1467.78 530.604,1467.96C530.474,1468.14 530.364,1468.34 530.274,1468.54C530.184,1468.74 530.129,1468.91 530.109,1469.05C530.089,1469.13 530.087,1469.23 530.102,1469.36C530.117,1469.48 530.179,1469.54 530.289,1469.54C530.429,1469.54 530.579,1469.46 530.739,1469.3C530.899,1469.13 531.054,1468.94 531.204,1468.72C531.354,1468.5 531.489,1468.28 531.609,1468.06C531.729,1467.84 531.819,1467.67 531.879,1467.55C531.819,1467.67 531.729,1467.84 531.609,1468.06C531.489,1468.28 531.354,1468.5 531.204,1468.72C531.054,1468.94 530.899,1469.13 530.739,1469.3C530.579,1469.46 530.429,1469.54 530.289,1469.54C530.179,1469.54 530.117,1469.48 530.102,1469.36C530.087,1469.23 530.089,1469.13 530.109,1469.05C530.129,1468.91 530.184,1468.74 530.274,1468.54C530.364,1468.34 530.474,1468.14 530.604,1467.96C530.734,1467.78 530.879,1467.62 531.039,1467.49C531.199,1467.36 531.359,1467.29 531.519,1467.28C531.609,1467.28 531.692,1467.3 531.767,1467.34C531.842,1467.38 531.889,1467.44 531.909,1467.52ZM531.459,1465.27C531.309,1465.28 531.194,1465.34 531.114,1465.45C531.034,1465.57 530.984,1465.7 530.964,1465.84C530.934,1465.99 530.949,1466.12 531.009,1466.25C531.069,1466.38 531.184,1466.44 531.354,1466.44C531.544,1466.43 531.699,1466.36 531.819,1466.23C531.939,1466.1 532.009,1465.96 532.029,1465.81C532.059,1465.64 532.027,1465.5 531.932,1465.39C531.837,1465.29 531.714,1465.24 531.564,1465.25C531.714,1465.24 531.837,1465.29 531.932,1465.39C532.027,1465.5 532.059,1465.64 532.029,1465.81C532.009,1465.96 531.939,1466.1 531.819,1466.23C531.699,1466.36 531.544,1466.43 531.354,1466.44C531.184,1466.44 531.069,1466.38 531.009,1466.25C530.949,1466.12 530.934,1465.99 530.964,1465.84C530.984,1465.7 531.034,1465.57 531.114,1465.45C531.194,1465.34 531.309,1465.28 531.459,1465.27Z" style="fill:none;fill-rule:nonzero;stroke:rgb(127,127,127);stroke-width:0.02px;"/>
        </g>
        <g transform="matrix(6.7727,0,0,6.7727,-3199.81,-8416.4)">
            <path d="M534.069,1467.1C534.049,1467.2 534.032,1467.3 534.017,1467.39C534.002,1467.49 533.984,1467.58 533.964,1467.68C533.894,1468.1 533.839,1468.52 533.799,1468.93C533.759,1469.34 533.709,1469.75 533.649,1470.17C533.659,1470.09 533.689,1469.96 533.739,1469.78C533.789,1469.6 533.854,1469.4 533.934,1469.19C534.014,1468.98 534.104,1468.76 534.204,1468.53C534.304,1468.31 534.409,1468.1 534.519,1467.91C534.629,1467.72 534.739,1467.56 534.849,1467.44C534.959,1467.32 535.064,1467.26 535.164,1467.26C535.194,1467.26 535.227,1467.28 535.262,1467.32C535.297,1467.36 535.339,1467.41 535.389,1467.46C535.439,1467.51 535.499,1467.55 535.569,1467.59C535.639,1467.63 535.719,1467.65 535.809,1467.65C535.869,1467.65 535.919,1467.64 535.959,1467.61C535.919,1467.64 535.869,1467.65 535.809,1467.65C535.719,1467.65 535.639,1467.63 535.569,1467.59C535.499,1467.55 535.439,1467.51 535.389,1467.46C535.339,1467.41 535.297,1467.36 535.262,1467.32C535.227,1467.28 535.194,1467.26 535.164,1467.26C535.064,1467.26 534.959,1467.32 534.849,1467.44C534.739,1467.56 534.629,1467.72 534.519,1467.91C534.409,1468.1 534.304,1468.31 534.204,1468.53C534.104,1468.76 534.014,1468.98 533.934,1469.19C533.854,1469.4 533.789,1469.6 533.739,1469.78C533.689,1469.96 533.659,1470.09 533.649,1470.17C533.709,1469.75 533.759,1469.34 533.799,1468.93C533.839,1468.52 533.894,1468.1 533.964,1467.68C533.984,1467.58 534.002,1467.49 534.017,1467.39C534.032,1467.3 534.049,1467.2 534.069,1467.1Z" style="fill:none;fill-rule:nonzero;stroke:rgb(127,127,127);stroke-width:0.01px;"/>
        </g>
        <g transform="matrix(6.7727,0,0,6.7727,-3199.81,-8416.4)">
            <path d="M537.579,1468.54C537.569,1468.58 537.564,1468.62 537.564,1468.67C537.564,1468.72 537.559,1468.76 537.549,1468.78C537.559,1468.76 537.564,1468.72 537.564,1468.67C537.564,1468.62 537.569,1468.58 537.579,1468.54ZM539.214,1461.77C539.144,1461.93 539.062,1462.16 538.967,1462.45C538.872,1462.74 538.774,1463.07 538.674,1463.43C538.574,1463.8 538.474,1464.19 538.374,1464.61C538.274,1465.03 538.177,1465.44 538.082,1465.86C537.987,1466.28 537.899,1466.67 537.819,1467.06C537.739,1467.44 537.669,1467.79 537.609,1468.1C537.669,1467.79 537.739,1467.44 537.819,1467.06C537.899,1466.67 537.987,1466.28 538.082,1465.86C538.177,1465.44 538.274,1465.03 538.374,1464.61C538.474,1464.19 538.574,1463.8 538.674,1463.43C538.774,1463.07 538.872,1462.74 538.967,1462.45C539.062,1462.16 539.144,1461.93 539.214,1461.77Z" style="fill:none;fill-rule:nonzero;stroke:rgb(127,127,127);stroke-width:0.01px;"/>
        </g>
    </g>
</svg>
