<?xml version="1.0" encoding="utf-8"?>
<!-- Generator: Adobe Illustrator 21.1.0, SVG Export Plug-In . SVG Version: 6.00 Build 0)  -->
<svg version="1.2" baseProfile="tiny" id="Lager_1" xmlns="http://www.w3.org/2000/svg" xmlns:xlink="http://www.w3.org/1999/xlink"
	 x="0px" y="0px" width="614.2" height="47.3" viewBox="0 0 614.2 47.3" xml:space="preserve">
<g id="board">

		<path fill="#008000" stroke="#FFFFFF" stroke-width="0.5" stroke-linecap="round" stroke-linejoin="round" stroke-miterlimit="10" d="
		M609.9,0H4.3C1.9,0,0,2,0,4.3v38.9c0,2,1.3,3.6,3.1,4.1h606.8c2.3,0,4.3-1.9,4.3-4.3V4.3C614.2,2,612.3,0,609.9,0z M47.2,42.3
		c-2.2,0-3.9-1.7-3.9-3.9s1.7-3.9,3.9-3.9s3.9,1.7,3.9,3.9C51.1,40.5,49.4,42.3,47.2,42.3z M47.2,12.8c-2.2,0-3.9-1.7-3.9-3.9
		C43.3,6.8,45,5,47.2,5s3.9,1.7,3.9,3.9C51.1,11,49.4,12.8,47.2,12.8z M307.1,27.6c-2.2,0-3.9-1.7-3.9-3.9s1.7-3.9,3.9-3.9
		c2.2,0,3.9,1.7,3.9,3.9C311,25.8,309.2,27.6,307.1,27.6z M566.9,42.3c-2.2,0-3.9-1.7-3.9-3.9s1.7-3.9,3.9-3.9s3.9,1.7,3.9,3.9
		C570.8,40.5,569.1,42.3,566.9,42.3z M566.9,12.8c-2.2,0-3.9-1.7-3.9-3.9s1.7-3.9,3.9-3.9s3.9,1.7,3.9,3.9
		C570.8,11,569.1,12.8,566.9,12.8z"/>
</g>
<g id="silkscreen">

		<rect x="59.1" y="1.5" fill="none" stroke="#FFFFFF" stroke-width="0.5" stroke-linecap="round" stroke-linejoin="round" stroke-miterlimit="10" width="23.6" height="8.9"/>

		<rect x="59.1" y="36.9" fill="none" stroke="#FFFFFF" stroke-width="0.5" stroke-linecap="round" stroke-linejoin="round" stroke-miterlimit="10" width="23.6" height="8.9"/>

		<rect x="11.8" y="1.5" fill="none" stroke="#FFFFFF" stroke-width="0.5" stroke-linecap="round" stroke-linejoin="round" stroke-miterlimit="10" width="23.6" height="8.9"/>

		<rect x="11.8" y="37" fill="none" stroke="#FFFFFF" stroke-width="0.5" stroke-linecap="round" stroke-linejoin="round" stroke-miterlimit="10" width="23.6" height="8.9"/>

		<rect x="153.5" y="1.5" fill="none" stroke="#FFFFFF" stroke-width="0.5" stroke-linecap="round" stroke-linejoin="round" stroke-miterlimit="10" width="23.6" height="8.9"/>

		<rect x="153.5" y="36.9" fill="none" stroke="#FFFFFF" stroke-width="0.5" stroke-linecap="round" stroke-linejoin="round" stroke-miterlimit="10" width="23.6" height="8.9"/>

		<rect x="106.3" y="1.5" fill="none" stroke="#FFFFFF" stroke-width="0.5" stroke-linecap="round" stroke-linejoin="round" stroke-miterlimit="10" width="23.6" height="8.9"/>

		<rect x="106.3" y="37" fill="none" stroke="#FFFFFF" stroke-width="0.5" stroke-linecap="round" stroke-linejoin="round" stroke-miterlimit="10" width="23.6" height="8.9"/>

		<rect x="248" y="1.5" fill="none" stroke="#FFFFFF" stroke-width="0.5" stroke-linecap="round" stroke-linejoin="round" stroke-miterlimit="10" width="23.6" height="8.9"/>

		<rect x="248" y="36.9" fill="none" stroke="#FFFFFF" stroke-width="0.5" stroke-linecap="round" stroke-linejoin="round" stroke-miterlimit="10" width="23.6" height="8.9"/>

		<rect x="200.7" y="1.5" fill="none" stroke="#FFFFFF" stroke-width="0.5" stroke-linecap="round" stroke-linejoin="round" stroke-miterlimit="10" width="23.6" height="8.9"/>

		<rect x="200.7" y="37" fill="none" stroke="#FFFFFF" stroke-width="0.5" stroke-linecap="round" stroke-linejoin="round" stroke-miterlimit="10" width="23.6" height="8.9"/>

		<rect x="342.5" y="1.5" fill="none" stroke="#FFFFFF" stroke-width="0.5" stroke-linecap="round" stroke-linejoin="round" stroke-miterlimit="10" width="23.6" height="8.9"/>

		<rect x="342.5" y="36.9" fill="none" stroke="#FFFFFF" stroke-width="0.5" stroke-linecap="round" stroke-linejoin="round" stroke-miterlimit="10" width="23.6" height="8.9"/>

		<rect x="295.2" y="1.5" fill="none" stroke="#FFFFFF" stroke-width="0.5" stroke-linecap="round" stroke-linejoin="round" stroke-miterlimit="10" width="23.6" height="8.9"/>

		<rect x="295.2" y="37" fill="none" stroke="#FFFFFF" stroke-width="0.5" stroke-linecap="round" stroke-linejoin="round" stroke-miterlimit="10" width="23.6" height="8.9"/>

		<rect x="437" y="1.5" fill="none" stroke="#FFFFFF" stroke-width="0.5" stroke-linecap="round" stroke-linejoin="round" stroke-miterlimit="10" width="23.6" height="8.9"/>

		<rect x="437" y="36.9" fill="none" stroke="#FFFFFF" stroke-width="0.5" stroke-linecap="round" stroke-linejoin="round" stroke-miterlimit="10" width="23.6" height="8.9"/>

		<rect x="389.7" y="1.5" fill="none" stroke="#FFFFFF" stroke-width="0.5" stroke-linecap="round" stroke-linejoin="round" stroke-miterlimit="10" width="23.6" height="8.9"/>

		<rect x="389.7" y="37" fill="none" stroke="#FFFFFF" stroke-width="0.5" stroke-linecap="round" stroke-linejoin="round" stroke-miterlimit="10" width="23.6" height="8.9"/>

		<rect x="531.5" y="1.5" fill="none" stroke="#FFFFFF" stroke-width="0.5" stroke-linecap="round" stroke-linejoin="round" stroke-miterlimit="10" width="23.6" height="8.9"/>

		<rect x="531.5" y="36.9" fill="none" stroke="#FFFFFF" stroke-width="0.5" stroke-linecap="round" stroke-linejoin="round" stroke-miterlimit="10" width="23.6" height="8.9"/>

		<rect x="484.2" y="1.5" fill="none" stroke="#FFFFFF" stroke-width="0.5" stroke-linecap="round" stroke-linejoin="round" stroke-miterlimit="10" width="23.6" height="8.9"/>

		<rect x="484.2" y="37" fill="none" stroke="#FFFFFF" stroke-width="0.5" stroke-linecap="round" stroke-linejoin="round" stroke-miterlimit="10" width="23.6" height="8.9"/>

		<rect x="578.7" y="1.5" fill="none" stroke="#FFFFFF" stroke-width="0.5" stroke-linecap="round" stroke-linejoin="round" stroke-miterlimit="10" width="23.6" height="8.9"/>

		<rect x="578.7" y="37" fill="none" stroke="#FFFFFF" stroke-width="0.5" stroke-linecap="round" stroke-linejoin="round" stroke-miterlimit="10" width="23.6" height="8.9"/>
</g>
</svg>
