<svg xmlns="http://www.w3.org/2000/svg" viewBox="0 0 291.79 29.96"><defs><style>.cls-1{fill:none;stroke:#000;stroke-miterlimit:10;}</style></defs><title>Resurs 1</title><g id="Lager_2" data-name="Lager 2"><g id="Lager_1-2" data-name="Lager 1"><path class="cls-1" d="M5.82,3.94.5,8.62V5.34L5.82.74H8.7V29.22H5.82Z"/><path class="cls-1" d="M29.06,26.66,40.3,12.38a8.65,8.65,0,0,0,1.2-2,5.78,5.78,0,0,0,.4-2.16,5.25,5.25,0,0,0-1.3-3.72,4.75,4.75,0,0,0-3.66-1.4,6.36,6.36,0,0,0-1.9.28,4,4,0,0,0-1.58.92,4.53,4.53,0,0,0-1.08,1.62A6.18,6.18,0,0,0,32,8.22H29.1a8.36,8.36,0,0,1,.56-3.1,7.07,7.07,0,0,1,1.58-2.44,7.28,7.28,0,0,1,2.46-1.6A8.61,8.61,0,0,1,36.94.5a9.05,9.05,0,0,1,3.2.54,7.18,7.18,0,0,1,2.48,1.54A6.77,6.77,0,0,1,44.22,5a8.61,8.61,0,0,1,.56,3.18,7.29,7.29,0,0,1-.56,3,14.29,14.29,0,0,1-1.72,2.78l-10,12.72H44.78v2.56H29.06Z"/><path class="cls-1" d="M67.22,29.46A11,11,0,0,1,64.06,29a7,7,0,0,1-4.42-3.74,8.27,8.27,0,0,1-.78-3.34h2.88a5.69,5.69,0,0,0,.56,2.26,4.58,4.58,0,0,0,1.24,1.54,5,5,0,0,0,1.7.88,6.89,6.89,0,0,0,2,.28,5.58,5.58,0,0,0,3.9-1.44,5.24,5.24,0,0,0,1.58-4.08,5.7,5.7,0,0,0-1.34-4A5.57,5.57,0,0,0,67.1,15.9h-.6V13.38h.6A4.94,4.94,0,0,0,71,12a5.43,5.43,0,0,0,1.22-3.76,5,5,0,0,0-1.44-3.88,5,5,0,0,0-3.52-1.32,5,5,0,0,0-3.6,1.28A5.33,5.33,0,0,0,62.1,7.82H59.22A8.31,8.31,0,0,1,60,4.74a7.27,7.27,0,0,1,1.72-2.3A7.44,7.44,0,0,1,64.18,1a9,9,0,0,1,3-.5,8.81,8.81,0,0,1,3.18.56,7.17,7.17,0,0,1,2.48,1.56,7.07,7.07,0,0,1,1.6,2.44,8.38,8.38,0,0,1,.58,3.16,6.28,6.28,0,0,1-3.84,6.28q4.36,1.64,4.36,6.92a8.53,8.53,0,0,1-.66,3.46,7.2,7.2,0,0,1-4.44,4.06A10.13,10.13,0,0,1,67.22,29.46Z"/><path class="cls-1" d="M101,24.7H89.62V22.1L99.9.74H103L92.7,22.1H101V14h2.84V22.1h3.48v2.6h-3.48v4.52H101Z"/><path class="cls-1" d="M129.38,29.46A9.29,9.29,0,0,1,126,28.9a6.7,6.7,0,0,1-2.38-1.48,6.58,6.58,0,0,1-1.4-2.2,9.72,9.72,0,0,1-.6-2.76h2.88a5.52,5.52,0,0,0,1.42,3.3,4.65,4.65,0,0,0,3.42,1.14,4.76,4.76,0,0,0,3.52-1.32,4.4,4.4,0,0,0,.88-1.24,5.89,5.89,0,0,0,.46-1.44,11.91,11.91,0,0,0,.18-1.56q0-.8,0-1.56a17.79,17.79,0,0,0-.18-2.56,6.88,6.88,0,0,0-.68-2.2,3.92,3.92,0,0,0-1.44-1.54,4.73,4.73,0,0,0-2.5-.58,5.67,5.67,0,0,0-3.08.76,3.85,3.85,0,0,0-1.64,2h-2.6V.74h14.4V3.3h-11.8v9a5.72,5.72,0,0,1,2.14-1.44,8,8,0,0,1,3-.52,7.82,7.82,0,0,1,2.84.48A5.92,5.92,0,0,1,135,12.18a7.84,7.84,0,0,1,1.24,1.7,8.08,8.08,0,0,1,.72,1.88,12.53,12.53,0,0,1,.32,2q.08,1,.08,2a21.26,21.26,0,0,1-.38,4.1,6.63,6.63,0,0,1-1.9,3.46,7.1,7.1,0,0,1-2.38,1.56A8.77,8.77,0,0,1,129.38,29.46Z"/><path class="cls-1" d="M160.18,29.46a8.62,8.62,0,0,1-3.3-.6,7,7,0,0,1-2.48-1.68,7.54,7.54,0,0,1-1.58-2.58,9.47,9.47,0,0,1-.56-3.34,11.22,11.22,0,0,1,.38-2.88A18.53,18.53,0,0,1,154,14.94l7-14.2h3l-6.52,13a6,6,0,0,1,3.16-.8,7.36,7.36,0,0,1,3,.6A6.87,6.87,0,0,1,166,15.22a7.69,7.69,0,0,1,1.52,2.56,9.4,9.4,0,0,1,.54,3.24,9.88,9.88,0,0,1-.56,3.36,7.88,7.88,0,0,1-1.58,2.68,7.23,7.23,0,0,1-2.48,1.76A8,8,0,0,1,160.18,29.46Zm0-2.56a4.65,4.65,0,0,0,3.66-1.56,6.11,6.11,0,0,0,1.38-4.2,7.17,7.17,0,0,0-.34-2.24,5.58,5.58,0,0,0-1-1.82,4.68,4.68,0,0,0-1.58-1.24,4.81,4.81,0,0,0-2.14-.46,4.59,4.59,0,0,0-3.64,1.56,6.17,6.17,0,0,0-1.36,4.2,6.17,6.17,0,0,0,1.36,4.2A4.59,4.59,0,0,0,160.14,26.9Z"/><path class="cls-1" d="M196.33,3.3h-9.92V7.78h-2.84v-7h15.8V3.3L189.5,29.22h-3Z"/><path class="cls-1" d="M221.82,29.46a9.3,9.3,0,0,1-3.3-.58,7.88,7.88,0,0,1-2.68-1.66,7.69,7.69,0,0,1-1.78-2.56,8.18,8.18,0,0,1-.64-3.28,6.88,6.88,0,0,1,1.24-4.2,9.88,9.88,0,0,1,3-2.72,7.78,7.78,0,0,1-2.7-2.52,6.8,6.8,0,0,1-1-3.8,8,8,0,0,1,.58-3.08,7.08,7.08,0,0,1,1.64-2.42,7.47,7.47,0,0,1,2.5-1.58,9,9,0,0,1,6.24,0,7.47,7.47,0,0,1,2.5,1.58,7.08,7.08,0,0,1,1.64,2.42,8,8,0,0,1,.58,3.08,6.9,6.9,0,0,1-1,3.8A7.61,7.61,0,0,1,226,14.46a9.67,9.67,0,0,1,3,2.72,7,7,0,0,1,1.22,4.2,8.19,8.19,0,0,1-.64,3.28,7.69,7.69,0,0,1-1.78,2.56,7.88,7.88,0,0,1-2.68,1.66A9.3,9.3,0,0,1,221.82,29.46Zm0-2.56a5.66,5.66,0,0,0,2.18-.42,5.17,5.17,0,0,0,1.76-1.18,5.69,5.69,0,0,0,0-7.92A5.18,5.18,0,0,0,224,16.2a5.87,5.87,0,0,0-4.36,0,5.18,5.18,0,0,0-1.76,1.18,5.69,5.69,0,0,0,0,7.92,5.17,5.17,0,0,0,1.76,1.18A5.67,5.67,0,0,0,221.82,26.9Zm0-13.64a4.8,4.8,0,0,0,3.58-1.4,5,5,0,0,0,1.38-3.68,5.1,5.1,0,0,0-1.38-3.68,5.17,5.17,0,0,0-7.16,0,5.1,5.1,0,0,0-1.38,3.68,5,5,0,0,0,1.38,3.68A4.8,4.8,0,0,0,221.82,13.26Z"/><path class="cls-1" d="M255.29,16.22a4.53,4.53,0,0,1-1.48.62,7.63,7.63,0,0,1-1.68.18,7.35,7.35,0,0,1-3-.6,6.86,6.86,0,0,1-2.34-1.68,7.67,7.67,0,0,1-1.52-2.56,9.4,9.4,0,0,1-.54-3.24,9.86,9.86,0,0,1,.56-3.36,7.88,7.88,0,0,1,1.58-2.68,7.23,7.23,0,0,1,2.48-1.76A8,8,0,0,1,252.61.5a8.62,8.62,0,0,1,3.3.6,7,7,0,0,1,2.48,1.68A7.54,7.54,0,0,1,260,5.36a9.5,9.5,0,0,1,.56,3.34,11.26,11.26,0,0,1-.38,2.88A18.6,18.6,0,0,1,258.77,15l-7,14.2h-3Zm-2.64-1.64A4.59,4.59,0,0,0,256.29,13a6.17,6.17,0,0,0,1.36-4.2,6.17,6.17,0,0,0-1.36-4.2,4.59,4.59,0,0,0-3.64-1.56A4.65,4.65,0,0,0,249,4.62a6.11,6.11,0,0,0-1.38,4.2,7.14,7.14,0,0,0,.34,2.24,5.53,5.53,0,0,0,1,1.82,4.66,4.66,0,0,0,1.58,1.24A4.8,4.8,0,0,0,252.65,14.58Z"/><path class="cls-1" d="M283.49,29.46a8.38,8.38,0,0,1-3.1-.56,7.51,7.51,0,0,1-2.48-1.58,7,7,0,0,1-1.64-2.48,8.65,8.65,0,0,1-.58-3.22V8.34a8.65,8.65,0,0,1,.58-3.22,7,7,0,0,1,1.64-2.48,7.52,7.52,0,0,1,2.48-1.58,8.86,8.86,0,0,1,6.2,0,7.14,7.14,0,0,1,4.1,4.06,8.39,8.39,0,0,1,.6,3.22V21.62a8.38,8.38,0,0,1-.6,3.22,7.14,7.14,0,0,1-4.1,4.06A8.39,8.39,0,0,1,283.49,29.46Zm0-2.56a4.45,4.45,0,0,0,3.66-1.54,6,6,0,0,0,1.26-3.9V8.5a6,6,0,0,0-1.26-3.9,5.12,5.12,0,0,0-7.32,0,6,6,0,0,0-1.26,3.9v13a6,6,0,0,0,1.26,3.9A4.45,4.45,0,0,0,283.49,26.9Z"/></g></g></svg>